<svg width="269" height="135" viewBox="0 0 269 135" fill="none" xmlns="http://www.w3.org/2000/svg">
<rect width="269" height="135" rx="10" fill="#5CBA59"/>
<path d="M51.2315 12.5961L50.6738 64.4615L54.02 14.8269H74.0969L51.2315 12.5961Z" fill="white" stroke="white" stroke-width="0.5"/>
<path d="M25.5762 39.9231L37.8454 72.8269L27.8069 40.4807L48.4416 34.3461L25.5762 39.9231Z" fill="white" stroke="white" stroke-width="0.5"/>
<path d="M109.994 30.5257C109.464 30.2443 108.934 30.4246 108.616 30.8946L108.611 30.8918C108.725 30.4839 108.512 30.1056 108.152 29.9143C107.526 29.5822 107.006 29.8969 106.505 30.8402L106.049 31.6987C105.984 31.8206 105.983 31.8876 106.11 31.9551L109.449 33.7279C109.581 33.7982 109.651 33.7946 109.718 33.6674L110.281 32.6076C110.686 31.8445 110.874 30.9928 109.994 30.5257ZM107.829 30.8028C108.163 30.9801 108.179 31.2194 107.968 31.6168L107.861 31.8182L107.034 31.3792L107.172 31.1196C107.344 30.7963 107.575 30.6678 107.829 30.8028ZM109.504 31.3592C109.716 31.4718 109.81 31.6646 109.787 31.8627C109.767 32.0018 109.693 32.1664 109.609 32.3254L109.435 32.6539L108.444 32.1277C108.489 32.0429 108.545 31.9235 108.579 31.8599C108.689 31.6533 108.776 31.5024 108.926 31.3853C109.077 31.2682 109.281 31.241 109.504 31.3592ZM110.264 26.6266C109.983 26.4775 109.641 26.4181 109.328 26.4963C108.888 26.609 108.557 26.9767 108.23 27.5914L107.791 28.4181C107.726 28.5399 107.739 28.5939 107.871 28.6643L111.22 30.4426C111.347 30.5102 111.415 30.4716 111.466 30.3762L111.747 29.8463C111.812 29.7244 111.779 29.6592 111.689 29.6113L110.597 29.0317C110.633 28.9762 110.731 28.8175 110.768 28.7486C111.201 27.9326 111.117 27.0797 110.264 26.6266ZM109.851 27.4942C110.233 27.6968 110.324 28.0104 110.113 28.4078C110.091 28.4502 109.998 28.6251 109.956 28.6912L108.806 28.0806L108.944 27.8209C109.155 27.4235 109.448 27.2803 109.851 27.4942ZM114.493 24.4572C114.462 24.4404 114.413 24.4419 114.362 24.4487L111.952 24.8808L110.916 22.9175C110.898 22.8876 110.88 22.8576 110.853 22.8435C110.811 22.821 110.757 22.8331 110.72 22.902L110.436 23.4372C110.38 23.5432 110.375 23.629 110.426 23.7242L111.425 25.4638L111.417 25.4797L109.943 24.6974C109.832 24.6383 109.778 24.6772 109.724 24.7779L109.445 25.3026C109.395 25.3979 109.39 25.4837 109.496 25.54L112.882 27.3381C112.999 27.4 113.064 27.3667 113.123 27.2554L113.402 26.7308C113.458 26.6248 113.441 26.5546 113.33 26.4955L111.957 25.7667L111.966 25.7508L113.867 25.4833C114.012 25.4654 114.1 25.4166 114.178 25.2682L114.533 24.6005C114.561 24.5475 114.546 24.4854 114.493 24.4572ZM115.182 20.7552C114.652 20.4738 114.122 20.6541 113.804 21.1241L113.799 21.1213C113.914 20.7134 113.7 20.3351 113.34 20.1438C112.714 19.8117 112.194 20.1264 111.693 21.0697L111.237 21.9282C111.173 22.0501 111.171 22.1171 111.298 22.1847L114.637 23.9574C114.769 24.0277 114.839 24.0241 114.906 23.8969L115.469 22.8371C115.874 22.074 116.062 21.2223 115.182 20.7552ZM113.017 21.0323C113.351 21.2096 113.367 21.4489 113.156 21.8463L113.049 22.0477L112.222 21.6087L112.36 21.3491C112.532 21.0258 112.763 20.8973 113.017 21.0323ZM114.692 21.5887C114.904 21.7013 114.998 21.8942 114.975 22.0922C114.955 22.2313 114.882 22.3959 114.797 22.5549L114.623 22.8834L113.632 22.3572C113.677 22.2724 113.733 22.153 113.767 22.0895C113.877 21.8828 113.964 21.7319 114.114 21.6148C114.265 21.4977 114.469 21.4705 114.692 21.5887Z" fill="white"/>
<path d="M102.539 33.2308L110.347 18.1731L103.654 33.2308L110.904 37.1346L102.539 33.2308Z" fill="white"/>
<path d="M121.501 19.8461L85.8086 2.55768L119.27 20.4038L96.4047 70.5961L121.501 19.8461Z" fill="white"/>
<path d="M82.4606 23.75L62.9414 63.9038C71.3068 48.8462 75.2106 39.9231 83.0183 23.75H82.4606Z" fill="white"/>
<path d="M101.981 38.8077L88.0391 68.3654C96.4044 53.3077 94.1737 56.0961 101.981 39.9231V38.8077Z" fill="white"/>
<path d="M95.2889 23.1923L74.6543 66.6923C82.462 52.75 88.0389 39.3654 95.8466 23.1923H95.2889Z" fill="white"/>
<path d="M83.0191 2C70.1922 25.9808 62.3845 40.4808 50.1152 66.6923H50.6729C63.4998 42.7115 71.8652 26.5385 83.0191 2Z" fill="white"/>
<path d="M125.962 58.3269L117.597 65.5769L128.193 57.7692L110.904 46.6154L125.962 58.3269Z" fill="white"/>
<path d="M66.2882 15.3846L65.7305 17.0577H74.0959L66.2882 15.3846Z" fill="white"/>
<path d="M112.018 53.3074C109.837 56.2131 108.615 57.8961 106.441 61.1151C107.11 60.9769 112.018 53.8651 112.018 53.8651V53.3074Z" fill="white"/>
<path d="M118.154 56.6539C116.481 58.8846 111.963 62.9156 109.789 66.1346C112.02 64.4616 118.154 57.2116 118.154 57.2116V56.6539Z" fill="white"/>
<path d="M59.0391 24.2451V39.3028L59.5968 23.6875C59.5588 22.9273 59.4447 22.9895 59.0391 24.2451Z" fill="white"/>
<path d="M45.6543 60V67.8077C46.212 67.8077 46.212 61.6731 46.212 58.8846L45.6543 60Z" fill="white"/>
<path d="M53.4609 43.2693V51.0769C54.0186 51.0769 54.0186 44.9423 54.0186 42.1539L53.4609 43.2693Z" fill="white"/>
<path d="M66.8457 22.0769V29.8846C67.4034 29.8846 67.4034 23.75 67.4034 20.9615L66.8457 22.0769Z" fill="white"/>
<path d="M40.6348 72.8268C71.3078 63.9038 95.2886 80.0768 120.385 72.8268" stroke="white" stroke-width="0.5" stroke-linecap="round"/>
<path d="M41.1914 71.1539C72.4222 61.6731 92.4991 77.8228 117.595 70.5728" stroke="white" stroke-width="0.5" stroke-linecap="round"/>
<path d="M132.096 75.0585V80.0777L130.981 76.7316C95.2888 90.1161 92.5003 70.0383 39.5195 76.1731C88.0388 67.25 91.3849 89.5578 132.096 75.0585Z" fill="white"/>
<path d="M127.076 73.3845V76.1729L125.961 75.0575C86.857 84.9641 81.874 68.0614 47.6688 73.1094C45.2755 73.4868 42.7495 73.9468 40.0762 74.4999C42.763 73.919 45.2868 73.461 47.6688 73.1094C88.7122 66.6373 90.7156 84.451 127.076 73.3845Z" fill="white"/>
<path d="M66.7875 101.35C66.7875 101.51 66.9155 101.654 67.0915 101.654H68.9955C69.1555 101.654 69.2995 101.51 69.2995 101.35V97.2699H70.4035L72.5315 101.51C72.5635 101.574 72.6595 101.654 72.7875 101.654H74.9155C75.1875 101.654 75.2995 101.398 75.1875 101.19L72.9955 97.1259C74.3875 96.5659 75.3635 95.3819 75.3635 93.9099C75.3635 92.0059 73.7955 90.4539 71.8755 90.4539H67.0915C66.9155 90.4539 66.7875 90.5979 66.7875 90.7579V101.35ZM69.2995 95.2379V92.7419H71.6675C72.3235 92.7419 72.8835 93.2859 72.8835 93.9579C72.8835 94.6299 72.3235 95.2379 71.6675 95.2379H69.2995ZM78.9876 101.51C79.1796 101.622 79.7716 101.814 80.3156 101.814C82.0276 101.814 83.4996 100.71 83.4996 98.4539C83.4996 96.6139 82.1396 95.0939 80.3316 95.0939C78.9236 95.0939 78.1876 96.1019 78.1876 96.1019L77.9956 95.5739C77.9316 95.3979 77.8196 95.2539 77.6596 95.2539H76.9076C76.7476 95.2539 76.6036 95.3979 76.6036 95.5579V106.15C76.6036 106.31 76.7476 106.454 76.9076 106.454H78.6836C78.8436 106.454 78.9876 106.31 78.9876 106.15V101.51ZM78.7316 98.4699C78.7316 97.7339 79.2756 97.1579 80.0116 97.1579C80.7476 97.1579 81.3076 97.7339 81.3076 98.4699C81.3076 99.1899 80.7476 99.7499 80.0116 99.7499C79.2756 99.7499 78.7316 99.1899 78.7316 98.4699Z" fill="white"/>
<path d="M88.0383 123.019C64.7835 117.878 51.9239 114.744 21.1152 120.23C43.9806 118 59.1902 117.678 88.0383 123.019Z" fill="white"/>
<path d="M20 124.135C72.4231 114.654 96.9615 134.173 129.308 133.616C111.459 134.32 100.359 132.64 79.1154 126.924C61.2079 123.433 48.8606 122.543 20 124.135Z" fill="white"/>
<path d="M125.403 127.481C127.076 111.865 127.927 99.3523 129.865 87.8846C128.383 111.231 127.858 118.516 127.076 128.596C117.106 131.208 108.429 129.464 90.8262 124.135L91.1706 124.21C107.819 127.868 117.256 129.942 125.403 127.481Z" fill="white"/>
<path d="M91.3848 85.0961C106.582 88.7532 114.86 89.0861 129.308 87.3269C115.366 90.1154 106.442 90.1154 91.3848 85.0961Z" fill="white"/>
<path d="M136 73.3846C95.2889 87.3269 90.8274 62.7884 38.4043 71.1538C58.3926 69.5888 67.8739 70.4965 83.0197 73.9423C106.355 81.4455 116.62 80.3369 133.77 76.173L131.539 121.346L136 73.3846Z" fill="white"/>
<path d="M80.7891 85.0962C78.3935 84.1056 75.6215 83.239 73.0431 83.5065C70.4646 83.774 67.9933 84.6793 65.8521 86.1405C63.7109 87.6018 61.9672 89.5731 60.7783 91.8767C59.5893 94.1803 58.9926 96.7436 59.0419 99.3355C59.0912 101.927 59.7849 104.466 61.0606 106.723C62.3363 108.98 64.1537 110.883 66.3489 112.262C68.5441 113.641 71.048 114.451 73.6348 114.621C76.2216 114.79 79.5483 114.062 81.9044 112.981L80.7891 112.981C78.5863 113.991 76.5151 114.254 74.0968 114.096C71.6784 113.938 68.9419 112.69 66.8896 111.401C64.8373 110.112 63.1382 108.332 61.9456 106.223C60.753 104.113 60.1044 101.739 60.0583 99.3161C60.0123 96.893 60.5702 94.4966 61.6817 92.343C62.7932 90.1894 64.4234 88.3464 66.4252 86.9803C68.427 85.6141 70.5708 84.2309 72.9814 83.9809C75.392 83.7308 77.9918 84.1701 80.2314 85.0962L80.7891 85.0962Z" fill="white"/>
<path d="M80.7882 113.538C83.5338 112.342 86.1317 110.224 87.7736 107.648C89.4156 105.071 90.2839 102.047 90.2687 98.959C90.2536 95.8706 89.3557 92.8562 87.6886 90.297C86.0214 87.7379 83.5454 86.2635 80.7882 85.0961H80.2305C82.9393 86.243 85.8316 87.9363 87.4695 90.4505C89.1074 92.9648 89.9895 95.9262 90.0044 98.9604C90.0193 101.995 89.1662 104.965 87.5531 107.497C85.94 110.028 83.4856 111.805 80.7882 112.981V113.538Z" fill="white"/>
<path d="M197.876 61.14C197.876 58.18 196.816 56.22 195.016 55.18C193.696 54.42 192.136 54.16 189.836 54.16H186.956C186.456 54.16 186.336 54.34 186.336 54.76V67.44C186.336 67.9 186.516 68 186.916 68H190.736C192.716 68 194.456 67.54 195.696 66.5C197.056 65.34 197.876 63.54 197.876 61.14ZM195.116 61.12C195.116 62.78 194.656 63.98 193.856 64.78C193.016 65.62 191.856 65.84 190.476 65.84H188.936V56.34H190.396C191.676 56.34 192.736 56.56 193.556 57.16C194.576 57.92 195.116 59.3 195.116 61.12ZM209.424 67.62V66.68C209.424 66.42 209.304 66.34 209.064 66.34H208.904C208.804 66.34 208.724 66.32 208.664 66.26C208.584 66.16 208.544 65.96 208.544 65.68V58.74C208.544 58.44 208.384 58.3 208.124 58.3H206.724C206.484 58.3 206.324 58.44 206.304 58.66L206.264 59.2C205.764 58.52 204.764 58.04 203.704 58.04C201.464 58.04 199.384 59.86 199.384 63.32C199.384 65.92 200.664 68.24 203.484 68.24C204.584 68.24 205.884 67.56 206.384 66.82H206.424C206.564 67.5 207.024 68 208.064 68H209.024C209.264 68 209.424 67.86 209.424 67.62ZM206.124 64.9C205.824 65.52 204.984 66.26 204.004 66.26C202.524 66.26 201.884 64.84 201.884 63.16C201.884 61.06 202.924 60.02 204.144 60.02C204.904 60.02 205.724 60.46 206.124 61.04V64.9ZM219.856 67.48V61.62C219.856 59.44 218.936 58.04 216.696 58.04C215.536 58.04 214.376 58.46 213.456 59.2L213.436 58.68C213.416 58.38 213.236 58.3 212.956 58.3H211.656C211.296 58.3 211.156 58.48 211.156 58.8V67.52C211.156 67.84 211.336 68 211.636 68H213.096C213.436 68 213.576 67.84 213.576 67.5V61.12C214.196 60.58 215.156 60.16 215.936 60.16C217.156 60.16 217.456 60.94 217.456 62.04V67.48C217.456 67.82 217.576 68 217.936 68H219.376C219.736 68 219.856 67.82 219.856 67.48ZM231.787 67.62V66.68C231.787 66.42 231.667 66.34 231.427 66.34H231.267C231.167 66.34 231.087 66.32 231.027 66.26C230.947 66.16 230.907 65.96 230.907 65.68V58.74C230.907 58.44 230.747 58.3 230.487 58.3H229.087C228.847 58.3 228.687 58.44 228.667 58.66L228.627 59.2C228.127 58.52 227.127 58.04 226.067 58.04C223.827 58.04 221.747 59.86 221.747 63.32C221.747 65.92 223.027 68.24 225.847 68.24C226.947 68.24 228.247 67.56 228.747 66.82H228.787C228.927 67.5 229.387 68 230.427 68H231.387C231.627 68 231.787 67.86 231.787 67.62ZM228.487 64.9C228.187 65.52 227.347 66.26 226.367 66.26C224.887 66.26 224.247 64.84 224.247 63.16C224.247 61.06 225.287 60.02 226.507 60.02C227.267 60.02 228.087 60.46 228.487 61.04V64.9ZM188.021 87.96C188.021 86.12 186.941 85.06 185.361 84.3L183.141 83.22C182.481 82.9 181.721 82.42 181.721 81.6C181.721 80.48 182.801 80.08 183.741 80.08C184.541 80.08 185.561 80.36 186.381 80.7C186.501 80.74 186.601 80.78 186.701 80.78C186.841 80.78 186.961 80.7 187.041 80.48L187.521 79.26C187.561 79.16 187.581 79.08 187.581 79C187.581 78.84 187.441 78.72 187.181 78.6C186.021 78.1 184.921 77.9 183.601 77.9C181.381 77.9 178.981 79.24 178.981 81.68C178.981 83.24 179.921 84.42 181.341 85.12L183.941 86.42C184.721 86.8 185.401 87.3 185.401 88.22C185.401 89.48 184.181 90 183.101 90C182.101 90 181.061 89.74 180.121 89.4C180.001 89.36 179.901 89.34 179.821 89.34C179.621 89.34 179.521 89.46 179.461 89.66L179.041 90.96C179.001 91.06 179.001 91.14 179.001 91.22C179.001 91.38 179.081 91.5 179.341 91.6C180.541 92.02 181.961 92.24 183.161 92.24C185.761 92.24 188.021 90.74 188.021 87.96ZM198.471 82.58C198.471 82.42 198.351 82.3 198.151 82.3H196.531C196.191 82.3 196.031 82.44 195.931 82.76L193.831 89.26L191.611 82.64C191.531 82.44 191.391 82.3 191.111 82.3H189.191C189.011 82.3 188.891 82.42 188.891 82.58C188.891 82.64 188.911 82.68 188.931 82.74L192.571 92.12L192.191 93.02C191.791 93.96 191.271 94.4 190.031 94.4C189.831 94.4 189.591 94.36 189.351 94.34C189.311 94.34 189.271 94.34 189.231 94.34C189.011 94.34 188.911 94.44 188.871 94.7L188.731 95.74C188.731 95.82 188.711 95.86 188.711 95.92C188.711 96.1 188.791 96.22 189.011 96.26C189.351 96.34 189.691 96.36 190.071 96.36C192.471 96.36 193.591 95.52 194.491 93.14L198.431 82.78C198.451 82.7 198.471 82.64 198.471 82.58ZM208.975 91.62V90.68C208.975 90.42 208.855 90.34 208.615 90.34H208.455C208.355 90.34 208.275 90.32 208.215 90.26C208.135 90.16 208.095 89.96 208.095 89.68V82.74C208.095 82.44 207.935 82.3 207.675 82.3H206.275C206.035 82.3 205.875 82.44 205.855 82.66L205.815 83.2C205.315 82.52 204.315 82.04 203.255 82.04C201.015 82.04 198.935 83.86 198.935 87.32C198.935 89.92 200.215 92.24 203.035 92.24C204.135 92.24 205.435 91.56 205.935 90.82H205.975C206.115 91.5 206.575 92 207.615 92H208.575C208.815 92 208.975 91.86 208.975 91.62ZM205.675 88.9C205.375 89.52 204.535 90.26 203.555 90.26C202.075 90.26 201.435 88.84 201.435 87.16C201.435 85.06 202.475 84.02 203.695 84.02C204.455 84.02 205.275 84.46 205.675 85.04V88.9ZM216.187 82.38C216.187 82.22 216.127 82.16 215.987 82.12C215.807 82.08 215.587 82.04 215.427 82.04C214.307 82.04 213.627 82.54 213.007 83.32L212.987 82.68C212.987 82.4 212.807 82.3 212.487 82.3H211.207C210.907 82.3 210.707 82.4 210.707 82.8V85.26V91.5C210.707 91.84 210.867 92 211.187 92H212.647C212.987 92 213.127 91.82 213.127 91.5V85.14C213.627 84.54 214.367 84.18 215.047 84.18C215.227 84.18 215.427 84.2 215.587 84.24C215.627 84.24 215.647 84.24 215.667 84.24C215.827 84.24 215.927 84.16 215.947 83.98L216.167 82.56C216.187 82.5 216.187 82.44 216.187 82.38ZM220.302 79.76C220.302 78.96 219.642 78.5 218.962 78.5C218.262 78.5 217.602 78.98 217.602 79.78C217.602 80.58 218.302 81.02 218.962 81.02C219.622 81.02 220.302 80.54 220.302 79.76ZM220.182 91.5V82.76C220.182 82.4 220.002 82.3 219.682 82.3H218.282C217.962 82.3 217.762 82.42 217.762 82.76V91.5C217.762 91.86 217.922 92 218.282 92H219.682C220.022 92 220.182 91.86 220.182 91.5ZM232.237 91.62V90.68C232.237 90.42 232.117 90.34 231.877 90.34H231.717C231.617 90.34 231.537 90.32 231.477 90.26C231.397 90.16 231.357 89.96 231.357 89.68V82.74C231.357 82.44 231.197 82.3 230.937 82.3H229.537C229.297 82.3 229.137 82.44 229.117 82.66L229.077 83.2C228.577 82.52 227.577 82.04 226.517 82.04C224.277 82.04 222.197 83.86 222.197 87.32C222.197 89.92 223.477 92.24 226.297 92.24C227.397 92.24 228.697 91.56 229.197 90.82H229.237C229.377 91.5 229.837 92 230.877 92H231.837C232.077 92 232.237 91.86 232.237 91.62ZM228.937 88.9C228.637 89.52 227.797 90.26 226.817 90.26C225.337 90.26 224.697 88.84 224.697 87.16C224.697 85.06 225.737 84.02 226.957 84.02C227.717 84.02 228.537 84.46 228.937 85.04V88.9ZM242.709 91.6V85.62C242.709 83.46 241.789 82.04 239.549 82.04C238.489 82.04 237.229 82.42 236.389 83.12V78.1C236.389 77.82 236.269 77.72 236.049 77.72C235.969 77.72 235.869 77.72 235.789 77.74L234.409 77.92C234.129 77.96 233.969 78.06 233.969 78.42V91.64C233.969 91.9 234.049 92 234.289 92H236.009C236.309 92 236.389 91.9 236.389 91.6V85.12C237.009 84.58 238.009 84.16 238.789 84.16C239.989 84.16 240.289 84.96 240.289 86.04V91.6C240.289 91.92 240.349 92 240.629 92H242.389C242.649 92 242.709 91.9 242.709 91.6Z" fill="white"/>
</svg>
