<svg width="269" height="135" viewBox="0 0 269 135" fill="none" xmlns="http://www.w3.org/2000/svg">
<rect width="269" height="135" rx="10" fill="#002F5F"/>
<path d="M161.982 55.52V54.38C161.982 54.06 161.822 53.92 161.482 53.92H156.122V49.92H160.762C161.102 49.92 161.242 49.78 161.242 49.44V48.3C161.242 48.02 161.122 47.86 160.742 47.86H156.122V44.24H161.142C161.562 44.24 161.782 44.18 161.822 43.82L161.962 42.62C161.962 42.58 161.962 42.54 161.962 42.5C161.962 42.28 161.862 42.16 161.542 42.16H154.002C153.682 42.16 153.542 42.34 153.542 42.66V55.46C153.542 55.9 153.682 56 154.082 56H161.502C161.842 56 161.982 55.84 161.982 55.52ZM166.524 55.5V42.14C166.524 41.82 166.324 41.7 166.084 41.7C166.044 41.7 165.984 41.72 165.944 41.72L164.504 41.92C164.244 41.96 164.104 42.06 164.104 42.4V55.52C164.104 55.86 164.284 56 164.564 56H166.084C166.364 56 166.524 55.84 166.524 55.5ZM177.525 51.12V50.82C177.525 49.46 177.265 48.2 176.345 47.24C175.645 46.5 174.645 46.04 173.425 46.04C170.445 46.04 168.465 48.12 168.465 51.12C168.465 54.24 170.325 56.24 173.465 56.24C174.505 56.24 175.845 56.04 176.825 55.6C177.065 55.5 177.145 55.4 177.145 55.26C177.145 55.2 177.125 55.12 177.105 55.02L176.825 54C176.785 53.84 176.685 53.76 176.545 53.76C176.465 53.76 176.405 53.8 176.325 53.82C175.585 54.1 174.705 54.3 173.865 54.3C172.285 54.3 171.165 53.24 171.005 51.7H176.865C177.365 51.7 177.525 51.6 177.525 51.12ZM175.145 50.12H171.045C171.205 48.94 171.985 47.9 173.285 47.9C174.505 47.9 175.105 48.86 175.145 49.9C175.145 49.94 175.145 50.08 175.145 50.12ZM187.438 55.76C187.438 55.64 187.378 55.5 187.298 55.38L184.058 50.32L186.918 46.72C186.978 46.64 186.998 46.56 186.998 46.5C186.998 46.38 186.898 46.3 186.738 46.3H184.958C184.698 46.3 184.578 46.36 184.418 46.58L181.798 50.18H181.758V45.52V42.16C181.758 41.82 181.618 41.7 181.378 41.7C181.318 41.7 181.278 41.72 181.218 41.72L179.758 41.92C179.458 41.96 179.338 42.08 179.338 42.4V55.52C179.338 55.82 179.498 56 179.798 56H181.298C181.618 56 181.758 55.84 181.758 55.5V54.36V51.58L181.978 51.38L184.538 55.58C184.738 55.9 184.978 56 185.338 56H187.058C187.258 56 187.438 55.94 187.438 55.76ZM195.066 55.4C195.066 55.36 195.066 55.34 195.046 55.28L194.846 54.28C194.806 54.12 194.726 54.04 194.586 54.04C194.526 54.04 194.466 54.06 194.386 54.08C194.026 54.2 193.606 54.32 193.106 54.32C192.626 54.32 192.346 54.16 192.166 53.9C191.946 53.58 191.906 53.14 191.906 52.54V47.96H194.146C194.386 47.96 194.546 47.82 194.546 47.58V46.64C194.546 46.38 194.406 46.3 194.166 46.3H191.906V43.9C191.906 43.6 191.786 43.46 191.526 43.46C191.486 43.46 191.466 43.46 191.426 43.46L189.986 43.64C189.666 43.68 189.486 43.78 189.486 44.12V46.3H188.466C188.226 46.3 188.106 46.46 188.106 46.7V47.46C188.106 47.88 188.166 47.96 188.546 47.96H189.486V52.42C189.486 53.88 189.506 54.7 190.126 55.4C190.626 55.98 191.506 56.24 192.526 56.24C193.326 56.24 194.146 56.04 194.766 55.78C194.966 55.7 195.066 55.6 195.066 55.4ZM202.103 46.38C202.103 46.22 202.043 46.16 201.903 46.12C201.723 46.08 201.503 46.04 201.343 46.04C200.223 46.04 199.543 46.54 198.923 47.32L198.903 46.68C198.903 46.4 198.723 46.3 198.403 46.3H197.123C196.823 46.3 196.623 46.4 196.623 46.8V49.26V55.5C196.623 55.84 196.783 56 197.103 56H198.563C198.903 56 199.043 55.82 199.043 55.5V49.14C199.543 48.54 200.283 48.18 200.963 48.18C201.143 48.18 201.343 48.2 201.503 48.24C201.543 48.24 201.563 48.24 201.583 48.24C201.743 48.24 201.843 48.16 201.863 47.98L202.083 46.56C202.103 46.5 202.103 46.44 202.103 46.38ZM212.285 51.14C212.285 48.2 210.785 46.04 207.525 46.04C204.405 46.04 202.645 48.24 202.645 51.12C202.645 54.04 204.145 56.24 207.405 56.24C210.525 56.24 212.285 54.02 212.285 51.14ZM209.785 51.14C209.785 52.78 209.185 54.34 207.425 54.34C205.645 54.34 205.145 52.72 205.145 51.08C205.145 49.48 205.725 47.94 207.505 47.94C209.265 47.94 209.785 49.5 209.785 51.14ZM222.921 55.48V49.62C222.921 47.44 222.001 46.04 219.761 46.04C218.601 46.04 217.441 46.46 216.521 47.2L216.501 46.68C216.481 46.38 216.301 46.3 216.021 46.3H214.721C214.361 46.3 214.221 46.48 214.221 46.8V55.52C214.221 55.84 214.401 56 214.701 56H216.161C216.501 56 216.641 55.84 216.641 55.5V49.12C217.261 48.58 218.221 48.16 219.001 48.16C220.221 48.16 220.521 48.94 220.521 50.04V55.48C220.521 55.82 220.641 56 221.001 56H222.441C222.801 56 222.921 55.82 222.921 55.48ZM228.132 43.76C228.132 42.96 227.472 42.5 226.792 42.5C226.092 42.5 225.432 42.98 225.432 43.78C225.432 44.58 226.132 45.02 226.792 45.02C227.452 45.02 228.132 44.54 228.132 43.76ZM228.012 55.5V46.76C228.012 46.4 227.832 46.3 227.512 46.3H226.112C225.792 46.3 225.592 46.42 225.592 46.76V55.5C225.592 55.86 225.752 56 226.112 56H227.512C227.852 56 228.012 55.86 228.012 55.5ZM238.747 55.76C238.747 55.64 238.687 55.5 238.607 55.38L235.367 50.32L238.227 46.72C238.287 46.64 238.307 46.56 238.307 46.5C238.307 46.38 238.207 46.3 238.047 46.3H236.267C236.007 46.3 235.887 46.36 235.727 46.58L233.107 50.18H233.067V45.52V42.16C233.067 41.82 232.927 41.7 232.687 41.7C232.627 41.7 232.587 41.72 232.527 41.72L231.067 41.92C230.767 41.96 230.647 42.08 230.647 42.4V55.52C230.647 55.82 230.807 56 231.107 56H232.607C232.927 56 233.067 55.84 233.067 55.5V54.36V51.58L233.287 51.38L235.847 55.58C236.047 55.9 236.287 56 236.647 56H238.367C238.567 56 238.747 55.94 238.747 55.76ZM171.732 78.56C171.732 78.44 171.672 78.38 171.452 78.32C170.612 78.1 169.632 77.62 168.932 76.96C169.972 75.7 170.812 74 170.912 71.56C170.912 71.54 170.912 71.54 170.912 71.52C170.912 71.28 170.832 71.2 170.552 71.2H169.352C169.092 71.2 168.992 71.28 168.972 71.58C168.852 73.52 168.132 74.84 167.592 75.56L164.612 72.16C165.732 71.36 166.932 70.34 166.932 68.88C166.932 67.08 165.412 65.9 163.512 65.9C161.632 65.9 159.932 67.16 159.932 68.94C159.932 69.9 160.332 70.6 161.032 71.4L161.572 72.02C160.012 72.98 158.432 74.22 158.432 76.2C158.432 78.66 160.472 80.24 162.932 80.24C164.672 80.24 166.152 79.56 167.412 78.46C168.232 79.28 169.532 79.98 170.772 80.16C170.832 80.16 170.912 80.18 170.972 80.18C171.192 80.18 171.292 80.1 171.352 79.88L171.692 78.76C171.712 78.68 171.732 78.62 171.732 78.56ZM164.792 68.92C164.792 69.62 164.052 70.36 163.452 70.78L162.992 70.24C162.572 69.74 162.332 69.3 162.332 68.86C162.332 68.2 162.852 67.7 163.552 67.7C164.312 67.7 164.792 68.26 164.792 68.92ZM166.052 77.12C165.412 77.78 164.332 78.24 163.252 78.24C161.932 78.24 160.892 77.34 160.892 76.02C160.892 74.94 161.752 74.1 162.752 73.38L166.052 77.12ZM188.057 66.98C188.057 66.9 188.017 66.82 187.917 66.76C186.917 66.2 185.757 65.96 184.537 65.96C180.297 65.96 177.277 69.78 176.857 73.88C176.817 74.24 176.797 74.62 176.797 74.96C176.797 78.12 178.417 80.22 181.817 80.22C183.197 80.22 184.797 79.9 185.997 79.34C186.437 79.14 186.537 79 186.597 78.64L187.677 72.46C187.677 72.42 187.697 72.38 187.697 72.34C187.697 72.16 187.597 72.12 187.377 72.12H183.877C183.657 72.12 183.557 72.2 183.517 72.42L183.357 73.24C183.357 73.28 183.357 73.3 183.357 73.32C183.357 73.48 183.457 73.56 183.637 73.56H185.697L184.877 78.2C184.117 78.52 183.077 78.72 182.197 78.72C179.817 78.72 178.737 77.08 178.737 74.68C178.737 74.4 178.757 74.12 178.777 73.82C178.957 72 179.677 70.26 180.837 69.04C181.757 68.08 183.017 67.46 184.397 67.46C185.377 67.46 186.417 67.76 187.097 68.14C187.157 68.18 187.217 68.2 187.277 68.2C187.377 68.2 187.457 68.14 187.537 68L187.997 67.18C188.037 67.1 188.057 67.04 188.057 66.98ZM199.088 78.66C199.108 78.5 198.948 78.46 198.848 78.52C198.568 78.68 198.248 78.8 197.988 78.8C197.748 78.8 197.688 78.62 197.688 78.32C197.688 78.18 197.748 77.68 197.788 77.5L198.868 71.5C198.908 71.28 198.848 71.16 198.668 71.06C197.648 70.52 196.448 70.1 195.048 70.1C193.648 70.1 192.348 70.74 191.448 71.7C190.268 72.98 189.608 74.78 189.608 76.42C189.608 78.48 190.548 80.22 192.808 80.22C194.248 80.22 195.428 79.44 196.088 78.56H196.128C196.108 78.7 196.088 78.82 196.088 78.94C196.088 79.26 196.148 79.54 196.308 79.76C196.468 79.96 196.808 80.1 197.188 80.1C197.968 80.1 198.548 79.74 198.728 79.66C198.868 79.6 199.008 79.42 199.028 79.26L199.088 78.66ZM197.108 72.02L196.228 76.86C195.708 77.84 194.608 78.8 193.288 78.8C192.048 78.8 191.368 77.88 191.368 76.42C191.368 75.14 191.848 73.54 192.788 72.5C193.348 71.88 194.188 71.44 195.088 71.44C196.048 71.44 196.668 71.72 197.108 72.02ZM210.747 65.98C210.747 65.86 210.687 65.78 210.527 65.78C210.487 65.78 210.447 65.78 210.407 65.78L209.387 65.92C209.167 65.96 209.067 66.06 209.027 66.3C209.027 66.3 208.407 69.82 208.147 71.3C207.707 70.5 206.707 70.08 205.727 70.08C204.447 70.08 203.267 70.66 202.387 71.58C201.147 72.88 200.507 74.7 200.507 76.48C200.507 78.58 201.427 80.22 203.747 80.22C204.887 80.22 206.107 79.7 206.907 78.86L206.787 79.6C206.787 79.64 206.767 79.7 206.767 79.74C206.767 79.9 206.847 80 207.067 80H208.047C208.247 80 208.287 79.88 208.327 79.66L210.727 66.12C210.727 66.06 210.747 66.02 210.747 65.98ZM207.887 72.8L207.087 77.38C206.527 78.12 205.227 78.86 204.267 78.86C202.887 78.86 202.247 77.9 202.247 76.44C202.247 74.98 202.807 73.06 203.967 72.1C204.507 71.66 205.147 71.42 205.847 71.42C206.807 71.42 207.587 72 207.887 72.8ZM220.67 71.76C220.67 71.6 220.61 71.5 220.45 71.38C219.69 70.76 218.33 70.1 216.99 70.1C213.53 70.1 211.41 73.2 211.41 76.42C211.41 77.34 211.61 78.24 212.07 78.86C212.61 79.6 213.49 80.02 214.69 80.02C215.71 80.02 217.05 79.5 217.77 78.74L217.61 79.58C217.27 81.4 216.55 83.06 214.17 83.06C213.47 83.06 212.79 82.84 212.13 82.56C211.99 82.5 211.89 82.46 211.81 82.46C211.71 82.46 211.65 82.52 211.59 82.66L211.25 83.32C211.21 83.4 211.19 83.46 211.19 83.52C211.19 83.62 211.25 83.7 211.37 83.76C212.15 84.14 213.15 84.38 214.01 84.38C217.25 84.38 218.75 82.52 219.29 79.48L220.65 71.96C220.67 71.88 220.67 71.82 220.67 71.76ZM218.91 72.26L218.01 77.34C217.39 78.06 216.27 78.66 215.27 78.66C213.69 78.66 213.17 77.52 213.17 76.1C213.17 74.06 214.39 71.44 216.75 71.44C217.83 71.44 218.61 71.96 218.91 72.26ZM230.591 73.34C230.591 71.38 229.491 70.1 227.491 70.1C225.931 70.1 224.611 70.74 223.651 71.78C222.531 73 221.951 74.7 221.951 76.34C221.951 78.72 223.351 80.22 225.911 80.22C226.911 80.22 227.931 80.04 228.871 79.68C229.031 79.62 229.171 79.52 229.171 79.34C229.171 79.32 229.171 79.3 229.171 79.28L229.111 78.6C229.111 78.48 229.051 78.42 228.931 78.42C228.871 78.42 228.771 78.42 228.671 78.46C227.911 78.72 226.991 78.88 226.251 78.88C224.451 78.88 223.711 77.72 223.711 76.18C223.711 76 223.751 75.62 223.771 75.44H225.871H229.871C230.251 75.44 230.351 75.38 230.411 75.02C230.511 74.48 230.591 73.9 230.591 73.34ZM229.011 73.34C229.011 73.66 228.971 74 228.911 74.32H223.971C224.411 72.78 225.571 71.38 227.251 71.38C228.531 71.38 229.011 72.24 229.011 73.34ZM237.915 70.56C237.915 70.54 237.915 70.54 237.915 70.52C237.915 70.4 237.815 70.32 237.695 70.32H235.355L235.775 67.9C235.795 67.84 235.795 67.78 235.795 67.72C235.795 67.6 235.755 67.52 235.595 67.52C235.575 67.52 235.555 67.52 235.535 67.52L234.515 67.64C234.295 67.66 234.155 67.74 234.115 67.98L233.695 70.32H232.575C232.395 70.32 232.295 70.42 232.255 70.6L232.135 71.24C232.135 71.26 232.135 71.28 232.135 71.3C232.135 71.44 232.275 71.48 232.435 71.48H233.495L232.595 76.54C232.495 77.12 232.375 77.68 232.375 78.2C232.375 79.6 233.335 80.22 234.675 80.22C235.275 80.22 235.935 80.14 236.575 79.9C236.835 79.8 236.875 79.74 236.875 79.52L236.855 78.8C236.855 78.64 236.755 78.58 236.655 78.58C236.635 78.58 236.615 78.58 236.595 78.58C236.155 78.72 235.555 78.84 235.255 78.84C234.575 78.84 234.095 78.64 234.095 77.84C234.095 77.52 234.155 77.16 234.275 76.44L235.155 71.48H237.475C237.655 71.48 237.795 71.4 237.815 71.2L237.915 70.56ZM175.302 90.5C175.302 90.26 175.182 90.16 174.882 90.16H167.342C167.022 90.16 166.882 90.34 166.882 90.66V103.46C166.882 103.9 167.022 104 167.422 104H168.982C169.322 104 169.462 103.86 169.462 103.5V97.92H174.102C174.442 97.92 174.582 97.78 174.582 97.44V96.3C174.582 96.02 174.462 95.86 174.082 95.86H169.462V92.24H174.482C174.902 92.24 175.122 92.18 175.162 91.82L175.302 90.62C175.302 90.58 175.302 90.54 175.302 90.5ZM185.263 103.44V94.76C185.263 94.4 185.083 94.3 184.763 94.3H183.343C183.023 94.3 182.843 94.42 182.843 94.76V101.14C182.243 101.68 181.283 102.1 180.523 102.1C179.323 102.1 179.043 101.34 179.043 100.24V94.76C179.043 94.4 178.863 94.3 178.543 94.3H177.143C176.823 94.3 176.623 94.42 176.623 94.76V100.66C176.623 102.82 177.543 104.24 179.783 104.24C180.943 104.24 182.043 103.84 182.963 103.1L182.983 103.6C183.003 103.86 183.203 104 183.463 104H184.743C185.143 104 185.263 103.86 185.263 103.44ZM193.236 94.38C193.236 94.22 193.176 94.16 193.036 94.12C192.856 94.08 192.636 94.04 192.476 94.04C191.356 94.04 190.676 94.54 190.056 95.32L190.036 94.68C190.036 94.4 189.856 94.3 189.536 94.3H188.256C187.956 94.3 187.756 94.4 187.756 94.8V97.26V103.5C187.756 103.84 187.916 104 188.236 104H189.696C190.036 104 190.176 103.82 190.176 103.5V97.14C190.676 96.54 191.416 96.18 192.096 96.18C192.276 96.18 192.476 96.2 192.636 96.24C192.676 96.24 192.696 96.24 192.716 96.24C192.876 96.24 192.976 96.16 192.996 95.98L193.216 94.56C193.236 94.5 193.236 94.44 193.236 94.38ZM203.351 103.48V97.62C203.351 95.44 202.431 94.04 200.191 94.04C199.031 94.04 197.871 94.46 196.951 95.2L196.931 94.68C196.911 94.38 196.731 94.3 196.451 94.3H195.151C194.791 94.3 194.651 94.48 194.651 94.8V103.52C194.651 103.84 194.831 104 195.131 104H196.591C196.931 104 197.071 103.84 197.071 103.5V97.12C197.691 96.58 198.651 96.16 199.431 96.16C200.651 96.16 200.951 96.94 200.951 98.04V103.48C200.951 103.82 201.071 104 201.431 104H202.871C203.231 104 203.351 103.82 203.351 103.48ZM208.562 91.76C208.562 90.96 207.902 90.5 207.222 90.5C206.522 90.5 205.862 90.98 205.862 91.78C205.862 92.58 206.562 93.02 207.222 93.02C207.882 93.02 208.562 92.54 208.562 91.76ZM208.442 103.5V94.76C208.442 94.4 208.262 94.3 207.942 94.3H206.542C206.222 94.3 206.022 94.42 206.022 94.76V103.5C206.022 103.86 206.182 104 206.542 104H207.942C208.282 104 208.442 103.86 208.442 103.5ZM217.116 103.4C217.116 103.36 217.116 103.34 217.096 103.28L216.896 102.28C216.856 102.12 216.776 102.04 216.636 102.04C216.576 102.04 216.516 102.06 216.436 102.08C216.076 102.2 215.656 102.32 215.156 102.32C214.676 102.32 214.396 102.16 214.216 101.9C213.996 101.58 213.956 101.14 213.956 100.54V95.96H216.196C216.436 95.96 216.596 95.82 216.596 95.58V94.64C216.596 94.38 216.456 94.3 216.216 94.3H213.956V91.9C213.956 91.6 213.836 91.46 213.576 91.46C213.536 91.46 213.516 91.46 213.476 91.46L212.036 91.64C211.716 91.68 211.536 91.78 211.536 92.12V94.3H210.516C210.276 94.3 210.156 94.46 210.156 94.7V95.46C210.156 95.88 210.216 95.96 210.596 95.96H211.536V100.42C211.536 101.88 211.556 102.7 212.176 103.4C212.676 103.98 213.556 104.24 214.576 104.24C215.376 104.24 216.196 104.04 216.816 103.78C217.016 103.7 217.116 103.6 217.116 103.4ZM227.294 103.44V94.76C227.294 94.4 227.114 94.3 226.794 94.3H225.374C225.054 94.3 224.874 94.42 224.874 94.76V101.14C224.274 101.68 223.314 102.1 222.554 102.1C221.354 102.1 221.074 101.34 221.074 100.24V94.76C221.074 94.4 220.894 94.3 220.574 94.3H219.174C218.854 94.3 218.654 94.42 218.654 94.76V100.66C218.654 102.82 219.574 104.24 221.814 104.24C222.974 104.24 224.074 103.84 224.994 103.1L225.014 103.6C225.034 103.86 225.234 104 225.494 104H226.774C227.174 104 227.294 103.86 227.294 103.44ZM235.267 94.38C235.267 94.22 235.207 94.16 235.067 94.12C234.887 94.08 234.667 94.04 234.507 94.04C233.387 94.04 232.707 94.54 232.087 95.32L232.067 94.68C232.067 94.4 231.887 94.3 231.567 94.3H230.287C229.987 94.3 229.787 94.4 229.787 94.8V97.26V103.5C229.787 103.84 229.947 104 230.267 104H231.727C232.067 104 232.207 103.82 232.207 103.5V97.14C232.707 96.54 233.447 96.18 234.127 96.18C234.307 96.18 234.507 96.2 234.667 96.24C234.707 96.24 234.727 96.24 234.747 96.24C234.907 96.24 235.007 96.16 235.027 95.98L235.247 94.56C235.267 94.5 235.267 94.44 235.267 94.38Z" fill="white"/>
<path d="M38.4141 32.8096C38.4139 34.6103 38.4141 34.0101 38.4141 34.0101L39.0143 33.4099C39.0146 32.8097 39.6148 32.8097 39.6146 33.4099V34.0101H40.2148V32.8096C40.2148 31.009 38.4144 31.009 38.4141 32.8096Z" fill="white"/>
<path d="M30.0106 28.0079V29.2084C30.1304 29.6765 30.2714 29.1758 30.6108 27.4077H30.0106H24.0084C23.6715 27.4998 23.5206 27.6017 23.4082 28.0079V29.2084H24.6086V28.6082C24.6237 28.1616 24.754 28.0459 25.2089 28.0079H30.0106Z" fill="white"/>
<path d="M38.4136 28.0074C39.2019 28.0343 39.0221 28.8085 39.0138 29.808H39.614V28.0074C39.3881 27.5335 39.1387 27.3828 38.4136 27.4072H31.8112C31.2109 27.4076 31.2341 27.5686 31.2109 28.0074V29.808H34.8123V29.2078H32.4114V28.0074H38.4136Z" fill="white"/>
<path d="M58.2206 29.8082L57.6203 31.6089C57.6202 31.0087 57.02 29.208 57.6203 28.6078H63.0223V32.2091L58.2206 31.6089L61.8219 31.0087V29.8082H58.2206Z" fill="white"/>
<path d="M56.4211 32.8096L64.224 33.4098L55.2207 34.0509V26.8074H64.8242L64.224 32.8096L63.6238 28.0078H56.4211V32.8096Z" fill="white"/>
<path d="M49.8175 28.0078C51.6182 28.0078 52.2184 28.0078 52.2184 28.608V31.6091C50.6482 31.7365 47.216 32.2782 46.8164 31.6091" stroke="white" stroke-width="0.2"/>
<path d="M45.0155 28.6082L51.6179 28.0079C49.2173 27.4077 47.4167 27.4077 44.4152 27.4077C43.9697 27.4792 43.8033 27.5832 43.815 28.0079V31.6093C43.8484 31.9704 43.9664 32.1077 44.4152 32.2095C46.8164 32.2095 48.6174 32.2095 51.018 31.6093H45.0155V28.6082Z" fill="white"/>
<path d="M52.8181 26.207C48.5989 26.207 46.2334 26.207 42.0142 26.207C41.4139 26.207 40.8137 26.8073 40.8137 27.4075V29.8084H30.0098" stroke="white" stroke-width="0.4"/>
<path d="M66.6233 28.0078V34.6102H67.2235C67.2235 34.01 68.237 27.6338 67.8237 26.8074C67.2235 25.6069 66.6233 25.6069 65.4229 25.6069C60.0209 25.6069 55.2191 25.6069 51.0176 26.2072L64.8226 26.8074C66.0231 26.8074 66.6233 26.8074 66.6233 28.0078Z" fill="white"/>
<path d="M67.824 50.2158H66.0233C66.2577 44.5902 66.0233 37.0109 66.0233 35.8105L54.6191 35.2103C54.9522 34.7479 67.2238 35.2102 67.2238 35.2102L67.824 50.2158Z" fill="white"/>
<path d="M22.8085 50.2157H21.0078L21.608 30.4084C21.608 29.208 22.2083 29.208 23.4087 29.208H31.2116V30.4084H23.4087C22.9959 30.4214 22.8717 30.5668 22.8085 31.0087V32.8093L46.2171 34.0098H22.8085V50.2157Z" fill="white"/>
<path d="M85.2302 36.4105C84.6299 37.0107 84.0298 26.807 85.2302 16.0031C86.3242 17.6441 85.9227 32.2461 85.3886 35.7312L87.0309 36.4105H85.2302Z" fill="white"/>
<path d="M87.0315 15.4283C87.6318 14.8281 88.2319 25.0318 87.0315 35.8358C85.9376 34.1948 86.3391 19.5927 86.8731 16.1076L85.2308 15.4283H87.0315Z" fill="white"/>
<path d="M81.6289 52.0165V7.60022L82.8293 52.0165H81.6289Z" fill="white"/>
<path d="M120.043 7V67.6222L118.243 67.022L118.843 8.20044C105.057 7.73164 97.8352 8.20044 83.541 7H120.043Z" fill="white"/>
<path d="M74.4277 98.2335V99.4339C89.4294 99.1995 105.639 99.4339 112.842 98.8337C103.238 97.6332 89.4294 98.4679 74.4277 98.2335Z" fill="white"/>
<path d="M74.4277 85.6289V86.8294C89.4332 86.8293 105.639 87.4296 112.842 86.2961C103.238 85.6289 89.4294 85.8633 74.4277 85.6289Z" fill="white"/>
<path d="M74.4277 108.437V109.637C89.4332 109.637 101.438 110.171 108.64 109.037C99.0368 108.37 89.4294 108.671 74.4277 108.437Z" fill="white"/>
<path d="M113.441 120.442L109.84 110.238L114.642 119.241H115.242L114.642 109.638L117.042 120.442H113.441Z" fill="white"/>
<path d="M10.2031 53.8169C30.0104 52.0164 39.0137 52.6167 55.6496 53.8169C39.0137 55.0176 27.6095 55.0176 10.2031 53.8169Z" fill="white"/>
<path d="M60.0215 53.7531C79.8287 51.9526 88.832 52.5529 105.468 53.7531C88.832 54.9538 77.4279 54.9538 60.0215 53.7531Z" fill="white"/>
<path d="M85.2305 46.7537C95.4342 44.814 112.24 46.0145 116.442 46.7537C105.038 47.815 97.2349 47.815 85.2305 46.7537Z" fill="white"/>
<path d="M110.439 108.507C115.148 107.446 117.289 107.799 121.243 108.507C117.289 109.214 114.577 109.214 110.439 108.507Z" fill="white"/>
<path d="M106.238 82.6275C110.356 82.113 112.708 84.6884 113.295 85.0538C113.343 85.0458 113.392 85.0374 113.441 85.0287C113.441 85.1141 113.392 85.1144 113.295 85.0538C109.436 85.6892 107.424 83.8134 106.238 82.6275Z" fill="white"/>
<path d="M57.4829 57.4185C58.2219 65.8216 58.2218 72.424 57.4829 80.2269C56.4211 72.424 56.4211 64.6212 57.4829 57.4185Z" fill="white"/>
<path d="M109.409 65.1624C114.927 65.6133 119.139 66.5349 123.959 68.3458C118.754 68.294 113.777 67.205 109.409 65.1624Z" fill="white"/>
<path d="M106.239 53.8181C108.641 59.2192 109.24 71.2234 107.44 80.2279C106.84 71.8239 106.84 59.2192 106.239 53.8181Z" fill="white"/>
<path d="M126.047 69.4477C129.047 74.8248 127.847 97.0331 121.245 109.038C123.645 98.8336 127.349 85.6287 126.047 69.4477Z" fill="white"/>
<path d="M121.217 69.9546C116.737 74.1799 111.957 93.2019 114.642 106.636C115.422 96.183 115.107 84.9944 121.217 69.9546Z" fill="white"/>
<path d="M9.00379 54.4175L7.20312 61.02H9.00379V54.4175Z" fill="white"/>
<path d="M1.55469 67.0219L1 68.1741H46.293V79.5265H47.2669V67.0219H1.55469Z" fill="white"/>
<path d="M1.58467 64.521L1 66.0188H48.7413V80.7769H49.7678V64.521H1.58467Z" fill="white"/>
<path d="M16.0059 122.042C16.6152 121.417 17.4275 120.807 17.2246 118.291" stroke="white" stroke-width="0.2"/>
<path d="M23.5078 122.042C22.6743 121.417 22.1405 120.807 22.2793 118.291" stroke="white" stroke-width="0.2"/>
<path d="M17.0378 122.042H1V124.961C1 125.545 1.45172 125.793 2.11489 125.793H37.4763C37.9508 125.793 38.4215 125.545 38.5137 124.666V122.042H22.7949V122.626L37.4763 123.299V124.377H2.23368V123.21L17.0378 122.626V122.042Z" fill="white"/>
<path d="M1.3663 112.038L1 113.289L37.2633 112.872L1.3663 112.038Z" fill="white"/>
<path d="M1.35552 117.04L1 119.541L37.2633 117.874L1.35552 117.04Z" fill="white"/>
<path d="M39.0137 127.044V85.0286C39.0137 83.2279 40.2141 81.4272 42.615 81.4272H69.0247C70.8253 81.4272 72.626 83.2279 72.626 85.0286V127.044" stroke="white" stroke-width="0.5"/>
<path d="M81.6289 17.804V7.60022C82.2291 10.0011 82.6958 33.807 82.8293 52.0165H81.6289V17.804Z" fill="white"/>
<path d="M40.8145 127.044V89.2299H70.8255V127.044" stroke="white"/>
<path d="M73.8262 11.2015L80.4286 7.60022L75.0266 12.402V52.0165H73.8262V11.2015Z" fill="white"/>
<circle cx="43.5162" cy="84.1282" r="1.50055" fill="white"/>
<path d="M44.4159 83.528C44.4159 84.0253 44.0128 84.4283 43.5156 84.4283C43.0183 84.4283 42.6152 84.0253 42.6152 83.528C42.6152 83.0308 43.0654 82.6277 43.5156 82.6277C44.0128 82.6277 44.4159 83.0308 44.4159 83.528Z" fill="white"/>
<circle cx="46.8176" cy="83.8281" r="1.20044" fill="white"/>
<path d="M47.5382 83.3479C47.5382 83.7457 47.2157 84.0682 46.8179 84.0682C46.4201 84.0682 46.0977 83.7457 46.0977 83.3479C46.0977 82.9502 46.4578 82.6277 46.8179 82.6277C47.2157 82.6277 47.5382 82.9502 47.5382 83.3479Z" fill="white"/>
<circle r="1.50055" transform="matrix(-1 0 0 1 68.1244 84.1282)" fill="white"/>
<path d="M67.2247 83.528C67.2247 84.0253 67.6278 84.4283 68.1251 84.4283C68.6223 84.4283 69.0254 84.0253 69.0254 83.528C69.0254 83.0308 68.5752 82.6277 68.1251 82.6277C67.6278 82.6277 67.2247 83.0308 67.2247 83.528Z" fill="white"/>
<circle r="1.20044" transform="matrix(-1 0 0 1 64.823 83.8281)" fill="white"/>
<path d="M64.1024 83.3479C64.1024 83.7457 64.4249 84.0682 64.8227 84.0682C65.2205 84.0682 65.543 83.7457 65.543 83.3479C65.543 82.9502 65.1828 82.6277 64.8227 82.6277C64.4249 82.6277 64.1024 82.9502 64.1024 83.3479Z" fill="white"/>
<rect x="51.6191" y="83.828" width="8.40308" height="2.40088" rx="1.20044" fill="white"/>
<circle cx="35.412" cy="31.6091" r="1.80066" fill="white"/>
<circle cx="35.4127" cy="31.6089" r="0.60022" fill="white"/>
<circle cx="39.6138" cy="35.8105" r="2.40088" fill="white"/>
<circle cx="39.6128" cy="35.8105" r="0.800293" fill="white"/>
<circle cx="20.4067" cy="37.0107" r="2.40088" fill="white"/>
<circle cx="20.4058" cy="37.0111" r="0.800293" fill="white"/>
<circle cx="68.4243" cy="38.2115" r="2.40088" fill="white"/>
<circle cx="68.4253" cy="38.2119" r="0.800293" fill="white"/>
<path d="M44.4171 50.2155H42.0163C37.2135 43.613 40.2146 34.0095 48.0185 34.0095C49.2178 34.0099 50.4624 33.8995 52.22 34.0095C55.6888 34.9346 57.5535 37.1966 58.3292 39.7652C59.3959 43.076 58.626 47.1261 56.7713 49.3263C56.4747 49.6911 56.1553 49.9925 55.8203 50.2159C56.1621 49.9716 56.4801 49.6718 56.7713 49.3263C58.434 47.2812 59.3793 43.2423 58.3292 39.7652C57.505 37.2071 55.5843 35.0904 52.22 34.6097C50.051 34.2971 49.1484 34.4359 48.0185 34.6097C40.2145 35.8102 39.6143 46.0139 44.4171 50.2155Z" fill="white"/>
<path d="M53.4196 50.2161H54.6195C58.2209 49.6158 61.6533 38.1071 52.8193 35.2104C51.756 34.8617 50.4185 34.7258 48.9756 34.977C39.6145 37.0112 40.8145 47.2146 45.016 50.2157C40.2143 46.0142 40.5736 36.4595 48.9756 35.2591C50.2628 35.0752 51.1732 35.1417 51.6184 35.2102C58.2206 37.0112 60.0213 46.0145 53.4196 50.2161Z" fill="white"/>
<path d="M55.2207 43.0134C55.2207 45.6654 53.0709 47.8152 50.4189 47.8152C57.0214 43.6136 49.2185 37.0112 45.6172 43.0134C45.6172 40.3615 47.767 38.2117 50.4189 38.2117C53.0709 38.2117 55.2207 40.3615 55.2207 43.0134Z" fill="white"/>
</svg>
