<svg width="269" height="135" viewBox="0 0 269 135" fill="none" xmlns="http://www.w3.org/2000/svg">
<rect x="0.5" y="0.5" width="268" height="134" rx="9.5" fill="#9A2B91" stroke="#9A2B91"/>
<path d="M165.089 69.46L164.489 56.6C164.469 56.28 164.349 56.16 164.029 56.16H162.849C162.489 56.16 162.329 56.3 162.209 56.6L157.989 66.48H157.949L153.329 56.6C153.189 56.3 153.049 56.16 152.649 56.16H151.469C151.149 56.16 151.009 56.28 150.989 56.7L150.489 69.48C150.469 69.86 150.629 70 151.009 70H152.369C152.729 70 152.909 69.94 152.909 69.5L153.089 61.22H153.129L156.909 69.62C157.049 69.94 157.229 70 157.529 70H158.229C158.449 70 158.649 69.96 158.769 69.64L162.169 61.22H162.209L162.489 69.34C162.509 69.8 162.589 70 163.009 70H164.629C165.009 70 165.109 69.8 165.089 69.46ZM176.83 65.14C176.83 62.2 175.33 60.04 172.07 60.04C168.95 60.04 167.19 62.24 167.19 65.12C167.19 68.04 168.69 70.24 171.95 70.24C175.07 70.24 176.83 68.02 176.83 65.14ZM174.33 65.14C174.33 66.78 173.73 68.34 171.97 68.34C170.19 68.34 169.69 66.72 169.69 65.08C169.69 63.48 170.27 61.94 172.05 61.94C173.81 61.94 174.33 63.5 174.33 65.14ZM184.806 69.4C184.806 69.36 184.806 69.34 184.786 69.28L184.586 68.28C184.546 68.12 184.466 68.04 184.326 68.04C184.266 68.04 184.206 68.06 184.126 68.08C183.766 68.2 183.346 68.32 182.846 68.32C182.366 68.32 182.086 68.16 181.906 67.9C181.686 67.58 181.646 67.14 181.646 66.54V61.96H183.886C184.126 61.96 184.286 61.82 184.286 61.58V60.64C184.286 60.38 184.146 60.3 183.906 60.3H181.646V57.9C181.646 57.6 181.526 57.46 181.266 57.46C181.226 57.46 181.206 57.46 181.166 57.46L179.726 57.64C179.406 57.68 179.226 57.78 179.226 58.12V60.3H178.206C177.966 60.3 177.846 60.46 177.846 60.7V61.46C177.846 61.88 177.906 61.96 178.286 61.96H179.226V66.42C179.226 67.88 179.246 68.7 179.866 69.4C180.366 69.98 181.246 70.24 182.266 70.24C183.066 70.24 183.886 70.04 184.506 69.78C184.706 69.7 184.806 69.6 184.806 69.4ZM195.424 65.14C195.424 62.2 193.924 60.04 190.664 60.04C187.544 60.04 185.784 62.24 185.784 65.12C185.784 68.04 187.284 70.24 190.544 70.24C193.664 70.24 195.424 68.02 195.424 65.14ZM192.924 65.14C192.924 66.78 192.324 68.34 190.564 68.34C188.784 68.34 188.284 66.72 188.284 65.08C188.284 63.48 188.864 61.94 190.644 61.94C192.404 61.94 192.924 63.5 192.924 65.14ZM202.84 60.38C202.84 60.22 202.78 60.16 202.64 60.12C202.46 60.08 202.24 60.04 202.08 60.04C200.96 60.04 200.28 60.54 199.66 61.32L199.64 60.68C199.64 60.4 199.46 60.3 199.14 60.3H197.86C197.56 60.3 197.36 60.4 197.36 60.8V63.26V69.5C197.36 69.84 197.52 70 197.84 70H199.3C199.64 70 199.78 69.82 199.78 69.5V63.14C200.28 62.54 201.02 62.18 201.7 62.18C201.88 62.18 202.08 62.2 202.24 62.24C202.28 62.24 202.3 62.24 202.32 62.24C202.48 62.24 202.58 62.16 202.6 61.98L202.82 60.56C202.84 60.5 202.84 60.44 202.84 60.38ZM218.978 65.96C218.978 63.94 217.538 62.64 215.638 62.5V62.48C217.098 62.16 217.898 60.94 217.898 59.54C217.898 57.14 216.098 56.16 212.878 56.16H209.878C209.458 56.16 209.278 56.26 209.278 56.68V69.42C209.278 69.84 209.378 70 209.798 70H213.518C216.358 70 218.978 69.2 218.978 65.96ZM215.378 59.84C215.378 61.46 214.338 61.84 212.878 61.84H211.838V58.12H212.958C214.358 58.12 215.378 58.54 215.378 59.84ZM216.358 65.88C216.358 66.84 215.898 67.46 215.198 67.76C214.698 67.96 214.018 68.02 213.318 68.02H211.838V63.66C212.018 63.66 213.018 63.66 213.158 63.66C213.998 63.66 214.678 63.72 215.298 64.02C215.938 64.34 216.358 64.94 216.358 65.88ZM230.471 69.62V68.68C230.471 68.42 230.351 68.34 230.111 68.34H229.951C229.851 68.34 229.771 68.32 229.711 68.26C229.631 68.16 229.591 67.96 229.591 67.68V60.74C229.591 60.44 229.431 60.3 229.171 60.3H227.771C227.531 60.3 227.371 60.44 227.351 60.66L227.311 61.2C226.811 60.52 225.811 60.04 224.751 60.04C222.511 60.04 220.431 61.86 220.431 65.32C220.431 67.92 221.711 70.24 224.531 70.24C225.631 70.24 226.931 69.56 227.431 68.82H227.471C227.611 69.5 228.071 70 229.111 70H230.071C230.311 70 230.471 69.86 230.471 69.62ZM227.171 66.9C226.871 67.52 226.031 68.26 225.051 68.26C223.571 68.26 222.931 66.84 222.931 65.16C222.931 63.06 223.971 62.02 225.191 62.02C225.951 62.02 226.771 62.46 227.171 63.04V66.9ZM237.683 60.38C237.683 60.22 237.623 60.16 237.483 60.12C237.303 60.08 237.083 60.04 236.923 60.04C235.803 60.04 235.123 60.54 234.503 61.32L234.483 60.68C234.483 60.4 234.303 60.3 233.983 60.3H232.703C232.403 60.3 232.203 60.4 232.203 60.8V63.26V69.5C232.203 69.84 232.363 70 232.683 70H234.143C234.483 70 234.623 69.82 234.623 69.5V63.14C235.123 62.54 235.863 62.18 236.543 62.18C236.723 62.18 236.923 62.2 237.083 62.24C237.123 62.24 237.143 62.24 237.163 62.24C237.323 62.24 237.423 62.16 237.443 61.98L237.663 60.56C237.683 60.5 237.683 60.44 237.683 60.38ZM247.718 69.44V60.76C247.718 60.4 247.538 60.3 247.218 60.3H245.798C245.478 60.3 245.298 60.42 245.298 60.76V67.14C244.698 67.68 243.738 68.1 242.978 68.1C241.778 68.1 241.498 67.34 241.498 66.24V60.76C241.498 60.4 241.318 60.3 240.998 60.3H239.598C239.278 60.3 239.078 60.42 239.078 60.76V66.66C239.078 68.82 239.998 70.24 242.238 70.24C243.398 70.24 244.498 69.84 245.418 69.1L245.438 69.6C245.458 69.86 245.658 70 245.918 70H247.198C247.598 70 247.718 69.86 247.718 69.44ZM174.612 80.4C174.612 80.24 174.472 80.16 174.232 80.16H172.792C172.412 80.16 172.252 80.26 172.092 80.58L169.252 86.2H169.212L166.332 80.54C166.192 80.28 165.952 80.16 165.592 80.16H163.772C163.552 80.16 163.412 80.28 163.412 80.44C163.412 80.5 163.432 80.56 163.472 80.64L167.812 88.38V93.5C167.812 93.84 167.972 94 168.272 94H169.952C170.252 94 170.412 93.84 170.412 93.54V88.28L174.532 80.66C174.592 80.56 174.612 80.46 174.612 80.4ZM183.869 93.62V92.68C183.869 92.42 183.749 92.34 183.509 92.34H183.349C183.249 92.34 183.169 92.32 183.109 92.26C183.029 92.16 182.989 91.96 182.989 91.68V84.74C182.989 84.44 182.829 84.3 182.569 84.3H181.169C180.929 84.3 180.769 84.44 180.749 84.66L180.709 85.2C180.209 84.52 179.209 84.04 178.149 84.04C175.909 84.04 173.829 85.86 173.829 89.32C173.829 91.92 175.109 94.24 177.929 94.24C179.029 94.24 180.329 93.56 180.829 92.82H180.869C181.009 93.5 181.469 94 182.509 94H183.469C183.709 94 183.869 93.86 183.869 93.62ZM180.569 90.9C180.269 91.52 179.429 92.26 178.449 92.26C176.969 92.26 176.329 90.84 176.329 89.16C176.329 87.06 177.369 86.02 178.589 86.02C179.349 86.02 180.169 86.46 180.569 87.04V90.9ZM200.082 93.5V88.44C200.082 87.16 199.982 86.28 199.602 85.54C199.182 84.76 198.262 84.04 196.802 84.04C195.582 84.04 194.282 84.48 193.382 85.34C192.922 84.58 192.062 84.04 190.842 84.04C189.802 84.04 188.722 84.46 187.902 85.18L187.882 84.68C187.862 84.4 187.682 84.3 187.382 84.3H186.082C185.782 84.3 185.602 84.44 185.602 84.76V93.5C185.602 93.86 185.762 94 186.122 94H187.522C187.862 94 188.022 93.86 188.022 93.5V87.12C188.662 86.56 189.462 86.12 190.242 86.12C191.462 86.12 191.682 86.96 191.682 88.02V93.5C191.682 93.86 191.842 94 192.202 94H193.522C193.862 94 194.002 93.86 194.002 93.5V90.16C194.002 89.88 193.962 87.2 193.922 87.02C194.542 86.52 195.422 86.12 196.182 86.12C197.402 86.12 197.682 86.94 197.682 88.02V93.5C197.682 93.86 197.842 94 198.202 94H199.602C199.942 94 200.082 93.86 200.082 93.5ZM212.014 93.62V92.68C212.014 92.42 211.894 92.34 211.654 92.34H211.494C211.394 92.34 211.314 92.32 211.254 92.26C211.174 92.16 211.134 91.96 211.134 91.68V84.74C211.134 84.44 210.974 84.3 210.714 84.3H209.314C209.074 84.3 208.914 84.44 208.894 84.66L208.854 85.2C208.354 84.52 207.354 84.04 206.294 84.04C204.054 84.04 201.974 85.86 201.974 89.32C201.974 91.92 203.254 94.24 206.074 94.24C207.174 94.24 208.474 93.56 208.974 92.82H209.014C209.154 93.5 209.614 94 210.654 94H211.614C211.854 94 212.014 93.86 212.014 93.62ZM208.714 90.9C208.414 91.52 207.574 92.26 206.594 92.26C205.114 92.26 204.474 90.84 204.474 89.16C204.474 87.06 205.514 86.02 206.734 86.02C207.494 86.02 208.314 86.46 208.714 87.04V90.9ZM222.486 93.6V87.62C222.486 85.46 221.566 84.04 219.326 84.04C218.266 84.04 217.006 84.42 216.166 85.12V80.1C216.166 79.82 216.046 79.72 215.826 79.72C215.746 79.72 215.646 79.72 215.566 79.74L214.186 79.92C213.906 79.96 213.746 80.06 213.746 80.42V93.64C213.746 93.9 213.826 94 214.066 94H215.786C216.086 94 216.166 93.9 216.166 93.6V87.12C216.786 86.58 217.786 86.16 218.566 86.16C219.766 86.16 220.066 86.96 220.066 88.04V93.6C220.066 93.92 220.126 94 220.406 94H222.166C222.426 94 222.486 93.9 222.486 93.6ZM234.436 93.62V92.68C234.436 92.42 234.316 92.34 234.076 92.34H233.916C233.816 92.34 233.736 92.32 233.676 92.26C233.596 92.16 233.556 91.96 233.556 91.68V84.74C233.556 84.44 233.396 84.3 233.136 84.3H231.736C231.496 84.3 231.336 84.44 231.316 84.66L231.276 85.2C230.776 84.52 229.776 84.04 228.716 84.04C226.476 84.04 224.396 85.86 224.396 89.32C224.396 91.92 225.676 94.24 228.496 94.24C229.596 94.24 230.896 93.56 231.396 92.82H231.436C231.576 93.5 232.036 94 233.076 94H234.036C234.276 94 234.436 93.86 234.436 93.62ZM231.136 90.9C230.836 91.52 229.996 92.26 229.016 92.26C227.536 92.26 226.896 90.84 226.896 89.16C226.896 87.06 227.936 86.02 229.156 86.02C229.916 86.02 230.736 86.46 231.136 87.04V90.9Z" fill="white"/>
<path d="M59.1133 17.4688C59.1133 17.4688 65.1295 21.0786 65.7311 22.2818L59.7149 19.274L59.1133 17.4688Z" fill="white"/>
<path d="M29.0323 63.7938L30.8372 66.8019H33.8453L30.8372 63.1922L29.634 60.7857V57.7775L32.6421 57.1759L35.0486 56.5743C34.3233 54.4805 33.6206 53.4477 32.0405 51.7613V55.371L29.634 56.5743H27.8291V60.7857L29.0323 63.7938Z" fill="white"/>
<path d="M41.0645 69.2084L40.4629 74.0214C40.4629 74.0214 40.4782 78.7931 41.0645 75.8263C41.6508 72.8595 42.2741 71.3879 44.0726 69.2084H41.0645Z" fill="white" stroke="white" stroke-width="0.5"/>
<path d="M39.8616 78.2329L41.6665 81.241V81.8426L42.8697 80.0377L41.6665 77.6312L38.6583 74.0215L35.6502 69.8101L33.2437 67.4036L30.8372 66.802L29.634 68.0053L27.8291 68.6069V72.8182L30.8372 75.8264L33.8453 79.4361L38.0567 83.6475L38.6583 81.8426L38.0567 81.241L35.0486 78.8345L32.0405 75.2247L30.8372 71.615L32.0405 69.8101L34.447 71.615L36.2518 75.2247L39.8616 78.2329Z" fill="white"/>
<path d="M25.4227 93.8751L32.0406 99.2897L32.6422 99.8913L33.2439 96.8832L25.4227 90.2653L23.0162 87.2572L21.2114 83.6475L19.4065 80.6394L20.0081 76.428L23.0162 77.0296L26.626 77.6312L30.8374 82.4442L33.2439 85.4523L36.252 89.0621L37.4552 87.2572V84.2491L33.8455 80.6394L30.8374 77.0296L26.626 74.0215H22.4146L21.2114 71.0134L17 71.615V82.4442L18.8049 84.8507L21.2114 89.0621L25.4227 93.8751Z" fill="white"/>
<path d="M36.8531 45.1435C42.1626 44.5683 45.9859 45.6762 53.6986 45.7453L53.097 47.5502L51.8937 48.1518L48.8856 49.3551L44.6743 50.5583L37.4548 49.3551C37.2198 50.5298 37.6897 52.3917 37.4548 53.5664C38.7126 55.2926 39.4748 56.1406 41.0645 57.1762C43.3022 59.6877 44.6224 60.858 47.0808 62.5908L46.4791 64.3957L39.2596 59.5827L36.2515 57.1762C35.0904 56.2856 34.5359 55.666 33.845 54.168C33.1302 52.7699 30.0272 51.2272 30.2353 49.3551C30.469 48.1897 29.4609 46.3293 30.2353 45.1437C31.0314 44.6514 35.7745 45.1234 36.8531 45.1435Z" fill="white"/>
<path d="M59.1134 26.4932L60.9183 24.6883L59.7151 30.1029L59.1134 31.3062H54.3005C52.6572 31.2634 50.0891 31.9078 54.3005 30.1029L57.3086 29.5013C58.4833 28.5615 58.5118 27.6964 59.1134 26.4932Z" fill="white" stroke="white" stroke-width="0.5"/>
<path d="M93.4064 7.84208L92.2031 12.0535L94.008 9.04533C96.477 8.45862 97.7923 8.46797 100.024 9.04533C99.5965 12.083 98.458 13.4515 95.8129 15.6632C99.3681 14.3529 100.83 12.9567 101.829 8.4437C101.602 7.73091 101.306 7.49937 100.626 7.24046C97.6425 6.76629 96.0869 7.00683 93.4064 7.84208Z" fill="white" stroke="white" stroke-width="0.5"/>
<path d="M62.8334 13.1485L62.1217 18.0704L61.3698 14.0168C58.8461 13.7509 56.8309 12.6709 54.6912 13.5292C55.5043 16.4872 56.8085 17.6986 59.715 19.5536C56.0213 18.7091 54.3931 17.5115 52.8242 13.1635C52.9578 12.4276 53.2219 12.1601 53.8635 11.8162C57.8848 10.6434 60.0676 11.8215 62.8334 13.1485Z" fill="white" stroke="white" stroke-width="0.5"/>
<path d="M89.7969 16.2656C91.4415 15.0908 94.0082 12.6558 94.0082 12.6558" stroke="white"/>
<path d="M93.4062 16.2655C95.0509 15.0908 94.6095 13.859 94.6095 13.859" stroke="white"/>
<path d="M118.073 46.3467L118.675 50.5581C112.892 37.2568 109.094 30.5573 101.829 19.2737C94.6096 15.6639 86.1869 16.8039 80.7722 20.4769V21.6802L82.5771 24.0867C75.3576 22.8834 70.93 21.99 63.9268 23.485L64.5284 22.2818C71.5344 21.9192 75.0554 22.2295 80.7722 23.485L79.569 21.6802V19.2737C89.0847 15.1436 94.2497 14.593 103.032 18.0704C110.474 28.8499 113.791 35.0595 118.073 46.3467Z" fill="white" stroke="white" stroke-width="0.5"/>
<path d="M99.4226 40.3305C93.824 32.4618 89.7966 28.8996 83.1787 23.485C88.2609 30.1946 93.0003 34.3703 99.4226 40.3305Z" fill="white" stroke="white" stroke-width="0.5"/>
<path d="M84.3819 27.6964L83.7803 25.8915L84.9835 28.298V31.9078C94.0939 38.8922 99.443 42.0769 109.65 45.7451C110.906 44.919 111.576 44.308 112.658 42.737C113.123 41.9484 113.232 41.0954 113.26 39.1273L113.861 42.737C111.979 45.2143 111.088 46.0283 109.65 46.9484C98.1575 43.5142 92.666 40.0778 83.7803 32.5094L84.3819 27.6964Z" fill="white" stroke="white" stroke-width="0.5"/>
<path d="M100.626 62.5907C90.2477 57.4467 84.078 52.6227 72.9512 43.3387L75.3577 46.3468C88.2516 58.75 93.279 61.2946 100.626 62.5907Z" fill="white" stroke="white" stroke-width="0.5"/>
<path d="M64.5287 37.924C69.8648 49.6456 73.1134 56.072 80.1709 66.8019C74.8709 55.9342 71.8344 49.5865 66.3336 37.924L69.3417 34.3142C78.5382 32.0669 80.4404 30.7134 83.7807 28.298C78.2928 31.0259 75.1802 31.9623 69.3417 28.8996L60.9189 30.7045H69.3417L72.9514 31.9077L68.1384 33.111L64.5287 37.924Z" fill="white" stroke="white" stroke-width="0.5"/>
<path d="M54.3008 46.3468L53.6992 48.1517C56.2512 49.4503 57.6975 50.4864 60.2293 52.3001L60.3171 52.363L65.1301 52.9647C74.1544 60.1842 74.7561 66.2004 78.3658 67.4036L76.5609 65.5988C74.5603 60.8616 73.7217 58.3201 65.7317 51.1598L60.9187 50.5582L54.3008 46.3468Z" fill="white"/>
<path d="M78.3658 67.4036L76.5609 65.5988C74.5603 60.8616 73.7217 58.3201 65.7317 51.1598L60.9187 50.5582L54.3008 46.3468L53.6992 48.1517C56.2805 49.4652 57.7307 50.5102 60.3171 52.363L65.1301 52.9647C74.1544 60.1842 74.7561 66.2004 78.3658 67.4036ZM78.3658 67.4036C77.1911 66.4639 79.5406 68.3434 78.3658 67.4036Z" stroke="white" stroke-width="0.5"/>
<path d="M63.156 67.3763C58.9703 66.7002 56.4735 66.297 51.8945 64.9971C55.2445 67.0875 57.6259 67.9855 62.7238 69.2085C64.543 69.4421 65.3981 69.3521 66.9351 69.2085C69.9581 67.3664 71.8854 66.9155 75.3579 66.2004C71.8097 65.9322 69.8271 65.9864 66.3335 67.4036H63.3254L63.156 67.3763Z" fill="white" stroke="white" stroke-width="0.5"/>
<path d="M50.0894 68.0052L45.2764 68.6068L45.878 67.4036L50.0894 68.0052Z" fill="white" stroke="white" stroke-width="0.5"/>
<path d="M47.0811 64.9971C53.9726 70.0422 61.57 72.5198 74.1541 77.0296C62.8599 71.9754 56.3899 69.1918 47.6827 63.1923L47.0811 64.9971Z" fill="white" stroke="white" stroke-width="0.5"/>
<path d="M122.886 69.2085L119.878 74.6231L122.866 69.1451C121.102 63.5984 119.615 61.2306 116.87 57.176L114.463 60.7858C113.433 60.4088 112.894 60.1591 112.057 59.5825C109.87 59.8975 108.673 60.2296 106.642 61.3874C97.4872 59.7966 94.6099 54.7695 89.7969 45.7452C93.0862 49.7393 94.3287 51.9787 97.618 55.9728C103.246 60.045 106.075 60.7474 110.252 57.7777H112.057L113.862 58.9809C116.891 53.8817 116.654 51.1495 115.065 46.3468L110.854 50.5582H109.049L94.6099 45.1436H91.0001L94.0082 43.9403L109.65 49.3549C112.04 47.3313 113.198 45.9827 115.065 43.3387C117.768 47.3341 118.782 49.961 118.073 56.5744C121.051 60.8346 122.374 63.304 123.488 68.0053L122.866 69.1451C122.873 69.1662 122.879 69.1873 122.886 69.2085Z" fill="white" stroke="white" stroke-width="0.5"/>
<path d="M89.1948 60.7858L84.3818 70.4118C86.8547 67.0778 88.1102 65.1568 90.9997 61.989L98.2192 66.2004L90.3981 59.5825C89.9204 59.7682 89.6528 59.987 89.1948 60.7858Z" fill="white" stroke="white" stroke-width="0.5"/>
<path d="M90.3983 72.8182C86.8818 82.399 85.1341 87.9135 82.5771 98.0865C86.3264 87.7984 88.4315 82.2158 92.2031 74.0215C96.6748 70.0777 99.3465 68.337 104.236 65.5988H110.853C112.455 64.8903 113.363 64.595 115.065 64.9971C117.05 66.661 117.723 67.7589 118.675 69.8101L119.276 72.8182L119.878 69.2085L115.666 63.1923H112.658C111.493 63.8255 110.834 64.1231 109.65 64.3955C107.323 64.3146 106 64.1421 103.634 63.7939C97.4473 67.2821 94.8153 69.2675 90.3983 72.8182Z" fill="white" stroke="white" stroke-width="0.5"/>
<path d="M97.0156 83.0458L98.2189 72.8182V83.0458L101.829 93.2734C104.234 95.7269 104.837 96.8831 104.837 95.0783V85.4523C106.04 83.0458 108.049 82.9569 110.853 83.6474C117.536 84.9776 125.894 86.0539 125.894 84.249C122.403 80.1787 120.312 78.2047 116.268 75.2247L114.463 71.6149C112.742 73.1331 111.686 73.9285 109.65 75.2247L101.227 72.8182C104.101 73.411 105.349 73.8117 110.251 74.0214C111.897 72.3806 112.819 71.6412 114.463 70.4117C115.299 71.5517 115.458 71.9171 118.072 74.6231C122.375 78.0158 124.353 80.2119 127.698 84.249V85.4523C123.487 87.8588 117.735 86.8921 110.251 84.8507C107.513 84.6613 106.666 85.115 106.04 86.6555C106.04 89.6637 107.243 97.4848 106.04 97.4848C104.837 98.0864 102.497 96.0014 100.625 93.875L97.0156 83.0458Z" fill="white" stroke="white" stroke-width="0.5"/>
<path d="M125.292 87.8588C141.536 114.33 115.064 146.216 95.8125 112.525C107.845 140.802 133.715 127.566 131.91 102.899C131.308 97.4848 129.503 92.0702 125.292 87.8588Z" fill="white" stroke="white" stroke-width="0.5"/>
<path d="M106.642 90.8669C109.251 89.1833 110.864 89.0868 113.862 89.6636C112.057 87.2571 107.244 87.8587 106.642 90.8669Z" fill="white"/>
<path d="M106.642 90.8669C109.251 89.1833 110.864 89.0868 113.862 89.6636C112.057 87.2571 107.244 87.8587 106.642 90.8669ZM106.642 90.8669C106.407 91.3368 106.877 90.397 106.642 90.8669Z" stroke="white" stroke-width="0.5"/>
<path d="M110.962 116.811C113.977 117.552 115.533 117.118 118.179 115.596C117.257 118.459 112.511 119.459 110.962 116.811Z" fill="white"/>
<path d="M110.962 116.811C113.977 117.552 115.533 117.118 118.179 115.596C117.257 118.459 112.511 119.459 110.962 116.811ZM110.962 116.811C110.586 116.443 111.337 117.178 110.962 116.811Z" stroke="white" stroke-width="0.5"/>
<path d="M111.455 86.6556C134.316 107.712 109.048 141.403 97.0156 106.509C99.9546 120.001 106.642 124.558 113.861 122.753C121.081 119.143 123.487 110.119 121.682 101.696C120.007 93.7272 115.666 88.6048 111.455 86.6556Z" fill="white" stroke="white" stroke-width="0.5"/>
<path d="M98.8213 104.704C101.228 115.534 110.252 119.745 113.862 108.314C114.458 100.558 113.097 97.9434 107.976 92.8024C107.821 92.7123 107.768 92.6718 107.846 92.6718C107.889 92.7155 107.933 92.759 107.976 92.8024C109.015 93.4072 114.62 96.2485 115.667 104.103C116.268 111.924 111.455 115.534 110.252 116.135C103.033 118.542 100.331 112.971 98.8213 104.704Z" fill="white" stroke="white" stroke-width="0.5"/>
<path d="M95.211 107.712C96.1756 101.831 97.0006 98.6881 98.8206 93.2734C95.2109 95.6799 93.4061 104.103 95.211 107.712Z" fill="white" stroke="white" stroke-width="0.5"/>
<path d="M94.6098 110.119C85.6813 111.529 76.7751 110.197 51.8945 102.899C61.0763 107.186 67.183 109.305 81.9757 111.924C87.7659 111.411 90.6159 111.035 94.6098 110.119Z" fill="white" stroke="white" stroke-width="0.5"/>
<path d="M66.9345 99.2897C59.9867 97.9254 55.8614 96.3277 48.2842 92.6718C53.6988 96.8832 62.7232 101.095 68.1378 101.095C75.8999 88.9018 78.617 83.0616 83.1784 72.8182C76.8376 83.4689 73.2835 89.5148 66.9345 99.2897Z" fill="white" stroke="white" stroke-width="0.5"/>
<path d="M54.3011 80.6392C49.8684 80.4406 47.5226 80.79 43.4719 81.8425C47.6412 81.7136 51.293 81.7554 53.6995 81.8425C56.7076 83.0457 65.5777 86.3428 72.9514 88.4603C65.6434 85.0871 57.3092 81.2408 54.3011 80.6392Z" fill="white"/>
<path d="M41.667 84.8506C42.1431 82.7296 42.5491 82.1007 43.4719 81.8425M43.4719 81.8425C47.5226 80.79 49.8684 80.4406 54.3011 80.6392C57.3092 81.2408 65.6434 85.0871 72.9514 88.4603C65.5777 86.3428 56.7076 83.0457 53.6995 81.8425C51.293 81.7554 47.6412 81.7136 43.4719 81.8425Z" stroke="white" stroke-width="0.5"/>
<path d="M48.8858 96.2816L39.8614 82.4442L39.2598 84.2491L48.8858 96.2816ZM48.8858 96.2816C48.8858 96.2816 49.6191 99.5816 50.089 101.696" stroke="white" stroke-linecap="round"/>
<path d="M42.2686 96.2816C43.8225 97.999 45.2374 98.429 48.2848 98.6881" stroke="white" stroke-linecap="round"/>
<path d="M42.2686 98.688C44.0734 99.8912 44.0734 100.493 47.0815 101.094" stroke="white" stroke-linecap="round"/>
<path d="M42.2686 91.4686L44.0734 92.6718" stroke="white" stroke-linecap="round"/>
<path d="M42.2686 93.875C43.2966 94.9634 44.4028 95.3321 45.8783 95.0782" stroke="white" stroke-linecap="round"/>
<path d="M40.4629 86.6556C40.7699 93.3105 40.4629 101.696 40.4629 101.696" stroke="white"/>
<path d="M37.4551 96.2816L36.9676 96.1706L36.9343 96.3168L36.987 96.4571L37.4551 96.2816ZM52.4957 105.204C52.7719 105.204 52.9957 104.98 52.9957 104.704C52.9957 104.428 52.7719 104.204 52.4957 104.204V105.204ZM36.4008 89.8759C36.8925 90.9247 37.1951 91.7324 37.3011 92.6458C37.4073 93.5613 37.3201 94.6215 36.9676 96.1706L37.9427 96.3925C38.3079 94.7875 38.4189 93.6033 38.2944 92.5306C38.1697 91.4558 37.8126 90.5316 37.3062 89.4515L36.4008 89.8759ZM36.987 96.4571C38.8142 101.33 40.8438 103.595 43.4462 104.571C44.7259 105.051 46.1066 105.204 47.5947 105.242C49.0619 105.279 50.7304 105.204 52.4957 105.204V104.204C50.6514 104.204 49.0861 104.28 47.6204 104.242C46.1756 104.205 44.9241 104.057 43.7973 103.635C41.5868 102.806 39.7059 100.859 37.9233 96.106L36.987 96.4571Z" fill="white"/>
<path d="M33.2441 101.095C42.0055 106.66 47.7652 107.132 58.5124 106.509" stroke="white" stroke-linecap="round"/>
<path d="M33.8457 102.899C37.4554 108.314 40.4636 108.916 42.8701 106.509" stroke="white" stroke-linecap="round"/>
<path d="M32.041 102.899C38.0573 114.932 46.48 115.534 52.4962 107.712" stroke="white" stroke-linecap="round" stroke-linejoin="round"/>
<ellipse cx="86.5526" cy="73.8273" rx="2.9215" ry="1.0647" transform="rotate(44.7939 86.5526 73.8273)" fill="white"/>
<ellipse cx="78.374" cy="71.3164" rx="3.98885" ry="0.744985" transform="rotate(115.944 78.374 71.3164)" fill="white"/>
</svg>
