<svg width="269" height="135" viewBox="0 0 269 135" fill="none" xmlns="http://www.w3.org/2000/svg">
<rect width="269" height="135" rx="10" fill="#EEAF30"/>
<path d="M155.294 69.46L154.694 56.6C154.674 56.28 154.554 56.16 154.234 56.16H153.054C152.694 56.16 152.534 56.3 152.414 56.6L148.194 66.48H148.154L143.534 56.6C143.394 56.3 143.254 56.16 142.854 56.16H141.674C141.354 56.16 141.214 56.28 141.194 56.7L140.694 69.48C140.674 69.86 140.834 70 141.214 70H142.574C142.934 70 143.114 69.94 143.114 69.5L143.294 61.22H143.334L147.114 69.62C147.254 69.94 147.434 70 147.734 70H148.434C148.654 70 148.854 69.96 148.974 69.64L152.374 61.22H152.414L152.694 69.34C152.714 69.8 152.794 70 153.214 70H154.834C155.214 70 155.314 69.8 155.294 69.46ZM167.035 65.14C167.035 62.2 165.535 60.04 162.275 60.04C159.155 60.04 157.395 62.24 157.395 65.12C157.395 68.04 158.895 70.24 162.155 70.24C165.275 70.24 167.035 68.02 167.035 65.14ZM164.535 65.14C164.535 66.78 163.935 68.34 162.175 68.34C160.395 68.34 159.895 66.72 159.895 65.08C159.895 63.48 160.475 61.94 162.255 61.94C164.015 61.94 164.535 63.5 164.535 65.14ZM175.011 69.4C175.011 69.36 175.011 69.34 174.991 69.28L174.791 68.28C174.751 68.12 174.671 68.04 174.531 68.04C174.471 68.04 174.411 68.06 174.331 68.08C173.971 68.2 173.551 68.32 173.051 68.32C172.571 68.32 172.291 68.16 172.111 67.9C171.891 67.58 171.851 67.14 171.851 66.54V61.96H174.091C174.331 61.96 174.491 61.82 174.491 61.58V60.64C174.491 60.38 174.351 60.3 174.111 60.3H171.851V57.9C171.851 57.6 171.731 57.46 171.471 57.46C171.431 57.46 171.411 57.46 171.371 57.46L169.931 57.64C169.611 57.68 169.431 57.78 169.431 58.12V60.3H168.411C168.171 60.3 168.051 60.46 168.051 60.7V61.46C168.051 61.88 168.111 61.96 168.491 61.96H169.431V66.42C169.431 67.88 169.451 68.7 170.071 69.4C170.571 69.98 171.451 70.24 172.471 70.24C173.271 70.24 174.091 70.04 174.711 69.78C174.911 69.7 175.011 69.6 175.011 69.4ZM185.629 65.14C185.629 62.2 184.129 60.04 180.869 60.04C177.749 60.04 175.989 62.24 175.989 65.12C175.989 68.04 177.489 70.24 180.749 70.24C183.869 70.24 185.629 68.02 185.629 65.14ZM183.129 65.14C183.129 66.78 182.529 68.34 180.769 68.34C178.989 68.34 178.489 66.72 178.489 65.08C178.489 63.48 179.069 61.94 180.849 61.94C182.609 61.94 183.129 63.5 183.129 65.14ZM193.045 60.38C193.045 60.22 192.985 60.16 192.845 60.12C192.665 60.08 192.445 60.04 192.285 60.04C191.165 60.04 190.485 60.54 189.865 61.32L189.845 60.68C189.845 60.4 189.665 60.3 189.345 60.3H188.065C187.765 60.3 187.565 60.4 187.565 60.8V63.26V69.5C187.565 69.84 187.725 70 188.045 70H189.505C189.845 70 189.985 69.82 189.985 69.5V63.14C190.485 62.54 191.225 62.18 191.905 62.18C192.085 62.18 192.285 62.2 192.445 62.24C192.485 62.24 192.505 62.24 192.525 62.24C192.685 62.24 192.785 62.16 192.805 61.98L193.025 60.56C193.045 60.5 193.045 60.44 193.045 60.38ZM209.183 65.96C209.183 63.94 207.743 62.64 205.843 62.5V62.48C207.303 62.16 208.103 60.94 208.103 59.54C208.103 57.14 206.303 56.16 203.083 56.16H200.083C199.663 56.16 199.483 56.26 199.483 56.68V69.42C199.483 69.84 199.583 70 200.003 70H203.723C206.563 70 209.183 69.2 209.183 65.96ZM205.583 59.84C205.583 61.46 204.543 61.84 203.083 61.84H202.043V58.12H203.163C204.563 58.12 205.583 58.54 205.583 59.84ZM206.563 65.88C206.563 66.84 206.103 67.46 205.403 67.76C204.903 67.96 204.223 68.02 203.523 68.02H202.043V63.66C202.223 63.66 203.223 63.66 203.363 63.66C204.203 63.66 204.883 63.72 205.503 64.02C206.143 64.34 206.563 64.94 206.563 65.88ZM219.736 65.12V64.82C219.736 63.46 219.476 62.2 218.556 61.24C217.856 60.5 216.856 60.04 215.636 60.04C212.656 60.04 210.676 62.12 210.676 65.12C210.676 68.24 212.536 70.24 215.676 70.24C216.716 70.24 218.056 70.04 219.036 69.6C219.276 69.5 219.356 69.4 219.356 69.26C219.356 69.2 219.336 69.12 219.316 69.02L219.036 68C218.996 67.84 218.896 67.76 218.756 67.76C218.676 67.76 218.616 67.8 218.536 67.82C217.796 68.1 216.916 68.3 216.076 68.3C214.496 68.3 213.376 67.24 213.216 65.7H219.076C219.576 65.7 219.736 65.6 219.736 65.12ZM217.356 64.12H213.256C213.416 62.94 214.196 61.9 215.496 61.9C216.716 61.9 217.316 62.86 217.356 63.9C217.356 63.94 217.356 64.08 217.356 64.12ZM229.649 69.76C229.649 69.64 229.589 69.5 229.509 69.38L226.269 64.32L229.129 60.72C229.189 60.64 229.209 60.56 229.209 60.5C229.209 60.38 229.109 60.3 228.949 60.3H227.169C226.909 60.3 226.789 60.36 226.629 60.58L224.009 64.18H223.969V59.52V56.16C223.969 55.82 223.829 55.7 223.589 55.7C223.529 55.7 223.489 55.72 223.429 55.72L221.969 55.92C221.669 55.96 221.549 56.08 221.549 56.4V69.52C221.549 69.82 221.709 70 222.009 70H223.509C223.829 70 223.969 69.84 223.969 69.5V68.36V65.58L224.189 65.38L226.749 69.58C226.949 69.9 227.189 70 227.549 70H229.269C229.469 70 229.649 69.94 229.649 69.76ZM240.207 69.62V68.68C240.207 68.42 240.087 68.34 239.847 68.34H239.687C239.587 68.34 239.507 68.32 239.447 68.26C239.367 68.16 239.327 67.96 239.327 67.68V60.74C239.327 60.44 239.167 60.3 238.907 60.3H237.507C237.267 60.3 237.107 60.44 237.087 60.66L237.047 61.2C236.547 60.52 235.547 60.04 234.487 60.04C232.247 60.04 230.167 61.86 230.167 65.32C230.167 67.92 231.447 70.24 234.267 70.24C235.367 70.24 236.667 69.56 237.167 68.82H237.207C237.347 69.5 237.807 70 238.847 70H239.807C240.047 70 240.207 69.86 240.207 69.62ZM236.907 66.9C236.607 67.52 235.767 68.26 234.787 68.26C233.307 68.26 232.667 66.84 232.667 65.16C232.667 63.06 233.707 62.02 234.927 62.02C235.687 62.02 236.507 62.46 236.907 63.04V66.9ZM248.4 67.14C248.4 65.84 247.56 65.02 246.5 64.58L244.7 63.84C243.94 63.54 243.72 63.26 243.72 62.82C243.72 62.36 244.14 61.9 244.98 61.9C245.62 61.9 246.48 62.12 247.14 62.38C247.2 62.4 247.28 62.42 247.34 62.42C247.48 62.42 247.58 62.34 247.62 62.2L247.96 61.12C247.98 61.04 248 60.98 248 60.92C248 60.8 247.92 60.72 247.76 60.64C246.76 60.2 245.82 60.04 244.86 60.04C243.08 60.04 241.24 60.94 241.24 62.9C241.24 64.26 242.16 65.14 243.3 65.56L244.88 66.16C245.7 66.48 246.08 66.78 246.08 67.34C246.08 68 245.48 68.4 244.6 68.4C243.9 68.4 242.96 68.14 242.08 67.78C241.98 67.74 241.92 67.74 241.86 67.74C241.74 67.74 241.64 67.82 241.58 68.02L241.26 69.04C241.24 69.1 241.22 69.16 241.22 69.22C241.22 69.34 241.28 69.46 241.46 69.54C242.36 69.94 243.5 70.24 244.54 70.24C246.58 70.24 248.4 69.24 248.4 67.14ZM158.665 89.96C158.665 87.94 157.225 86.64 155.325 86.5V86.48C156.785 86.16 157.585 84.94 157.585 83.54C157.585 81.14 155.785 80.16 152.565 80.16H149.565C149.145 80.16 148.965 80.26 148.965 80.68V93.42C148.965 93.84 149.065 94 149.485 94H153.205C156.045 94 158.665 93.2 158.665 89.96ZM155.065 83.84C155.065 85.46 154.025 85.84 152.565 85.84H151.525V82.12H152.645C154.045 82.12 155.065 82.54 155.065 83.84ZM156.045 89.88C156.045 90.84 155.585 91.46 154.885 91.76C154.385 91.96 153.705 92.02 153.005 92.02H151.525V87.66C151.705 87.66 152.705 87.66 152.845 87.66C153.685 87.66 154.365 87.72 154.985 88.02C155.625 88.34 156.045 88.94 156.045 89.88ZM169.219 89.12V88.82C169.219 87.46 168.959 86.2 168.039 85.24C167.339 84.5 166.339 84.04 165.119 84.04C162.139 84.04 160.159 86.12 160.159 89.12C160.159 92.24 162.019 94.24 165.159 94.24C166.199 94.24 167.539 94.04 168.519 93.6C168.759 93.5 168.839 93.4 168.839 93.26C168.839 93.2 168.819 93.12 168.799 93.02L168.519 92C168.479 91.84 168.379 91.76 168.239 91.76C168.159 91.76 168.099 91.8 168.019 91.82C167.279 92.1 166.399 92.3 165.559 92.3C163.979 92.3 162.859 91.24 162.699 89.7H168.559C169.059 89.7 169.219 89.6 169.219 89.12ZM166.839 88.12H162.739C162.899 86.94 163.679 85.9 164.979 85.9C166.199 85.9 166.799 86.86 166.839 87.9C166.839 87.94 166.839 88.08 166.839 88.12ZM176.511 84.38C176.511 84.22 176.451 84.16 176.311 84.12C176.131 84.08 175.911 84.04 175.751 84.04C174.631 84.04 173.951 84.54 173.331 85.32L173.311 84.68C173.311 84.4 173.131 84.3 172.811 84.3H171.531C171.231 84.3 171.031 84.4 171.031 84.8V87.26V93.5C171.031 93.84 171.191 94 171.511 94H172.971C173.311 94 173.451 93.82 173.451 93.5V87.14C173.951 86.54 174.691 86.18 175.371 86.18C175.551 86.18 175.751 86.2 175.911 86.24C175.951 86.24 175.971 86.24 175.991 86.24C176.151 86.24 176.251 86.16 176.271 85.98L176.491 84.56C176.511 84.5 176.511 84.44 176.511 84.38ZM186.026 93.76C186.026 93.64 185.966 93.5 185.886 93.38L182.646 88.32L185.506 84.72C185.566 84.64 185.586 84.56 185.586 84.5C185.586 84.38 185.486 84.3 185.326 84.3H183.546C183.286 84.3 183.166 84.36 183.006 84.58L180.386 88.18H180.346V83.52V80.16C180.346 79.82 180.206 79.7 179.966 79.7C179.906 79.7 179.866 79.72 179.806 79.72L178.346 79.92C178.046 79.96 177.926 80.08 177.926 80.4V93.52C177.926 93.82 178.086 94 178.386 94H179.886C180.206 94 180.346 93.84 180.346 93.5V92.36V89.58L180.566 89.38L183.126 93.58C183.326 93.9 183.566 94 183.926 94H185.646C185.846 94 186.026 93.94 186.026 93.76ZM196.234 93.44V84.76C196.234 84.4 196.054 84.3 195.734 84.3H194.314C193.994 84.3 193.814 84.42 193.814 84.76V91.14C193.214 91.68 192.254 92.1 191.494 92.1C190.294 92.1 190.014 91.34 190.014 90.24V84.76C190.014 84.4 189.834 84.3 189.514 84.3H188.114C187.794 84.3 187.594 84.42 187.594 84.76V90.66C187.594 92.82 188.514 94.24 190.754 94.24C191.914 94.24 193.014 93.84 193.934 93.1L193.954 93.6C193.974 93.86 194.174 94 194.434 94H195.714C196.114 94 196.234 93.86 196.234 93.44ZM208.147 93.62V92.68C208.147 92.42 208.027 92.34 207.787 92.34H207.627C207.527 92.34 207.447 92.32 207.387 92.26C207.307 92.16 207.267 91.96 207.267 91.68V84.74C207.267 84.44 207.107 84.3 206.847 84.3H205.447C205.207 84.3 205.047 84.44 205.027 84.66L204.987 85.2C204.487 84.52 203.487 84.04 202.427 84.04C200.187 84.04 198.107 85.86 198.107 89.32C198.107 91.92 199.387 94.24 202.207 94.24C203.307 94.24 204.607 93.56 205.107 92.82H205.147C205.287 93.5 205.747 94 206.787 94H207.747C207.987 94 208.147 93.86 208.147 93.62ZM204.847 90.9C204.547 91.52 203.707 92.26 202.727 92.26C201.247 92.26 200.607 90.84 200.607 89.16C200.607 87.06 201.647 86.02 202.867 86.02C203.627 86.02 204.447 86.46 204.847 87.04V90.9ZM212.299 93.5V80.14C212.299 79.82 212.099 79.7 211.859 79.7C211.819 79.7 211.759 79.72 211.719 79.72L210.279 79.92C210.019 79.96 209.879 80.06 209.879 80.4V93.52C209.879 93.86 210.059 94 210.339 94H211.859C212.139 94 212.299 93.84 212.299 93.5ZM217.521 81.76C217.521 80.96 216.861 80.5 216.181 80.5C215.481 80.5 214.821 80.98 214.821 81.78C214.821 82.58 215.521 83.02 216.181 83.02C216.841 83.02 217.521 82.54 217.521 81.76ZM217.401 93.5V84.76C217.401 84.4 217.221 84.3 216.901 84.3H215.501C215.181 84.3 214.981 84.42 214.981 84.76V93.5C214.981 93.86 215.141 94 215.501 94H216.901C217.241 94 217.401 93.86 217.401 93.5ZM226.075 93.4C226.075 93.36 226.075 93.34 226.055 93.28L225.855 92.28C225.815 92.12 225.735 92.04 225.595 92.04C225.535 92.04 225.475 92.06 225.395 92.08C225.035 92.2 224.615 92.32 224.115 92.32C223.635 92.32 223.355 92.16 223.175 91.9C222.955 91.58 222.915 91.14 222.915 90.54V85.96H225.155C225.395 85.96 225.555 85.82 225.555 85.58V84.64C225.555 84.38 225.415 84.3 225.175 84.3H222.915V81.9C222.915 81.6 222.795 81.46 222.535 81.46C222.495 81.46 222.475 81.46 222.435 81.46L220.995 81.64C220.675 81.68 220.495 81.78 220.495 82.12V84.3H219.475C219.235 84.3 219.115 84.46 219.115 84.7V85.46C219.115 85.88 219.175 85.96 219.555 85.96H220.495V90.42C220.495 91.88 220.515 92.7 221.135 93.4C221.635 93.98 222.515 94.24 223.535 94.24C224.335 94.24 225.155 94.04 225.775 93.78C225.975 93.7 226.075 93.6 226.075 93.4ZM236.78 93.62V92.68C236.78 92.42 236.66 92.34 236.42 92.34H236.26C236.16 92.34 236.08 92.32 236.02 92.26C235.94 92.16 235.9 91.96 235.9 91.68V84.74C235.9 84.44 235.74 84.3 235.48 84.3H234.08C233.84 84.3 233.68 84.44 233.66 84.66L233.62 85.2C233.12 84.52 232.12 84.04 231.06 84.04C228.82 84.04 226.74 85.86 226.74 89.32C226.74 91.92 228.02 94.24 230.84 94.24C231.94 94.24 233.24 93.56 233.74 92.82H233.78C233.92 93.5 234.38 94 235.42 94H236.38C236.62 94 236.78 93.86 236.78 93.62ZM233.48 90.9C233.18 91.52 232.34 92.26 231.36 92.26C229.88 92.26 229.24 90.84 229.24 89.16C229.24 87.06 230.28 86.02 231.5 86.02C232.26 86.02 233.08 86.46 233.48 87.04V90.9ZM244.972 91.14C244.972 89.84 244.132 89.02 243.072 88.58L241.272 87.84C240.512 87.54 240.292 87.26 240.292 86.82C240.292 86.36 240.712 85.9 241.552 85.9C242.192 85.9 243.052 86.12 243.712 86.38C243.772 86.4 243.852 86.42 243.912 86.42C244.052 86.42 244.152 86.34 244.192 86.2L244.532 85.12C244.552 85.04 244.572 84.98 244.572 84.92C244.572 84.8 244.492 84.72 244.332 84.64C243.332 84.2 242.392 84.04 241.432 84.04C239.652 84.04 237.812 84.94 237.812 86.9C237.812 88.26 238.732 89.14 239.872 89.56L241.452 90.16C242.272 90.48 242.652 90.78 242.652 91.34C242.652 92 242.052 92.4 241.172 92.4C240.472 92.4 239.532 92.14 238.652 91.78C238.552 91.74 238.492 91.74 238.432 91.74C238.312 91.74 238.212 91.82 238.152 92.02L237.832 93.04C237.812 93.1 237.792 93.16 237.792 93.22C237.792 93.34 237.852 93.46 238.032 93.54C238.932 93.94 240.072 94.24 241.112 94.24C243.152 94.24 244.972 93.24 244.972 91.14Z" fill="white"/>
<g clip-path="url(#clip0_10494_13332)">
<path d="M61.7049 32.7867C61.5657 32.2823 61.4803 31.7646 61.4503 31.2423C61.4027 30.6832 61.4708 30.1204 61.6503 29.5888V29.4435H61.8686C65.5626 28.9993 69.2787 28.7628 72.9992 28.7348L72.1263 29.7705C72.0677 29.3455 72.1616 28.9135 72.3913 28.5511C72.621 28.1886 72.9716 27.919 73.3812 27.79C73.8669 27.6482 74.3673 27.5629 74.8725 27.5356C75.7428 27.4483 76.6169 27.4059 77.4915 27.4084H77.6916H77.7825C78.1773 27.5541 78.5458 27.7627 78.8738 28.0262C79.1317 28.2631 79.3097 28.5742 79.383 28.9165C79.383 29.0619 79.383 28.9165 79.383 28.7348C79.3427 28.6577 79.287 28.5897 79.2193 28.535C79.0848 28.4119 78.9106 28.341 78.7283 28.3351C78.5652 28.335 78.4063 28.3858 78.2736 28.4805C78.1645 28.4805 78.1099 28.6622 78.1463 28.6076V28.4805C78.4009 27.9899 78.6555 27.3903 78.892 26.827L79.0738 26.3909H79.4558C81.5109 26.3909 83.5843 26.4818 85.6577 26.6453C83.6207 27.0814 81.5837 27.4084 79.5467 27.681L80.1105 27.2449C79.9286 27.8627 79.7649 28.4623 79.5285 29.0619C79.5285 29.0619 79.5285 29.2254 79.383 29.3526C79.3222 29.4732 79.2352 29.5787 79.1284 29.6615C78.9867 29.7676 78.8144 29.825 78.6373 29.825C78.4442 29.8185 78.2587 29.7483 78.1099 29.6252C78.024 29.5615 77.9604 29.4725 77.928 29.3708C77.9094 29.2748 77.9094 29.1761 77.928 29.0801C77.928 29.2436 77.928 29.2254 77.928 29.1891C77.7466 29.0735 77.551 28.9819 77.346 28.9165H77.6552L75.0726 29.3526C74.7218 29.3778 74.3744 29.4386 74.0359 29.5343C73.9086 29.5343 74.0359 29.5343 74.0359 29.5343L73.1447 30.57C69.4287 30.6121 65.7131 30.4544 62.0141 30.0976L62.2869 29.9159C62.068 30.347 61.9322 30.8155 61.8868 31.2968C61.7996 31.7898 61.7389 32.2872 61.7049 32.7867Z" fill="white"/>
<path d="M61.7051 32.7866L73.1086 32.2778H73.3814V32.4777C73.5416 32.8907 73.7827 33.2675 74.0907 33.5861H74.2362H75.3092L78.2556 33.4589L77.9646 33.5679C78.1067 33.4389 78.2238 33.285 78.3102 33.1136C78.3231 33.0232 78.3231 32.9315 78.3102 32.8411V32.7139C78.317 32.6262 78.3414 32.5408 78.382 32.4627C78.4227 32.3847 78.4786 32.3156 78.5466 32.2597C78.8244 32.0766 79.1429 31.9643 79.4741 31.9326H80.2744C81.3103 31.8779 82.3485 31.8779 83.3844 31.9326H83.6027V32.1325C83.7679 32.9263 84.1387 33.6629 84.678 34.2687C85.2174 34.8745 85.9065 35.3283 86.6763 35.5847C87.5128 35.7584 88.3251 36.033 89.0953 36.4024C89.8717 36.7405 90.5122 37.3291 90.914 38.074C90.5071 37.4186 89.9019 36.9095 89.1862 36.6204C88.4115 36.2952 87.5988 36.0693 86.7673 35.9481C85.8957 35.7621 85.1059 35.3039 84.512 34.6399C83.9275 33.9783 83.4821 33.2059 83.2026 32.3687L83.4754 32.5685C82.4617 32.5501 81.4478 32.5865 80.4381 32.6776C80.0123 32.6898 79.5927 32.7823 79.2013 32.9501V32.8411C79.2013 32.8411 79.2013 33.0046 79.2013 33.0773C79.173 33.2344 79.1241 33.3872 79.0558 33.5315C78.9389 33.8325 78.7591 34.105 78.5284 34.331L78.3829 34.44H78.2374H75.2729H74.509H74.1089C73.9191 34.407 73.7461 34.311 73.6178 34.1675C73.2479 33.765 72.9688 33.2879 72.7994 32.7684L73.0904 32.9683L61.7051 32.7866Z" fill="white"/>
<path d="M112.593 44.1975C112.234 42.057 111.514 39.9928 110.465 38.0925C109.476 36.2053 108.2 34.4829 106.682 32.9868L107.828 32.5325C107.812 32.7008 107.756 32.8629 107.664 33.0049L107.464 33.1685C107.393 33.2202 107.313 33.2573 107.228 33.2775L106.918 33.3683H106.427C106.118 33.3871 105.809 33.3871 105.5 33.3683H105.318C103.977 32.9567 102.565 32.8268 101.171 32.9868C100.518 33.0547 99.8926 33.2859 99.3525 33.659L98.8069 33.9861C98.5292 34.1466 98.2178 34.24 97.8975 34.2586C97.7016 34.2677 97.5068 34.2237 97.3337 34.1315C97.1206 34.0093 96.9494 33.8256 96.8427 33.6045C96.8074 33.4001 96.8074 33.1912 96.8427 32.9868V32.7687V32.8959C96.9199 33.0738 97.0543 33.2208 97.2246 33.3138C97.5156 33.4047 97.4792 33.3138 97.4974 33.3138H97.2792L96.7881 33.441L95.7696 33.7862C95.0967 34.0406 94.4237 34.3132 93.7872 34.622C93.1934 34.8743 92.6463 35.2244 92.1685 35.6577C92.1685 35.6577 92.023 35.8394 92.0594 35.7486C92.0958 35.6577 92.0594 35.3125 92.0594 35.4215C92.0594 35.5305 92.2594 35.6032 92.4595 35.8213C92.5728 35.9616 92.6704 36.1139 92.7505 36.2755L92.8414 36.4572C92.9653 36.6856 93.1337 36.8869 93.3368 37.0492C93.5398 37.2114 93.7734 37.3314 94.0236 37.402L96.1697 37.9835C96.8 38.18 97.4555 38.284 98.1158 38.2923L99.2252 38.147C99.7209 38.1222 100.215 38.2222 100.662 38.4377C102.027 39.1702 103.35 39.9769 104.627 40.8543C105.882 41.6719 107.137 42.5077 108.264 43.3981C108.863 43.9706 109.585 44.3994 110.374 44.6518C110.767 44.7764 111.182 44.8197 111.593 44.779H112.247C112.247 44.779 112.52 44.779 112.466 44.779C112.411 44.779 112.247 44.779 112.175 44.6518C112.102 44.5246 112.375 44.6518 112.484 44.6518C112.593 44.6518 112.32 44.779 112.266 44.8335L111.629 44.9788C111.186 45.0788 110.726 45.0788 110.283 44.9788C109.43 44.7919 108.629 44.4197 107.937 43.8887C106.603 43.174 105.294 42.4472 104.008 41.7083C102.717 41.0178 101.317 40.182 100.135 39.6914C99.8865 39.5926 99.6167 39.5612 99.3525 39.6006C99.0797 39.6006 98.6432 39.7641 98.2431 39.8186C97.4031 39.8665 96.5611 39.7744 95.7514 39.5461L93.5144 39.0373C93.0339 38.905 92.5858 38.6754 92.1979 38.3628C91.8099 38.0503 91.4904 37.6614 91.2591 37.2203L91.0955 36.8933C91.0955 36.8933 90.9136 36.7297 90.6953 36.4935C90.555 36.3325 90.4442 36.1479 90.368 35.9484C90.2953 35.6807 90.2953 35.3985 90.368 35.1308C90.4821 34.8231 90.6621 34.5441 90.8954 34.3132C91.5183 33.7638 92.2242 33.3162 92.9869 32.9868C93.7098 32.6707 94.4507 32.3977 95.2058 32.1691L96.3334 31.8057L96.9336 31.6604H97.261H97.4974C97.6686 31.6036 97.8536 31.6036 98.0248 31.6604C98.1613 31.7144 98.2841 31.7977 98.3847 31.9045C98.4853 32.0113 98.5611 32.1388 98.6068 32.2781C98.627 32.4106 98.627 32.5454 98.6068 32.6779V32.9868C98.6068 32.9868 98.6068 33.0958 98.6068 32.8777C98.6068 32.6597 98.0248 32.4235 98.0248 32.478C98.0248 32.5325 98.0248 32.478 98.1521 32.3872L98.5886 32.151C99.3247 31.6725 100.169 31.3852 101.044 31.3151C102.67 31.1962 104.302 31.4575 105.809 32.0783H105.554H106.791C106.761 32.0719 106.73 32.0719 106.7 32.0783C106.604 32.1818 106.552 32.3186 106.555 32.4598L107.701 32.0056C109.212 33.6862 110.441 35.6007 111.338 37.6746C112.172 39.7483 112.598 41.9629 112.593 44.1975Z" fill="white"/>
<path d="M98.4976 32.1149C98.4523 31.4836 98.5727 30.8515 98.8471 30.281C99.1214 29.7106 99.5401 29.2216 100.062 28.8625C100.581 28.5089 101.128 28.199 101.699 27.9358L102.481 27.5361L102.881 27.3362C102.881 27.3362 102.972 27.3362 102.881 27.3362C102.881 27.3362 102.735 27.3362 102.735 27.736C102.749 27.8211 102.784 27.9012 102.839 27.9682C102.893 28.0351 102.964 28.0867 103.044 28.1175H103.245H103.063L102.863 27.1909C103.245 27.1909 103.59 27.1909 103.954 27.1909C104.36 27.202 104.761 27.2882 105.136 27.4452C105.253 27.5051 105.363 27.5782 105.463 27.6633C105.571 27.7505 105.663 27.8549 105.736 27.9722C105.844 28.1229 105.941 28.2807 106.027 28.4446C106.207 28.767 106.364 29.1008 106.5 29.4439L105.809 29.0442C106.54 28.9007 107.283 28.8217 108.028 28.808C108.234 28.7904 108.44 28.7904 108.646 28.808C108.965 28.8197 109.271 28.9345 109.519 29.135L110.319 30.0072L109.883 29.7528C111.793 30.0799 113.684 30.4251 115.576 30.8066H115.194C115.425 30.6981 115.67 30.6188 115.921 30.5704C116.09 30.5405 116.262 30.5405 116.43 30.5704C116.614 30.5844 116.788 30.6614 116.921 30.7885C116.996 30.8759 117.057 30.9738 117.103 31.0792C117.103 31.2427 117.267 31.4426 117.358 31.7151C117.391 31.9015 117.391 32.0921 117.358 32.2784C117.332 32.4227 117.273 32.5589 117.184 32.6758C117.096 32.7926 116.981 32.8868 116.849 32.9507C116.556 33.0245 116.25 33.0245 115.957 32.9507H115.321L114.175 32.987C112.52 32.7145 110.901 32.3693 109.265 31.9877H109.355C108.864 32.2057 108.355 32.3874 107.846 32.5873C108.301 32.2966 108.755 32.0059 109.228 31.7333C110.883 31.8423 112.538 31.9877 114.193 32.133H115.43H116.358C116.358 32.133 116.194 32.2784 116.212 32.3329C116.23 32.3874 116.212 32.3329 116.212 32.3329C116.146 32.1637 116.067 31.9997 115.976 31.8423V31.7333C115.976 31.7333 115.976 31.8605 115.976 31.8787C116.035 31.9408 116.111 31.9849 116.194 32.0059H116.085L115.63 32.1876H115.466H115.266C113.393 31.8605 111.574 31.5334 109.756 31.17H109.537L109.337 30.952L108.719 30.2434C108.883 30.3524 108.719 30.2434 108.592 30.2434H108.137C107.462 30.2358 106.788 30.2723 106.118 30.3524H105.591L105.427 29.8618C105.339 29.5729 105.223 29.293 105.081 29.026C105.027 28.8836 104.953 28.7492 104.863 28.6263C104.32 28.408 103.739 28.3028 103.154 28.3174H100.225L102.954 27.4452H103.19H103.572C103.656 27.4705 103.73 27.5204 103.785 27.5884C103.84 27.6565 103.874 27.7395 103.881 27.8268C103.881 28.2447 103.717 28.2084 103.736 28.2447L103.572 28.3356L103.135 28.5173L102.281 28.8443C101.717 29.0805 101.171 29.2804 100.662 29.5529C100.111 29.7581 99.6226 30.1016 99.2435 30.5504C98.8644 30.9992 98.6075 31.538 98.4976 32.1149Z" fill="white"/>
<path d="M89.9128 40.2546C90.2466 40.0352 90.5997 39.8467 90.9677 39.6914C91.2545 39.6815 91.5373 39.7599 91.778 39.9159C92.0188 40.0718 92.2057 40.2979 92.3136 40.5635C92.4316 41.047 92.4316 41.5518 92.3136 42.0353C92.2628 42.3266 92.1304 42.5975 91.9317 42.8166C91.8089 42.9169 91.6645 42.9872 91.5097 43.0219C91.355 43.0566 91.1943 43.0547 91.0405 43.0165C90.595 42.9319 90.1731 42.7521 89.8037 42.4895L91.0587 42.3987C91.2587 42.3987 91.3497 42.2897 91.3497 42.2715C91.4034 42.1447 91.4342 42.0093 91.4406 41.8718C91.4748 41.5274 91.4748 41.1805 91.4406 40.8361C91.3989 40.6988 91.324 40.574 91.2225 40.4725C91.121 40.3711 90.996 40.2963 90.8586 40.2546H90.9495C90.6045 40.2826 90.2578 40.2826 89.9128 40.2546Z" fill="white"/>
<path d="M92.4228 38.1649C91.2407 38.7645 90.0585 39.346 88.7854 39.8547C86.8684 39.7879 84.959 40.1286 83.1836 40.854L83.3655 40.7087C83.3655 40.5815 83.4928 41.0176 83.8384 41.1993C84.2017 41.4379 84.5851 41.6446 84.9842 41.817C85.7391 42.2446 86.5645 42.5339 87.4213 42.671C87.8632 42.7064 88.3071 42.7064 88.749 42.671C89.24 42.671 89.5492 42.671 89.7129 42.2713C89.9728 41.9191 90.0859 41.4799 90.0282 41.0461C89.9705 40.6123 89.7467 40.2178 89.4037 39.9456C89.6303 40.0271 89.8309 40.1679 89.9844 40.3533C90.138 40.5386 90.2389 40.7618 90.2767 40.9994C90.3748 41.4876 90.3241 41.9939 90.1312 42.453C90.0845 42.594 90.0086 42.7235 89.9083 42.8331C89.808 42.9427 89.6856 43.0299 89.5492 43.0889C89.3141 43.1721 89.0699 43.227 88.8217 43.2525C88.3503 43.3621 87.8688 43.423 87.3849 43.4342C86.4206 43.3599 85.4808 43.0943 84.6204 42.6529C84.1721 42.4649 83.7402 42.2401 83.3291 41.9806C83.0885 41.8196 82.879 41.6165 82.7108 41.381C82.5642 41.2376 82.4636 41.0541 82.4215 40.8535C82.3794 40.653 82.3978 40.4445 82.4743 40.2544V40.1454H82.6198C84.5232 39.3621 86.601 39.0987 88.6399 39.3823H88.5125C89.8948 38.9099 91.1497 38.5283 92.4228 38.1649Z" fill="white"/>
<path d="M88.7129 43.3074C89.5924 44.2664 90.5472 45.1535 91.5683 45.9602C92.6414 46.6507 93.7872 47.3775 94.8238 48.1588L96.388 49.3398C96.9536 49.727 97.4778 50.1715 97.9521 50.6662C98.0375 50.7886 98.0821 50.9349 98.0794 51.0841C98.0677 51.187 98.0249 51.2839 97.9566 51.3618C97.8884 51.4397 97.798 51.495 97.6974 51.5202C97.4928 51.5555 97.2837 51.5555 97.0791 51.5202H96.1151H94.1691H93.969C93.969 51.4293 93.969 51.3203 93.969 51.4293C93.969 51.5384 94.3873 51.8654 94.5874 52.0835L95.8969 53.428L95.6786 53.319C97.4974 53.6461 99.3161 54.0095 101.135 54.3728L103.845 54.9179C104.255 55.0208 104.679 55.0516 105.1 55.0088C105.518 55.0088 105.955 54.8453 106.373 54.7544H106.537C106.493 54.7493 106.448 54.7549 106.407 54.7708C106.366 54.7866 106.329 54.8121 106.3 54.8453C106.262 54.8725 106.231 54.9079 106.209 54.9488C106.187 54.9897 106.175 55.0351 106.173 55.0815L106.118 54.7908C105.959 54.5881 105.789 54.394 105.609 54.2093L104.554 52.9738L102.481 50.648C101.062 49.0673 99.6799 47.4683 98.2976 45.8512C98.0703 45.6295 97.8908 45.3636 97.7702 45.0699C97.7106 44.9243 97.7106 44.7612 97.7702 44.6157C97.8464 44.523 97.9473 44.4537 98.0612 44.4158L98.4431 44.2523C98.9636 44.0376 99.5175 43.9146 100.08 43.8889C101.171 43.8889 102.208 43.9797 103.281 44.0706C105.402 44.2309 107.51 44.5283 109.592 44.9609C107.496 44.6524 105.381 44.4885 103.263 44.4703C102.208 44.4703 101.135 44.4703 100.098 44.4703C99.6004 44.5115 99.1139 44.6407 98.6614 44.8519L98.3158 44.9972C98.2067 45.0881 98.3158 44.9972 98.3158 44.9972C98.4337 45.1672 98.5677 45.3254 98.7159 45.4696C100.171 47.0141 101.59 48.5948 103.008 50.1756L105.136 52.5377L106.209 53.7187L106.755 54.3365C106.852 54.4681 106.937 54.608 107.009 54.7544C107.072 54.8727 107.109 55.0026 107.119 55.136C107.113 55.2933 107.048 55.4428 106.937 55.5539C106.879 55.6028 106.813 55.6393 106.741 55.6612C106.669 55.6831 106.593 55.6898 106.518 55.6811H106.682C106.191 55.7901 105.736 55.9173 105.245 55.99C104.741 56.062 104.228 56.0311 103.736 55.8991L101.026 55.3177C99.207 54.9179 97.3883 54.5545 95.5695 54.1911H95.4422L95.3513 54.1003L94.06 52.7376C93.8235 52.4832 93.6599 52.3378 93.387 52.0108C93.2978 51.8993 93.2356 51.7687 93.2052 51.6292C93.189 51.5304 93.1971 51.4292 93.2288 51.3342C93.2605 51.2393 93.3148 51.1535 93.387 51.0841C93.5728 50.9179 93.8108 50.8215 94.06 50.8116L96.0424 50.9569H97.0245C97.1452 50.9736 97.2676 50.9736 97.3883 50.9569C97.3883 50.9569 97.3883 50.9569 97.3883 51.0659C97.3883 51.175 97.3883 51.0659 97.3883 51.0659C96.9728 50.6116 96.5093 50.2034 96.006 49.8486L94.4965 48.613C93.4598 47.7954 92.4595 47.0141 91.3864 46.2328C90.4188 45.3302 89.5248 44.352 88.7129 43.3074Z" fill="white"/>
<path d="M106.828 55.7536C108.283 55.6446 109.756 55.6083 111.193 55.4993C111.547 55.4625 111.899 55.408 112.248 55.3357C112.611 55.2946 112.977 55.2946 113.339 55.3357C113.194 55.4993 113.448 55.0632 113.485 54.7543C113.521 54.4454 113.612 54.0639 113.667 53.7005C114.036 50.8386 113.718 47.9299 112.739 45.2151C113.559 46.4687 114.127 47.8695 114.412 49.3397C114.715 50.8166 114.764 52.3342 114.558 53.8276C114.558 54.2092 114.43 54.5726 114.34 54.9542C114.3 55.1518 114.245 55.3461 114.176 55.5356C114.129 55.6612 114.062 55.7779 113.976 55.8808C113.917 55.9628 113.84 56.0311 113.753 56.0812C113.665 56.1314 113.567 56.1622 113.467 56.1716C112.903 56.1716 112.739 56.1716 112.357 56.1716C111.982 56.2088 111.604 56.2088 111.229 56.1716C109.753 56.1514 108.282 56.0117 106.828 55.7536Z" fill="white"/>
<path d="M88.7129 43.8888C89.5495 45.9783 90.3679 48.0678 91.15 50.1755C91.9321 52.2832 92.7505 54.3728 93.478 56.4986C94.9875 60.7322 96.4607 64.9658 97.8793 69.2175L97.3883 68.9631L100.298 68.2182L100.044 68.6906C98.916 65.1838 97.7702 61.677 96.7517 58.1339C98.1703 61.5498 99.4616 65.0021 100.753 68.4544L100.88 68.8178L100.498 68.9268L97.5883 69.7444L97.2428 69.8353L97.1154 69.4719C95.5877 65.2565 94.1267 61.0169 92.7323 56.753C91.9866 54.6272 91.3501 52.4831 90.6589 50.3391C89.9678 48.195 89.3313 46.051 88.7129 43.8888Z" fill="white"/>
<path d="M108.828 68.3637C107.928 66.6671 107.156 64.9058 106.519 63.0945C105.857 61.3142 105.311 59.4935 104.882 57.6435V57.5345C105.252 57.2558 105.675 57.0556 106.126 56.9463C106.576 56.8369 107.044 56.8207 107.501 56.8986L110.884 67.5097L107.374 56.9894L107.501 57.0984C107.086 57.0258 106.661 57.0258 106.246 57.0984C105.849 57.1905 105.481 57.3775 105.173 57.6435V57.4618C105.997 59.1906 106.714 60.9686 107.319 62.7856C107.961 64.6045 108.466 66.4692 108.828 68.3637Z" fill="white"/>
<path d="M101.771 71.3975C102.327 71.2991 102.866 71.1217 103.372 70.8706L104.791 69.9439C105.745 69.3009 106.812 68.8446 107.937 68.5994C109.035 68.2756 110.153 68.0207 111.283 67.8362C112.455 67.7509 113.632 67.7935 114.794 67.9634C117.121 68.2622 119.382 68.9437 121.487 69.9803C123.541 71.0597 125.484 72.3377 127.288 73.7959L128.198 74.5046L127.27 75.1042C127.026 75.2744 126.756 75.4033 126.47 75.4857L125.833 75.6674C125.397 75.6674 124.997 75.8491 124.578 75.9036C123.764 76.0093 122.944 76.07 122.123 76.0853C120.5 76.1755 118.872 76.1755 117.249 76.0853C116.784 76.0424 116.327 75.9448 115.885 75.7946C115.578 75.6478 115.254 75.538 114.921 75.4676C114.23 75.3585 113.411 75.2677 112.666 75.2132C111.92 75.1587 111.138 75.2132 110.392 75.2132C109.73 75.2155 109.073 75.326 108.446 75.5402H107.919C108.051 75.5713 108.191 75.5535 108.311 75.49C108.431 75.4266 108.524 75.3218 108.574 75.195C108.574 75.1042 108.574 75.195 108.574 75.195C108.583 75.3736 108.614 75.5504 108.664 75.7219L109.065 77.121L109.865 79.9737C110.41 81.7906 110.938 83.7711 111.447 85.679L111.92 87.496L110.429 86.4966L104.845 82.7173L104.3 82.154C104.039 81.9373 103.822 81.6719 103.663 81.3727C103.488 81.0762 103.383 80.7431 103.358 80.3995C103.333 80.056 103.387 79.7112 103.517 79.3922C103.79 78.7563 104.19 78.4111 104.318 77.9568C104.396 77.7531 104.402 77.5288 104.336 77.3209C104.27 77.1129 104.135 76.9335 103.954 76.8121H103.863C103.19 75.304 102.535 73.7959 101.881 72.2697C102.717 73.7051 103.517 75.1405 104.318 76.5941L104.19 76.4851C104.501 76.6375 104.749 76.893 104.891 77.2079C105.034 77.5228 105.063 77.8775 104.972 78.2112C104.776 78.7437 104.552 79.2653 104.3 79.7738C104.237 79.9805 104.221 80.1983 104.253 80.4118C104.284 80.6253 104.362 80.8293 104.481 81.0093C104.597 81.1968 104.745 81.3628 104.918 81.4999L105.627 81.9178L111.356 85.3883L110.338 86.1514C109.719 84.3344 109.119 82.3902 108.519 80.5188L107.628 77.6843L107.191 76.267C107.087 75.9683 107.026 75.6563 107.009 75.3404C106.993 75.1005 107.023 74.8596 107.1 74.6317C107.189 74.3865 107.357 74.1781 107.578 74.0397C107.799 73.9013 108.06 73.8411 108.319 73.8686L107.791 73.9595C108.644 73.6029 109.559 73.4177 110.483 73.4144C111.301 73.3687 112.121 73.3687 112.939 73.4144C113.761 73.4551 114.581 73.54 115.394 73.6687C115.841 73.7393 116.276 73.8739 116.685 74.0685C116.989 74.1807 117.308 74.2481 117.631 74.2683C119.16 74.4116 120.697 74.4541 122.232 74.3955C123.014 74.3955 123.778 74.3955 124.524 74.2502C124.888 74.2502 125.251 74.1412 125.615 74.0685L126.106 73.9595C126.233 73.9595 126.488 73.7959 126.397 73.8504V75.1768C124.698 73.7365 122.872 72.4533 120.941 71.343C119.018 70.2653 116.928 69.5161 114.757 69.1263C113.687 68.9044 112.594 68.8068 111.502 68.8356C110.384 68.9356 109.273 69.0994 108.173 69.3262C107.078 69.462 106.017 69.8009 105.045 70.3255C104.536 70.5799 104.063 70.8706 103.536 71.1068C102.968 71.3 102.372 71.3982 101.771 71.3975Z" fill="white"/>
<path d="M81.9831 59.4782C80.7736 59.2885 79.5389 59.3317 78.3456 59.6054C78.051 59.6699 77.777 59.8067 77.5484 60.0033C77.3198 60.2 77.1438 60.4503 77.0361 60.7319C76.7512 61.2755 76.5256 61.8481 76.3632 62.4398C76.0462 63.6313 75.8272 64.8467 75.7084 66.0738L75.3447 69.7078C75.4335 70.0367 75.6325 70.3253 75.9085 70.5254L76.8543 71.1977L78.673 72.5786C78.9822 72.724 79.1822 72.5786 79.2732 72.306C79.3641 72.0335 79.4187 71.4884 79.5278 71.0705C79.6871 70.2048 79.937 69.3583 80.2735 68.5449C81.0483 66.9676 82.0134 65.491 83.1471 64.1478C84.1887 62.6819 85.6094 61.5263 87.2574 60.8046C87.6824 60.6453 88.1206 60.5237 88.5669 60.4412C88.8087 60.4142 89.0527 60.4142 89.2944 60.4412C89.5672 60.4412 89.2944 60.4412 89.549 60.314C90.0936 59.6888 90.5863 59.0204 91.0222 58.3153C91.0222 58.3153 91.0222 58.2245 91.0222 58.3153V58.1518C91.0286 58.0671 91.0286 57.9821 91.0222 57.8974C91.0592 57.7544 91.0592 57.6043 91.0222 57.4613C90.8491 57.1537 90.5983 56.8968 90.2947 56.7164L88.185 55.2083L84.0201 52.0649L75.5993 46.0507C74.9844 45.4889 74.4129 44.8815 73.8897 44.2337C73.3377 43.5475 72.9462 42.7467 72.7439 41.8898C72.66 40.9655 72.8838 40.0394 73.3805 39.2552C73.7753 38.4928 74.2912 37.7994 74.9082 37.202C74.9688 37.2057 75.0295 37.2057 75.0901 37.202C75.0757 37.2301 75.0682 37.2613 75.0682 37.2928C75.0682 37.3244 75.0757 37.3556 75.0901 37.3837C74.8754 37.2799 74.6497 37.2006 74.4171 37.1475L72.8167 36.6206C71.689 36.3662 70.5614 36.13 69.4338 35.9483C68.8989 35.8551 68.3579 35.8004 67.8151 35.7847C67.2921 35.9042 66.7896 36.1002 66.3238 36.3662C65.3174 36.8295 64.4191 37.4979 63.6866 38.3285C63.5103 38.5011 63.3711 38.7076 63.2773 38.9357C63.1835 39.1637 63.1371 39.4084 63.141 39.6549C63.2348 40.172 63.4532 40.6584 63.7775 41.0722L65.5963 43.9612L69.5247 49.7028C70.0031 50.2561 70.3401 50.917 70.5069 51.6288C70.6509 52.3376 70.6006 53.0721 70.3614 53.7547C70.2522 54.1181 70.0522 54.4088 70.0886 54.6813C70.1089 55.0022 70.1891 55.3165 70.325 55.608C70.5734 56.2227 70.9377 56.784 71.398 57.2615C71.398 57.2615 71.6345 57.3705 71.78 57.3705C71.9675 57.3884 72.1563 57.3884 72.3438 57.3705C72.7257 57.3705 73.1258 57.3705 73.5078 57.3705C74.2716 57.3705 75.0355 57.4977 75.7994 57.5885C77.3348 57.7826 78.8542 58.0862 80.3462 58.497C78.8469 58.1237 77.3205 57.8686 75.7812 57.7339C75.0173 57.6612 74.2535 57.6067 73.4896 57.5703H71.6709C71.4708 57.5703 71.2707 57.5703 71.0343 57.2251V57.316C70.5193 56.8255 70.1054 56.2391 69.8157 55.5898C69.67 55.2601 69.5721 54.9114 69.5247 54.5542C69.549 54.191 69.6351 53.8345 69.7794 53.5003C69.9726 52.9138 70.004 52.2861 69.8703 51.6833C69.7066 51.0594 69.4017 50.4813 68.9791 49.9935L64.9597 44.3246L63.1955 41.3992C62.7838 40.8721 62.5201 40.245 62.4317 39.5822C62.4131 38.9126 62.6542 38.2616 63.1046 37.7653C63.8843 36.833 64.859 36.0825 65.96 35.5667C66.5275 35.2493 67.1411 35.0224 67.7788 34.8944C68.3892 34.8804 68.9993 34.9352 69.5975 35.058C70.7615 35.2397 71.9073 35.4577 73.0531 35.7121C73.6169 35.8393 74.1807 35.9664 74.7445 36.13C75.0807 36.1875 75.4021 36.311 75.6903 36.4934C75.822 36.5822 75.9235 36.7089 75.9813 36.8568C76.0132 36.958 76.0199 37.0656 76.0009 37.17C75.9819 37.2745 75.9377 37.3728 75.8721 37.4564C75.7292 37.6193 75.5479 37.7441 75.3447 37.8198H75.472C74.9352 38.355 74.4815 38.9674 74.1261 39.6367C73.7435 40.2434 73.565 40.9565 73.6169 41.6718C74.1209 43.1004 75.0156 44.3594 76.1995 45.3057L84.5839 51.3381L88.7852 54.3543L90.8767 55.8624C91.3088 56.1348 91.6604 56.5174 91.8952 56.9707C92.0171 57.2378 92.0612 57.5338 92.0225 57.8247C92.0225 57.9519 92.0225 58.0791 92.0225 58.1881V58.3335C92.0377 58.4115 92.0377 58.4917 92.0225 58.5697C91.5621 59.3473 91.026 60.0776 90.422 60.7501C90.3228 60.8716 90.1988 60.9707 90.0583 61.0408C89.8967 61.078 89.7288 61.078 89.5672 61.0408H89.0034C88.6009 61.1246 88.2056 61.24 87.8212 61.386C86.2901 62.0395 84.9642 63.0942 83.9837 64.4385C82.8726 65.712 81.92 67.1153 81.1465 68.6176C80.703 69.4181 80.3492 70.2651 80.0916 71.1432C79.9825 71.5611 79.9461 71.9426 79.8188 72.4332C79.7743 72.5749 79.7014 72.7059 79.6045 72.8184C79.5075 72.9309 79.3886 73.0224 79.255 73.0873C79.1129 73.1303 78.9632 73.1428 78.8159 73.124C78.6686 73.1052 78.527 73.0556 78.4002 72.9783L76.5814 71.5974L75.6539 70.8888C75.2959 70.625 75.0391 70.2467 74.9264 69.8168L75.3993 66.1828C75.5698 64.9539 75.8312 63.7392 76.1813 62.5489C76.3671 61.9512 76.6108 61.3731 76.9088 60.8227C77.0419 60.531 77.2409 60.2742 77.4903 60.0724C77.7396 59.8706 78.0324 59.7294 78.3456 59.6599C79.5348 59.364 80.7703 59.3023 81.9831 59.4782Z" fill="white"/>
<path d="M70.9805 58.1517C71.5988 60.1504 72.1808 62.1309 72.7992 64.0751C73.457 66.016 74.2595 67.9049 75.1999 69.7259C76.1747 71.4362 77.4716 72.9417 79.0193 74.1593C80.5687 75.4597 82.2165 76.6382 83.9481 77.6843L82.6568 78.2112C82.6568 78.4292 82.6568 78.3202 82.6568 78.3202V78.1022C82.6339 77.9359 82.5974 77.7719 82.5476 77.6116C82.5476 77.2664 82.3476 76.9211 82.2203 76.5577C82.0562 76.1321 81.9521 75.6857 81.9111 75.2314C81.874 74.7839 81.874 74.3342 81.9111 73.8868C82.1972 72.2522 82.8162 70.6938 83.7298 69.308C85.4152 66.6915 87.1794 64.1175 89.0223 61.5858C87.7128 64.4203 86.3124 67.2003 84.8574 69.9439C84.1691 71.2324 83.7251 72.6369 83.5479 74.0867C83.5206 74.4131 83.5206 74.7413 83.5479 75.0678C83.5921 75.3828 83.6841 75.6891 83.8208 75.9763C83.9663 76.3579 84.0936 76.7394 84.2209 77.1392L84.3846 77.7751V78.1385V78.3566C84.3996 78.4955 84.3996 78.6356 84.3846 78.7745L84.1663 79.901L83.1114 79.2832C81.2548 78.2485 79.5062 77.0311 77.8917 75.6493C76.1989 74.2523 74.8227 72.512 73.8541 70.5435C73.0491 68.5917 72.4399 66.565 72.0353 64.493C71.56 62.4016 71.2078 60.2843 70.9805 58.1517Z" fill="white"/>
<path d="M114.302 55.8628C114.465 55.9418 114.605 56.0622 114.707 56.2121C114.809 56.362 114.87 56.536 114.884 56.7168C114.84 57.1083 114.644 57.467 114.338 57.7161C113.93 58.1966 113.493 58.6517 113.029 59.0789C112.113 59.9523 111.078 60.6925 109.955 61.2774C110.665 60.2275 111.502 59.2693 112.447 58.4247C112.938 58.0068 113.411 57.5889 113.92 57.2255C114.429 56.8621 114.375 56.953 114.447 56.7349C114.492 56.5882 114.502 56.4332 114.476 56.2819C114.451 56.1307 114.391 55.9873 114.302 55.8628Z" fill="white"/>
<path d="M106.591 64.3843C106.119 65.4646 105.507 66.4786 104.772 67.4005C104.09 68.3296 103.323 69.1934 102.48 69.9806C102.625 69.4004 102.852 68.8437 103.153 68.3271C103.443 67.8164 103.765 67.3248 104.117 66.8554C104.818 65.9163 105.651 65.0839 106.591 64.3843Z" fill="white"/>
<path d="M73.3809 33.8045C70.7334 33.7011 68.1416 34.5815 66.1059 36.2756C65.1473 37.1223 64.3144 38.1012 63.6324 39.1828C63.3208 39.7033 63.0705 40.2581 62.8868 40.8362C62.7729 41.3202 62.7729 41.824 62.8868 42.308V42.6169V42.7077C62.7898 43.5645 62.6379 44.4141 62.4321 45.2515C62.3203 45.7027 62.1618 46.1412 61.9592 46.5597C61.729 46.9579 61.4477 47.3244 61.1226 47.6499C60.9771 47.7952 60.9589 47.7952 60.9225 47.9043C60.9109 48.0797 60.9109 48.2557 60.9225 48.4312C60.9226 48.8704 60.88 49.3085 60.7952 49.7394C60.6913 50.1851 60.457 50.5899 60.1223 50.9023C59.8869 51.2356 59.6801 51.5881 59.5039 51.9561C59.5467 51.5334 59.6446 51.118 59.7949 50.7206C59.9856 50.3945 60.0918 50.026 60.1041 49.6486C60.0781 49.2585 60.0295 48.8702 59.9586 48.4857C59.9367 48.2561 59.9367 48.0249 59.9586 47.7952C59.9876 47.489 60.094 47.1952 60.2678 46.9413C60.4882 46.6468 60.6772 46.3302 60.8316 45.9964C60.9421 45.653 61.0212 45.3003 61.068 44.9426C61.1807 44.1659 61.2475 43.3832 61.2681 42.5987V42.9984C61.0069 42.1458 61.0069 41.2346 61.2681 40.382C61.4646 39.6294 61.7775 38.9121 62.1956 38.2561C62.998 36.9988 64.028 35.9019 65.2329 35.0219C66.3948 34.1831 67.741 33.6347 69.1587 33.4229C70.5764 33.2111 72.0242 33.342 73.3809 33.8045Z" fill="white"/>
<path d="M68.0888 51.1569L61.6505 52.4106L55.194 53.6462C50.9199 54.5002 46.6277 55.2633 42.4628 56.3535L41.9536 56.4988L41.5898 56.1173C39.3164 53.7189 37.043 51.3386 34.8059 48.8493C34.3512 48.068 33.842 47.2504 33.3327 46.4873C32.798 45.7317 32.1887 45.0317 31.514 44.3977C30.1681 43.0895 28.6768 41.8721 27.2582 40.6184L27.149 40.5094V40.255L26.8398 38.6561V38.3109H27.149C28.3615 38.3835 29.574 38.4744 30.7865 38.5834C29.5861 38.6924 28.3858 38.7651 27.149 38.8378L27.4037 38.5107L27.9129 40.0552L27.7856 39.8553C29.3861 40.9091 30.9138 42.072 32.4234 43.2894C33.1871 43.9369 33.882 44.6615 34.4967 45.4516C35.1193 46.2122 35.6905 47.0134 36.2063 47.85L36.0972 47.7046C38.3161 50.1212 40.6441 52.4833 42.9175 54.7909L42.0263 54.5547C46.2964 53.5114 50.6273 52.7346 54.9939 52.2289C59.3407 51.7383 63.7057 51.3386 68.0888 51.1569Z" fill="white"/>
<path d="M70.1796 58.1522C68.1605 57.5959 66.0718 57.3327 63.9777 57.3709C61.8895 57.3588 59.8037 57.5107 57.7394 57.8252C53.6109 58.4975 49.3732 58.8972 45.2811 59.4605L44.9355 59.5513C44.7168 59.6221 44.4813 59.6221 44.2626 59.5513C43.9841 59.4204 43.7267 59.249 43.4987 59.0426C43.0831 58.6967 42.6884 58.3266 42.3165 57.9342C41.589 57.1711 40.8797 56.3716 40.1886 55.5903L36.0782 50.7935C34.7408 49.1882 33.301 47.6709 31.7678 46.251C31.004 45.5242 30.2583 44.7793 29.549 43.998C28.772 43.257 28.207 42.3225 27.9121 41.2906C28.2683 42.307 28.8975 43.2059 29.7308 43.8889C30.4765 44.6157 31.2768 45.3062 32.077 45.9603C33.6836 47.3294 35.1965 48.8044 36.6057 50.3756C38.0607 51.92 39.4065 53.5189 40.8251 55.0634C41.5345 55.8265 42.2256 56.6078 42.9531 57.3346C43.335 57.698 43.6988 58.0614 44.0807 58.3703C44.2386 58.5155 44.4161 58.6378 44.6081 58.7337C44.7354 58.7337 44.4626 58.7337 44.7172 58.7337L45.1356 58.6428L57.6667 57.2074C61.8552 56.5658 66.1351 56.889 70.1796 58.1522Z" fill="white"/>
<path d="M44.0449 60.0054C44.9907 61.1501 45.8637 62.313 46.8822 63.4213C47.7867 64.5515 48.8044 65.5865 49.9194 66.5102C51.1198 67.346 52.3566 68.1455 53.5569 69.0721C54.2153 69.5375 54.7981 70.1013 55.2847 70.7438L56.576 72.4517L55.412 72.7061L56.1032 70.235L56.4669 68.9995C56.6354 68.4932 56.9369 68.0414 57.3399 67.6912C58.613 66.4375 59.9225 65.42 61.2138 64.2753C63.851 62.0949 66.47 59.8964 69.2162 57.8432C66.8883 60.3506 64.433 62.7309 61.9413 65.1111C60.7409 66.2922 59.4132 67.4369 58.3038 68.6179C58.0492 68.9268 57.7218 69.2175 57.7582 69.3992L57.4308 70.6347L56.7397 73.0877L56.3578 74.3959L55.5757 73.3421L54.2117 71.5251C53.7999 70.9953 53.3233 70.5192 52.793 70.1078L49.3193 67.346C48.2198 66.2991 47.2379 65.1354 46.3911 63.8756C45.5727 62.5674 44.7724 61.3136 44.0449 60.0054Z" fill="white"/>
<path d="M71.853 64.82C70.3114 66.5778 68.646 68.2234 66.8697 69.744C65.1155 71.2909 63.2493 72.7059 61.2861 73.9776C64.3981 70.5032 67.9503 67.4491 71.853 64.8927V64.82Z" fill="white"/>
<path d="M60.2308 46.5962C58.7576 45.397 57.3026 44.1796 55.8476 42.9623C54.175 41.4929 52.1187 40.5288 49.9186 40.1823C47.6997 39.6917 45.4445 39.3283 43.2074 38.9649C40.9704 38.6015 38.6788 38.1473 36.4599 37.9111C35.4047 37.7557 34.3323 37.7557 33.2771 37.9111C32.3132 38.1836 31.4584 38.7469 31.4584 39.4192L31.131 38.8559L34.7685 41.0544C35.9569 41.8185 37.0876 42.6687 38.1513 43.5982C38.4375 43.8443 38.7107 44.1051 38.9698 44.3795C39.2005 44.6816 39.413 44.9971 39.6063 45.3243C39.9419 45.8961 40.3188 46.4426 40.7339 46.9596C40.9291 47.1941 41.1486 47.4073 41.3887 47.5956C41.6797 47.8318 41.9525 48.0498 42.2071 48.286L43.7349 49.7214C44.7177 50.6655 45.7498 51.5571 46.8267 52.3924C47.0641 52.5903 47.3272 52.7553 47.6088 52.883C47.8908 52.9403 48.1815 52.9403 48.4636 52.883C49.1547 52.883 49.8276 52.774 50.5187 52.7013C53.265 52.4287 55.975 52.029 58.7758 51.7201C56.0659 52.3379 53.3196 52.8648 50.6097 53.3554L48.5363 53.6643C48.1455 53.7352 47.745 53.7352 47.3541 53.6643C46.9907 53.5312 46.6479 53.3477 46.3356 53.1192C45.1867 52.3127 44.0817 51.4454 43.0255 50.5209L41.4432 49.1763C41.2023 48.9485 40.9472 48.7361 40.6794 48.5404C40.3705 48.3072 40.0897 48.0389 39.8428 47.7409C39.3699 47.1747 38.9498 46.5665 38.5878 45.924C38.2663 45.3796 37.847 44.8992 37.3511 44.5067C36.2804 43.6189 35.1502 42.8054 33.9682 42.072L30.4217 39.9824L30.1307 39.8007V39.4373C30.1203 39.0413 30.2098 38.649 30.391 38.2965C30.5721 37.9441 30.8391 37.6428 31.1674 37.4205C31.7182 37.0386 32.3347 36.7614 32.9861 36.6028C34.1917 36.4205 35.418 36.4205 36.6236 36.6028C38.9516 36.8936 41.1522 37.3478 43.4257 37.7657C45.6991 38.1836 47.9179 38.7105 50.1368 39.292C52.4704 39.7384 54.6065 40.9007 56.2478 42.617L60.2308 46.5962Z" fill="white"/>
<path d="M38.8252 54.1183L35.9334 59.5692V59.3693L36.3699 60.1143C36.4156 60.2808 36.4156 60.4565 36.3699 60.6231C36.344 60.7317 36.2874 60.8306 36.2068 60.9079C36.1261 60.9852 36.0249 61.0377 35.9152 61.0591C35.6123 61.0585 35.3114 61.0094 35.0241 60.9138C34.9331 60.9138 34.7694 60.9138 34.8604 60.9138C34.9513 60.9138 34.8604 60.9138 34.8604 61.0955C34.7923 61.3831 34.6688 61.6546 34.4966 61.8949V62.0221H33.2599L33.369 62.0585L30.6409 64.2207C30.1732 64.6118 29.6744 64.9643 29.1495 65.2745C28.6556 65.5399 28.176 65.831 27.7127 66.1467L27.0944 66.5464V64.5296L27.8037 64.8385L26.9852 65.6924L26.7124 65.965L26.4214 65.6924L25.4757 64.8748L26.0941 64.6931L25.7485 65.5289L25.4757 66.2194L25.0756 65.6924C24.6747 65.1857 24.3101 64.6514 23.9843 64.0935C23.5813 63.482 23.326 62.7854 23.2386 62.0585L23.7661 62.4582C23.4119 62.5217 23.0467 62.464 22.7294 62.2947C22.4958 62.112 22.2824 61.9049 22.0928 61.6769L21.1107 60.5867L20.9834 60.4414V58.8788L21.1107 58.7697L22.2201 57.7704H22.3111H22.4566L24.439 57.4797L24.0934 57.7704L25.1301 53.5732L25.2574 50.1573V49.8847H25.5302C28.6767 49.8847 31.8413 49.8847 35.0059 49.8847C31.8413 50.1027 28.6948 50.3571 25.5484 50.5206L25.8212 50.2481V53.7367L24.8755 57.9521V58.2246H24.6027L22.6384 58.5517L22.8021 58.4245L21.6927 59.4239L21.8382 59.115V60.3142L21.7291 60.0598L22.7658 61.1682C22.8917 61.3258 23.0318 61.4718 23.1841 61.6042C23.315 61.6406 23.4533 61.6406 23.5842 61.6042L24.0571 61.5134V62.004C24.1727 62.5534 24.3885 63.0769 24.6936 63.5484C24.9932 64.0669 25.3274 64.5647 25.6939 65.0383L24.9482 65.1473L25.2938 64.3115L25.603 63.8755L26.0577 64.2934L26.9852 65.1292H26.4032L27.2762 64.3115L27.9128 63.5666V65.6924L27.2944 65.3472C27.8037 65.0383 28.2583 64.7294 28.8403 64.4387C29.3155 64.1544 29.7712 63.8388 30.2044 63.4939L33.0053 61.4407H33.0962H34.1874L33.951 61.5497C34.08 61.367 34.1783 61.1645 34.242 60.9501C34.242 60.9501 34.242 60.6957 34.5148 60.4232C34.6063 60.3821 34.7055 60.3608 34.8058 60.3608C34.9061 60.3608 35.0053 60.3821 35.0968 60.4232C35.3005 60.5033 35.5151 60.5523 35.7334 60.5686C35.7334 60.5686 35.8607 60.4595 35.8243 60.2415L35.4424 59.4784V59.3693L38.8252 54.1183Z" fill="white"/>
<path d="M32.6227 47.5226C31.1177 48.5444 29.5437 49.4611 27.9122 50.2662L27.6576 49.3396C29.0398 49.2305 30.4402 49.1579 31.8407 49.176C32.7864 48.958 33.7503 48.7763 34.7325 48.6491C33.8572 49.0857 32.9586 49.4739 32.0407 49.812C30.6403 50.0118 29.2581 50.139 27.8576 50.2117L25.4023 50.3389L27.6394 49.3759C29.2556 48.6437 30.9207 48.0244 32.6227 47.5226Z" fill="white"/>
<path d="M23.4201 51.4835C22.9286 51.1185 22.3211 50.9442 21.7105 50.993C21.0938 50.9891 20.4802 51.081 19.8918 51.2655C19.3098 51.429 18.7096 51.5926 18.0731 51.7924C17.9276 51.7924 17.7639 51.7924 17.7821 51.9015C17.8002 52.0105 17.7821 51.9015 17.7821 51.9015C17.7821 51.9015 17.9821 52.065 18.2549 52.2103C19.1702 52.9226 20.2957 53.3123 21.4559 53.3187C22.0561 53.3187 22.8018 53.3187 23.2746 53.2278C23.5354 53.1303 23.7626 52.96 23.9294 52.7373C23.9922 52.6069 24.0249 52.4641 24.0249 52.3194C24.0249 52.1747 23.9922 52.0318 23.9294 51.9015C24.0446 52.0266 24.1252 52.1794 24.1635 52.3451C24.2018 52.5107 24.1963 52.6834 24.1476 52.8463C24.0124 53.1717 23.7766 53.4454 23.4747 53.6276C22.729 53.8638 22.1834 53.8638 21.565 54.0092C21.2219 54.0668 20.8715 54.0668 20.5284 54.0092C20.1873 53.9671 19.8519 53.8879 19.528 53.7729C18.8984 53.5336 18.2901 53.2418 17.7093 52.9008L17.291 52.6282C17.1303 52.4588 17.0283 52.2422 17 52.0105C17 51.1928 17.7457 51.0293 17.9457 50.9748C18.5418 50.799 19.1496 50.6654 19.7645 50.5751C20.3988 50.3787 21.0748 50.3596 21.7192 50.5197C22.3636 50.6799 22.9519 51.0132 23.4201 51.4835Z" fill="white"/>
<path d="M23.9657 53.3004C24.3695 53.1419 24.7908 53.0321 25.2206 52.9733L24.875 53.2822C24.7927 52.5942 24.7927 51.8989 24.875 51.2109L25.2933 51.6651C24.6657 51.5842 24.0531 51.4129 23.4746 51.1564C24.0859 50.9169 24.7296 50.77 25.3843 50.7203H25.8208V51.229C25.8118 51.9218 25.7202 52.6111 25.548 53.2822V53.6274H25.3115C24.8524 53.5675 24.4011 53.4579 23.9657 53.3004Z" fill="white"/>
<path d="M85.8027 26.6816L86.2756 26.8088C86.4393 27.8444 86.512 28.862 86.5848 29.8976L86.1119 29.6069C86.3579 29.5133 86.6298 29.5133 86.8758 29.6069C87.0056 29.662 87.1209 29.7464 87.2124 29.8537C87.304 29.9609 87.3693 30.0879 87.4032 30.2247C87.4752 30.5784 87.4752 30.943 87.4032 31.2967V31.0242C88.0167 32.2038 88.5632 33.4171 89.0401 34.6581C89.0401 34.8035 89.222 34.9488 89.3129 35.0942L89.4402 35.2759C89.4402 35.2759 89.4402 35.2759 89.6039 35.2759C89.9494 35.4213 90.295 35.5484 90.6224 35.712L89.5311 35.6211C89.422 35.6211 89.3856 35.6211 89.1856 35.5303C89.09 35.4785 89.0039 35.4109 88.931 35.3304C88.8 35.1934 88.6785 35.0477 88.5672 34.8943C87.8543 33.7842 87.2104 32.6313 86.6394 31.4421V31.3149V31.1695C86.675 30.9347 86.675 30.6958 86.6394 30.4609H86.5302L85.93 30.6608V30.0975C85.93 29.0618 86.0755 28.0443 86.2392 27.0086L85.8027 26.6816Z" fill="white"/>
<path d="M65.4149 81.5183C65.4336 82.6193 65.2101 83.711 64.7601 84.7162C64.5678 85.2622 64.2282 85.7445 63.7789 86.11C63.3297 86.4755 62.7881 86.71 62.2139 86.7876C61.6116 86.7589 61.0291 86.5636 60.5313 86.2235C60.0335 85.8834 59.6401 85.4119 59.3949 84.8616C58.8476 83.8326 58.5663 82.6834 58.5764 81.5183C58.5688 80.3499 58.8433 79.1968 59.3767 78.1569C59.63 77.6088 60.028 77.1399 60.5278 76.8006C61.0276 76.4613 61.6105 76.2644 62.2139 76.2309C62.7867 76.3124 63.3264 76.5483 63.775 76.9132C64.2237 77.2782 64.5643 77.7584 64.7601 78.3023C65.2098 79.314 65.4333 80.4115 65.4149 81.5183ZM65.4149 81.5183C65.415 80.4362 65.1529 79.3702 64.651 78.4113C64.4371 77.9348 64.097 77.5257 63.6676 77.2279C63.2382 76.9301 62.7356 76.7551 62.2139 76.7215C61.7295 76.8077 61.2768 77.0216 60.9027 77.341C60.5287 77.6604 60.2467 78.0738 60.086 78.5385C59.6683 79.4817 59.4633 80.5053 59.4858 81.5365C59.463 82.5619 59.668 83.5796 60.086 84.5163C60.2398 84.985 60.5196 85.4024 60.8949 85.7229C61.2702 86.0434 61.7265 86.2545 62.2139 86.3333C62.7336 86.3014 63.2349 86.129 63.6641 85.8346C64.0934 85.5402 64.4345 85.1348 64.651 84.6617C65.1572 83.6914 65.4194 82.6125 65.4149 81.5183Z" fill="white"/>
<path d="M60.6494 76.4492L62.3408 75.25H62.4682H63.3957H63.2684L65.1963 73.9236H65.3054C66.3966 73.7419 67.4879 73.5965 68.5791 73.4512H68.8337L68.9792 73.6692C69.8532 74.8911 70.8396 76.0286 71.9256 77.067C73.0896 78.0663 74.2172 79.1202 75.3266 80.174C75.945 81.1188 76.5088 81.991 77.0544 83.0085C76.3088 82.1727 75.6176 81.3369 74.9265 80.5011C73.708 79.5562 72.4894 78.6841 71.289 77.6484C70.1096 76.6004 69.065 75.4103 68.179 74.1053L68.5973 74.287C67.4879 74.396 66.3966 74.505 65.2872 74.5777H65.4327L63.3957 75.7224H62.4682H62.5591C61.9771 75.8496 61.3587 76.1766 60.6494 76.4492Z" fill="white"/>
<path d="M64.2875 75.668C65.6004 76.2048 66.691 77.1725 67.3793 78.4117C68.08 79.7052 68.3476 81.1888 68.1432 82.6452C68.0934 84.1323 67.5202 85.5542 66.5245 86.6608C65.9455 87.1473 65.2382 87.4565 64.4876 87.5511C63.8215 87.7107 63.1252 87.6919 62.4688 87.4966C63.1479 87.571 63.835 87.4774 64.4694 87.224C65.0925 87.0807 65.6571 86.7511 66.088 86.2792C66.8523 85.2187 67.2772 83.9517 67.3066 82.6452C67.49 81.348 67.3269 80.0254 66.8337 78.8114C66.2758 77.5585 65.3976 76.4744 64.2875 75.668Z" fill="white"/>
<path d="M67.2695 76.5941C69.5855 77.8975 71.7718 79.4185 73.7988 81.1365C74.4428 81.6557 74.9228 82.3498 75.181 83.1352C75.4246 83.873 75.4809 84.6597 75.3447 85.4246C75.222 84.7028 74.9889 84.0042 74.6536 83.3532C74.3442 82.769 73.9095 82.2602 73.3805 81.8633C71.1782 80.3078 69.1317 78.5432 67.2695 76.5941Z" fill="white"/>
<path d="M92.7687 85.8427C92.6382 85.5769 92.5228 85.3039 92.4232 85.0251C91.6749 84.4408 90.9754 83.7967 90.3316 83.0991H91.0591C90.7317 83.6442 90.4044 84.1893 90.0406 84.698V84.48C90.007 85.2859 89.9097 86.0879 89.7496 86.8784C89.5369 86.1102 89.3849 85.3265 89.2949 84.5345V84.4073C89.5677 83.8441 89.8769 83.299 90.2043 82.7539L90.5317 82.2451L90.9318 82.6812C91.5574 83.3883 92.1289 84.1415 92.6414 84.9342V85.0251C92.699 85.2951 92.7415 85.568 92.7687 85.8427Z" fill="white"/>
<path d="M84.9484 98.6342C82.766 96.8172 80.638 95.0002 78.4919 93.2922C77.3516 92.4241 76.3305 91.41 75.4546 90.276C74.585 89.1272 73.8067 87.9122 73.1266 86.6421L73.4358 86.951C72.09 86.3695 70.7441 85.8063 69.4164 85.134L70.5077 84.6434L69.3982 88.5499V88.6589L68.7617 89.7855L68.5798 90.0762L68.2342 90.1852L64.233 91.3662H64.0148C64.0148 91.3662 63.7965 91.3662 63.7965 91.4752C63.7965 91.5843 63.7965 91.6388 63.7965 91.984C63.7965 92.6199 63.7965 92.5836 64.233 92.7653C65.4516 93.2377 66.8338 93.6556 68.1615 94.0735H68.2888L68.4343 94.1825C69.0199 94.4062 69.6675 94.4062 70.253 94.1825C70.5978 94.0647 70.9664 94.0335 71.3261 94.0917C71.6138 94.1442 71.8945 94.2296 72.1627 94.3461C72.5923 94.5419 73.0111 94.7603 73.4176 95.0002L78.2737 97.7075L77.9463 97.5985C82.093 97.9982 86.2397 98.2889 90.3865 98.7613H90.2046L93.1509 97.0897V97.2169L93.3874 95.0547V97.6348L90.6047 99.5972H90.4956C86.3307 99.5972 82.1658 99.3791 78.0009 99.2701H77.8736L77.6917 99.1792L72.8538 96.7082C72.09 96.3084 71.0351 95.8178 70.926 96.054C70.3991 96.2326 69.8453 96.3186 69.2891 96.3084C68.6438 96.2999 68.0138 96.1111 67.4704 95.7633L67.7614 95.9087C66.3791 95.4908 65.0696 95.1092 63.6692 94.5823C63.4232 94.5015 63.1904 94.3852 62.9781 94.2371C62.7385 94.0568 62.5401 93.8277 62.3961 93.5648C62.1743 93.1008 62.0742 92.5881 62.1051 92.0749C62.0961 91.5424 62.2413 91.0186 62.5234 90.5668C62.7107 90.3168 62.9517 90.112 63.2287 89.9674C63.5057 89.8227 63.8116 89.7419 64.1239 89.7309H63.9057L67.9432 88.6044L67.434 89.0042L68.1069 87.8776V88.0775L69.3255 84.1892L69.5983 83.2988L70.4167 83.6986C71.7262 84.3163 73.0357 84.9886 74.3452 85.6427L74.5816 85.7518L74.6726 85.9516C75.253 87.212 75.9279 88.4268 76.6914 89.5856C77.4745 90.6981 78.3838 91.7163 79.4013 92.6199C81.0382 94.6368 83.0388 96.581 84.9484 98.6342Z" fill="white"/>
<path d="M92.078 89.5859C91.6233 89.2406 91.2414 88.8591 90.8231 88.4775L90.2411 87.8779C90.1225 87.7686 90.024 87.6395 89.9501 87.4963C90.1319 87.7144 89.9501 87.4963 89.8409 87.6054C88.8043 87.6054 87.6767 87.8416 86.6036 87.9687C85.5305 88.0959 84.4211 88.205 83.3117 88.2231C82.2032 88.2866 81.0919 88.2866 79.9834 88.2231C82.1325 87.7038 84.3137 87.3275 86.5127 87.0966C87.6222 86.9559 88.7415 86.9073 89.8591 86.9512H90.1138H90.2774C90.3806 87.0011 90.4639 87.0844 90.5139 87.1875L90.6958 87.4782L91.1504 88.1504C91.4596 88.6592 91.787 89.1134 92.078 89.5859Z" fill="white"/>
<path d="M84.2932 72.4695C84.9217 73.212 85.3582 74.0974 85.5643 75.0478C85.7704 75.9982 85.7399 76.9846 85.4754 77.9204C85.0788 79.8471 84.3528 81.6911 83.3293 83.3714C82.3984 85.0779 81.2624 86.6643 79.9464 88.0955C79.3098 88.8041 78.4732 89.4401 78.4187 90.1124C78.4036 90.274 78.3669 90.4329 78.3095 90.5848C78.2515 90.7261 78.1493 90.8449 78.0182 90.9234C77.8872 91.002 77.7342 91.0362 77.582 91.0208C77.2653 90.9261 76.9858 90.7357 76.7818 90.4758C76.4411 90.0972 76.1423 89.6829 75.8906 89.2402L75.7451 89.0222L75.8906 88.8223C77 87.1689 78.1095 85.5154 79.328 83.971C80.5399 82.3943 81.5938 80.7024 82.4744 78.9198C81.8297 80.8018 80.9302 82.5869 79.8009 84.2253C78.6733 85.8606 77.7094 87.5868 76.5999 89.222V88.786C76.8309 89.1743 77.0989 89.5394 77.4002 89.8762C77.4966 89.9812 77.6067 90.0728 77.7275 90.1487C77.7275 90.1487 77.5093 90.2759 77.5457 90.1487C77.582 90.0215 77.5457 90.0215 77.5457 89.9307C77.6277 89.3669 77.8891 88.8445 78.2914 88.4407C78.6187 88.0592 78.9461 87.7139 79.2735 87.3869C80.5715 86.0292 81.6956 84.5155 82.6199 82.8808C83.6369 81.3057 84.421 79.5922 84.9479 77.7932C85.2503 76.9144 85.3485 75.9783 85.2351 75.0559C85.1216 74.1335 84.7995 73.2491 84.2932 72.4695Z" fill="white"/>
<path d="M104.499 58.5698C103.989 59.2176 103.43 59.825 102.826 60.3868C102.244 60.9682 101.626 61.4952 101.007 62.0221L101.171 61.7314C100.958 63.2363 100.593 64.7157 100.08 66.1466C99.9818 64.6297 100.049 63.1066 100.28 61.6042V61.4407L100.425 61.3316C101.046 60.7993 101.696 60.3019 102.371 59.8417C103.049 59.3666 103.76 58.9415 104.499 58.5698Z" fill="white"/>
<path d="M97.0241 71.7794C95.0148 72.2639 92.9722 72.598 90.9131 72.7787C88.8579 72.9786 86.8028 73.0331 84.7476 73.0513H83.4199L83.911 71.8702C84.9128 69.4118 86.13 67.0466 87.5485 64.8022C87.1379 67.409 86.4989 69.9747 85.6388 72.4698L84.784 71.307C86.821 71.1434 88.8761 71.1434 90.9313 71.1434C92.9751 71.2055 95.0116 71.4181 97.0241 71.7794Z" fill="white"/>
<path d="M102.28 70.9073L101.153 68.5634L101.371 68.6724L96.8242 70.4894L97.1152 69.9261L98.1337 72.7788L97.9518 72.5244L98.5884 72.9968L98.7157 73.0876V73.2693C101.917 81.8273 104.79 90.4761 107.537 99.1795L106.463 98.6707C107.828 98.1983 109.192 97.7077 110.556 97.2898L110.119 98.2165L107.718 90.8214C106.973 88.3321 106.191 85.861 105.5 83.3536C106.591 85.7156 107.573 88.1141 108.591 90.4943L111.501 97.7622L111.756 98.3982L111.065 98.6889C109.719 99.234 108.373 99.7246 107.027 100.251L106.245 100.542L106.118 99.6155C103.135 91.0031 100.298 82.3361 97.7699 73.5601L97.9518 73.8326L97.3516 73.3238L97.2061 73.1967V73.0513L96.3695 70.126L96.2422 69.6717L96.6787 69.5627L101.389 68.3271H101.571V68.4725L102.28 70.9073Z" fill="white"/>
<path d="M89.4037 83.3536C89.0581 82.1907 88.8035 81.0823 88.4397 80.0285C88.1031 78.9452 87.5664 77.9345 86.8574 77.0486C87.4449 77.2769 87.971 77.6387 88.394 78.1055C88.8171 78.5723 89.1254 79.1312 89.2945 79.7378C89.7026 80.9031 89.7408 82.1658 89.4037 83.3536Z" fill="white"/>
<path d="M107.209 86.5695C108.136 85.8609 109.238 85.4172 110.398 85.286C111.558 85.1548 112.731 85.3409 113.793 85.8246C115.921 86.8951 117.593 88.6943 118.504 90.8939C119.458 93.0577 119.871 95.4215 119.704 97.7803C119.578 100.151 118.852 102.452 117.594 104.467C116.954 105.515 116.095 106.412 115.074 107.096C114.054 107.78 112.897 108.234 111.683 108.428C110.457 108.544 109.22 108.352 108.086 107.87C106.952 107.387 105.957 106.63 105.19 105.666C103.758 103.835 102.815 101.671 102.449 99.3765C102.083 97.0819 102.307 94.7321 103.099 92.5474C102.617 94.7379 102.617 97.007 103.099 99.1975C103.514 101.343 104.508 103.334 105.973 104.957C106.657 105.754 107.523 106.373 108.499 106.762C109.474 107.151 110.529 107.299 111.574 107.192C112.596 107.006 113.566 106.599 114.414 106C115.262 105.4 115.969 104.623 116.485 103.722C117.626 101.883 118.319 99.802 118.509 97.6466C118.698 95.4912 118.379 93.3214 117.576 91.3119C116.861 89.2513 115.428 87.5164 113.538 86.4242C112.572 85.9071 111.488 85.6503 110.392 85.6792C109.274 85.7123 108.182 86.0179 107.209 86.5695Z" fill="white"/>
<path d="M108.664 75.4315C110.694 74.8772 112.842 74.9214 114.848 75.5587C116.878 76.2067 118.74 77.2921 120.304 78.7384C123.331 81.6895 125.511 85.3978 126.615 89.4768C127.766 93.5601 128.008 97.8454 127.324 102.032C126.724 106.274 124.817 110.223 121.868 113.334C120.331 114.86 118.407 115.941 116.303 116.459C114.185 116.958 111.967 116.832 109.919 116.096C105.946 114.471 102.71 111.445 100.825 107.592C98.8399 103.89 97.7379 99.7787 97.6054 95.5804C97.4728 91.3821 98.3134 87.21 100.061 83.3899C98.4137 87.2057 97.7268 91.3668 98.0609 95.5092C98.2978 99.6306 99.4536 103.647 101.444 107.265C103.297 110.918 106.411 113.777 110.21 115.314C112.11 115.979 114.162 116.086 116.121 115.623C118.067 115.114 119.843 114.099 121.268 112.68C124.075 109.707 125.904 105.947 126.506 101.905C127.147 97.842 126.937 93.6903 125.888 89.713C124.875 85.7158 122.816 82.0598 119.922 79.12C118.468 77.6558 116.712 76.5271 114.775 75.8131C112.818 75.0967 110.695 74.9641 108.664 75.4315Z" fill="white"/>
<path d="M126.833 76.2672C130.306 79.6341 132.898 83.8021 134.381 88.4046C135.876 93.0455 136.347 97.9548 135.763 102.795C135.21 107.708 133.274 112.364 130.18 116.223C128.6 118.18 126.633 119.79 124.401 120.953C122.17 122.116 119.723 122.807 117.212 122.982C112.16 123.066 107.27 121.205 103.553 117.785C99.8716 114.506 97.1021 110.331 95.5145 105.666C93.8613 101.079 93.2403 96.184 93.6957 91.3299C94.1666 86.4886 95.9457 81.8662 98.8428 77.9569C96.3259 82.0001 94.9033 86.6269 94.7142 91.3844C94.4246 96.0839 95.1631 100.79 96.8785 105.175C98.4916 109.548 101.152 113.459 104.626 116.568C108.056 119.647 112.529 121.31 117.139 121.219C119.41 121.081 121.627 120.476 123.652 119.441C125.677 118.406 127.466 116.964 128.907 115.205C130.394 113.426 131.619 111.444 132.544 109.318C133.388 107.161 133.998 104.919 134.363 102.632C135.065 97.9769 134.767 93.2262 133.49 88.6953C132.279 84.0878 129.998 79.83 126.833 76.2672Z" fill="white"/>
<path d="M122.996 110.499C121.634 111.841 119.959 112.821 118.122 113.352C116.703 113.793 115.205 113.915 113.734 113.711C112.262 113.507 110.854 112.981 109.61 112.171C108.794 111.628 108.07 110.959 107.464 110.19C106.247 108.715 105.415 106.96 105.045 105.084C105.88 106.706 106.959 108.189 108.246 109.482C109.475 110.721 111.004 111.622 112.684 112.098C114.368 112.586 116.145 112.667 117.867 112.334C119.662 111.993 121.392 111.374 122.996 110.499Z" fill="white"/>
<path d="M73.6897 97.5802C72.1074 97.7074 70.5251 97.7983 68.9428 97.8709C66.1965 97.6892 63.4866 97.4167 60.7039 97.1442C57.9213 96.8716 55.2477 96.7262 52.3923 96.2175C51.6479 96.0751 50.9219 95.8496 50.228 95.5452L49.9006 95.3635L49.7369 95.2363C49.6269 95.1715 49.5113 95.1167 49.3914 95.0728C49.1186 94.9274 48.8094 94.8002 48.5002 94.6731C47.2635 94.1825 45.954 93.7464 44.6627 93.3285C42.0255 92.4382 39.4793 91.4025 36.8785 90.4395H36.733L36.6057 90.3305L34.4777 88.5135L32.2225 86.2968C30.7675 84.9159 29.3489 83.4623 27.9121 82.045C25.0567 79.2287 22.274 76.3579 19.5459 73.4507L19.6368 72.2515V73.4507C22.7105 75.8673 25.7114 78.4111 28.6396 81.0457C30.1128 82.3539 31.5859 83.6258 33.0409 84.9704L35.187 86.9509L37.6242 88.9314L37.3513 88.7679L45.0992 91.5842C46.4268 92.0384 47.7181 92.4927 49.0458 93.0196L50.0461 93.4739C50.2464 93.5601 50.4357 93.6699 50.6099 93.8009L50.81 93.9463H50.9373C51.5188 94.2103 52.1292 94.4054 52.756 94.5277C54.0292 94.8548 55.3932 94.9819 56.7755 95.2182L60.8494 95.8723C63.5775 96.2902 66.3056 96.7262 69.0156 97.235L73.6897 97.5802Z" fill="white"/>
<path d="M48.2458 90.2217L48.8278 92.0387L48.9187 92.2931H48.6459C44.2264 90.8032 39.825 89.2042 35.4237 87.6598L27.0393 79.4652L18.8186 71.3797L18.6367 71.1434V70.9072C19.0498 69.6435 19.7324 68.4842 20.6373 67.5095C21.1089 66.9849 21.6962 66.5771 22.3528 66.3185C23.0094 66.0599 23.7173 65.9575 24.4203 66.0196C25.1596 66.0926 25.846 66.4355 26.3482 66.9826C26.5162 67.2387 26.7181 67.4709 26.9483 67.673L27.6395 68.3453L30.3676 70.9799L41.28 81.5729L46.7362 85.5339L41.1891 81.9C37.2788 78.4114 33.5686 74.8682 29.731 71.4523L27.0211 68.8359L26.33 68.1636C26.0912 67.9459 25.8777 67.7021 25.6934 67.4368C25.3155 67.0515 24.8126 66.8132 24.2748 66.7645C23.7051 66.7238 23.1334 66.8108 22.6016 67.0189C22.068 67.2378 21.5942 67.5804 21.2193 68.0182C20.448 68.9282 19.8834 69.9944 19.5643 71.1434L19.437 70.7074L27.6395 78.8293L35.7874 86.9693H35.6601C40.0251 88.641 44.4082 90.2762 48.7368 92.0024L48.555 92.1659L48.2458 90.2217Z" fill="white"/>
<path d="M31.5498 72.5974C32.1187 70.8744 33.2781 69.4074 34.8235 68.4547C35.6182 67.9849 36.5057 67.6935 37.4243 67.6007C38.3264 67.5558 39.2306 67.6229 40.1161 67.8005C41.8636 68.2254 43.4037 69.2555 44.4628 70.7077C45.5017 72.1062 46.3177 73.6569 46.8818 75.3047C46.232 73.7212 45.3559 72.2401 44.281 70.9076C43.2045 69.5949 41.719 68.6801 40.0615 68.3093C38.4273 68.0441 36.7519 68.366 35.3328 69.2178C33.8858 70.1175 32.6059 71.261 31.5498 72.5974Z" fill="white"/>
<path d="M48.0277 94.655C46.919 97.4134 44.789 99.6389 42.0804 100.869C40.6563 101.39 39.1047 101.454 37.6427 101.051C36.1928 100.618 34.8737 99.8315 33.8051 98.7613C31.7376 96.6342 30.264 94.0031 29.5311 91.13C29.1309 89.7094 28.857 88.2562 28.7127 86.7874C28.7127 86.0606 28.6036 85.3157 28.6036 84.5889C28.5435 83.8293 28.7146 83.0692 29.0946 82.4085C29.4163 83.0815 29.5543 83.8273 29.4947 84.5707C29.4947 85.2793 29.4947 86.0061 29.4947 86.7147C29.6162 88.1334 29.8657 89.5382 30.2404 90.912C30.9151 93.676 32.2862 96.2217 34.2235 98.3071C35.1876 99.3254 36.3864 100.093 37.7154 100.542C39.057 100.978 40.5024 100.978 41.844 100.542C44.5765 99.4319 46.7862 97.3282 48.0277 94.655Z" fill="white"/>
<path d="M29.04 70.3623C30.0298 67.1368 32.2336 64.4206 35.1874 62.7855C36.6834 61.9708 38.3422 61.4991 40.0434 61.4046C41.7073 61.2886 43.3718 61.6212 44.8631 62.3676C41.8012 62.2421 38.7615 62.9386 36.0604 64.3845C33.3955 65.9616 31.021 67.9835 29.04 70.3623Z" fill="white"/>
<path d="M56.5215 96.5814C55.7704 98.5738 54.6746 100.419 53.2841 102.032C51.8272 103.732 49.9889 105.065 47.9189 105.921C45.7969 106.705 43.4974 106.882 41.2805 106.429C39.0587 105.964 36.9739 104.994 35.1877 103.595C31.792 100.784 29.3102 97.0267 28.0582 92.8021C26.7514 88.6945 26.4336 84.3367 27.1307 80.0832C27.1204 82.1815 27.3215 84.2755 27.7309 86.3336C28.0594 88.3754 28.6145 90.3743 29.3859 92.2933C30.7898 96.1172 33.1728 99.5065 36.2971 102.123C37.813 103.399 39.6166 104.287 41.5525 104.711C43.4884 105.135 45.4985 105.083 47.4096 104.558C51.3422 103.137 54.5952 100.29 56.5215 96.5814Z" fill="white"/>
<path d="M43.0443 70.3619C41.4387 70.2511 39.8445 70.7007 38.5338 71.6337C37.9206 72.1342 37.4135 72.7519 37.0424 73.4507C36.6431 74.1758 36.2966 74.9288 36.0058 75.7038C35.9785 75.2742 35.9785 74.8433 36.0058 74.4137C36.0954 73.9832 36.2108 73.5585 36.3513 73.1418C36.6648 72.2866 37.2056 71.5329 37.9154 70.9615C38.6318 70.3855 39.5079 70.043 40.4253 69.9803C41.3167 69.8755 42.22 70.0071 43.0443 70.3619Z" fill="white"/>
<path d="M45.4996 97.9798C44.4332 98.3314 43.2748 98.2797 42.2441 97.8344C41.2022 97.4049 40.2745 96.7393 39.5341 95.8903C38.7978 95.0688 38.1851 94.1446 37.7154 93.1466C37.5153 92.6561 37.2789 92.1655 37.097 91.6567C36.9151 91.148 36.7878 90.621 36.6787 90.0941L38.3156 92.8196C38.8564 93.6837 39.4645 94.5038 40.1343 95.2725C40.7973 96.0397 41.5842 96.6907 42.4623 97.1985C43.3895 97.7185 44.4364 97.9878 45.4996 97.9798Z" fill="white"/>
<path d="M53.8481 81.0464C53.157 79.9562 52.4841 78.866 51.8657 77.7576L51.9748 77.8666C50.7381 77.267 49.4831 76.6674 48.3373 76.0497H48.5374C48.301 76.0497 48.1191 76.195 48.1918 76.1587C48.2646 76.1223 48.301 76.6129 48.3737 76.8855L48.883 78.7024C49.2103 79.9743 49.5195 81.228 49.8105 82.4999L49.6105 82.2456C50.5744 82.7907 51.5201 83.3903 52.4659 83.9717C52.7205 84.0989 52.9206 84.2806 53.0842 84.3351C53.2479 84.3896 53.2843 84.3351 53.3389 84.0262V82.4091L53.8117 81.9912L53.4298 82.4999C53.4298 83.0632 53.5389 83.5901 53.5753 84.1716C53.5813 84.3439 53.5371 84.5144 53.448 84.6621C53.3872 84.7566 53.2986 84.83 53.1944 84.8723C53.0903 84.9146 52.9755 84.9237 52.866 84.8983C52.5721 84.807 52.291 84.6788 52.0294 84.5168C51.0473 84.0262 50.0651 83.572 49.1194 83.0632L48.9557 82.9723V82.7907C48.592 81.5551 48.2646 80.3196 47.919 79.1567L47.4462 77.3397C47.3273 76.9629 47.26 76.5717 47.2461 76.1768C47.2739 76.0283 47.3383 75.889 47.4336 75.7716C47.5289 75.6542 47.652 75.5624 47.7917 75.5046C47.9992 75.4187 48.2219 75.3754 48.4465 75.3774H48.5556H48.6465C49.8469 76.0497 51.0291 76.7765 52.284 77.4851C52.866 78.6661 53.3752 79.8471 53.8481 81.0464Z" fill="white"/>
<path d="M54.2655 81.2274L55.1022 80.973C55.9024 83.8075 56.6299 86.6602 57.321 89.531V89.8399L57.0118 89.9671L54.702 90.8937H54.5929C51.5374 90.7847 48.4638 90.603 45.4083 90.385H45.0627V90.0579L44.8809 88.2409V88.1319L45.1355 87.0236V86.751H45.3901C47.2088 86.751 49.1731 86.751 51.0646 86.751C51.3741 86.5676 51.7312 86.4801 52.0905 86.4995C52.4499 86.5189 52.7954 86.6444 53.0834 86.86C52.8008 86.705 52.4801 86.633 52.1582 86.6523C51.8364 86.6716 51.5267 86.7814 51.2646 86.9691C49.4459 87.1689 47.518 87.3143 45.6265 87.4596L45.9539 87.1871L45.772 88.3136V88.1864L46.0085 90.0034L45.6265 89.6582C48.7002 89.7672 51.7557 89.8944 54.8294 90.1124H54.6475L56.8663 89.313L56.6299 89.7672C56.0661 86.8782 55.5205 83.9892 55.0658 81.0639L54.2655 81.2274Z" fill="white"/>
<path d="M88.1304 72.9602C87.802 75.1739 87.3342 77.3646 86.73 79.5195C86.4208 80.5915 86.0934 81.6454 85.7478 82.7174C85.4023 83.7894 85.0204 84.8251 84.5839 85.8608V85.7336C84.8001 86.0065 85.0005 86.2916 85.184 86.5876C84.9112 86.3695 84.6384 86.1515 84.3838 85.9153V85.8244C84.5475 84.7161 84.8203 83.6259 85.0385 82.5357C85.2568 81.4455 85.6023 80.3735 85.9115 79.3015C86.5059 77.1397 87.2472 75.0211 88.1304 72.9602Z" fill="white"/>
<path d="M103.954 20.6859C103.826 20.1045 103.699 19.5049 103.59 18.8689C103.772 18.2148 103.954 17.5425 104.172 16.8884C104.39 16.2343 104.754 15.6529 105.045 15.0714C105.527 14.7177 106.069 14.4531 106.645 14.2901C107.183 14.1095 107.738 13.9817 108.3 13.9086C109.41 13.745 110.519 13.6542 111.629 13.5997H111.811L111.938 13.7087L112.52 14.2356L112.72 14.4173V14.6899L111.974 17.5425V17.6334C111.047 18.7417 110.155 19.8319 109.119 20.9221C108.555 21.3025 107.943 21.6079 107.3 21.8306C107.116 21.8856 106.92 21.8856 106.736 21.8306L106.282 21.7397L105.318 21.5035H106.3C106.664 21.5035 106.955 21.6126 107.191 21.5035C107.751 21.2033 108.281 20.8505 108.773 20.4497C109.646 19.2868 110.483 18.1058 111.392 16.9793L111.301 17.1246L111.883 14.3265L112.011 14.7625L111.429 14.2538L111.756 14.3628C110.665 14.3628 109.573 14.4718 108.519 14.599C107.991 14.6574 107.468 14.7545 106.955 14.8897C106.466 15.0188 105.996 15.208 105.554 15.453L105.645 15.344C105.299 15.9254 104.954 16.5068 104.627 17.161C104.299 17.8151 104.117 18.3965 103.863 18.9779C103.899 19.4867 103.935 20.0863 103.954 20.6859Z" fill="white"/>
<path d="M72.0896 17.8332C71.4531 16.9065 70.8529 16.0162 70.2709 15.0532C69.891 14.6945 69.4382 14.4218 68.9432 14.2537C68.7028 14.2093 68.4562 14.2093 68.2157 14.2537H67.3609C66.2151 14.2537 65.1057 14.2537 63.9781 14.1084L62.2867 13.963C61.7981 13.8924 61.302 13.8924 60.8135 13.963C60.6862 13.963 60.6862 13.963 60.668 14.1992C60.6498 14.4354 60.668 14.708 60.7771 14.9624C60.8643 15.495 60.9796 16.0227 61.1227 16.5431V16.3978C61.4682 16.8338 61.8138 17.2699 62.1775 17.6878C62.5039 18.0922 62.8695 18.4635 63.2688 18.7962C64.1781 19.4321 65.0875 20.1589 66.0151 20.8312C66.3459 21.0318 66.7202 21.1502 67.1063 21.1764C67.4882 21.1764 67.9429 21.0856 68.3612 21.0492L70.9438 20.7949L71.544 20.5041L70.9802 20.8857L68.4158 21.4308C67.9851 21.539 67.5476 21.6179 67.1063 21.667C66.6156 21.6714 66.1325 21.546 65.7059 21.3036C64.7783 20.6858 63.8871 20.1226 62.9232 19.4866C62.4361 19.1249 61.9962 18.7038 61.6137 18.2329C61.2318 17.815 60.868 17.3789 60.5043 16.9429C60.3406 16.3796 60.1951 15.8345 60.086 15.2531C60.0185 14.9548 59.9819 14.6504 59.9769 14.3446C59.9716 14.115 60.0367 13.8892 60.1635 13.6976C60.2903 13.506 60.4726 13.3577 60.6862 13.2726C61.0262 13.1849 61.3829 13.1849 61.7228 13.2726L62.5595 13.3634L64.2327 13.5451C65.3421 13.5451 66.4516 13.7631 67.561 13.8358C67.8335 13.854 68.1069 13.854 68.3794 13.8358C68.697 13.8401 69.0113 13.9016 69.307 14.0175C69.8648 14.2471 70.3626 14.6014 70.762 15.0532C71.0893 15.8345 71.5622 16.8157 72.0896 17.8332Z" fill="white"/>
<path d="M71.4531 18.9597C72.9899 19.5045 74.4507 20.2433 75.7999 21.1582C77.1612 22.039 78.4342 23.0491 79.6011 24.1744C79.7992 24.6522 79.8375 25.1812 79.7102 25.6825C79.5799 25.2489 79.3422 24.8552 79.0191 24.5378H79.11C77.647 23.8504 76.2576 23.0164 74.9633 22.0485C73.6682 21.1701 72.4889 20.1323 71.4531 18.9597Z" fill="white"/>
<path d="M106.336 19.3049C105.901 20.2924 105.352 21.2255 104.699 22.0849C104.078 22.9474 103.384 23.7558 102.626 24.5015L102.753 24.2835C102.535 25.2828 102.062 26.264 101.88 27.4087C101.62 26.8821 101.478 26.3057 101.462 25.7189C101.462 25.1374 101.462 24.5378 101.553 23.9019L101.662 23.7384C102.301 22.8848 103.007 22.0829 103.772 21.3399C104.543 20.563 105.404 19.8799 106.336 19.3049Z" fill="white"/>
<path d="M98.2978 75.3041C96.9883 78.4293 95.6243 81.4273 94.6603 84.498C94.1417 86.0335 93.7165 87.599 93.3872 89.1858C93.1144 90.7847 92.8598 92.42 92.7325 94.0371V93.8191C92.8253 93.9599 92.9287 94.0936 93.0417 94.2188C93.1378 94.3269 93.2647 94.403 93.4054 94.4369L94.5694 94.6549L93.4054 94.873C93.1576 94.8943 92.9094 94.8371 92.6961 94.7094C92.5029 94.5992 92.3203 94.4714 92.1505 94.3279V94.1643C91.8568 92.4728 91.7895 90.7497 91.9504 89.0404C92.1036 87.324 92.4701 85.6333 93.0417 84.0074C93.585 82.3687 94.311 80.7963 95.206 79.3196C96.0804 77.868 97.1177 76.5208 98.2978 75.3041Z" fill="white"/>
<path d="M56.5211 74.4321C56.7324 75.5703 56.7814 76.7325 56.6666 77.8844C56.5754 79.0435 56.3118 80.1825 55.8845 81.264C55.6795 80.125 55.6366 78.9627 55.7572 77.8117C55.849 76.6545 56.1062 75.5164 56.5211 74.4321Z" fill="white"/>
</g>
<defs>
<clipPath id="clip0_10494_13332">
<rect width="119" height="110" fill="white" transform="translate(17 13)"/>
</clipPath>
</defs>
</svg>
