<svg width="269" height="135" viewBox="0 0 269 135" fill="none" xmlns="http://www.w3.org/2000/svg">
<rect width="269" height="135" rx="10" fill="#EE3291"/>
<path d="M210.265 69.46L209.665 56.6C209.645 56.28 209.525 56.16 209.205 56.16H208.025C207.665 56.16 207.505 56.3 207.385 56.6L203.165 66.48H203.125L198.505 56.6C198.365 56.3 198.225 56.16 197.825 56.16H196.645C196.325 56.16 196.185 56.28 196.165 56.7L195.665 69.48C195.645 69.86 195.805 70 196.185 70H197.545C197.905 70 198.085 69.94 198.085 69.5L198.265 61.22H198.305L202.085 69.62C202.225 69.94 202.405 70 202.705 70H203.405C203.625 70 203.825 69.96 203.945 69.64L207.345 61.22H207.385L207.665 69.34C207.685 69.8 207.765 70 208.185 70H209.805C210.185 70 210.285 69.8 210.265 69.46ZM222.006 65.14C222.006 62.2 220.506 60.04 217.246 60.04C214.126 60.04 212.366 62.24 212.366 65.12C212.366 68.04 213.866 70.24 217.126 70.24C220.246 70.24 222.006 68.02 222.006 65.14ZM219.506 65.14C219.506 66.78 218.906 68.34 217.146 68.34C215.366 68.34 214.866 66.72 214.866 65.08C214.866 63.48 215.446 61.94 217.226 61.94C218.986 61.94 219.506 63.5 219.506 65.14ZM233.082 65.16C233.082 63.48 232.622 61.92 231.562 60.98C230.922 60.4 230.102 60.04 229.002 60.04C227.962 60.04 227.002 60.46 226.362 61.02V56.1C226.362 55.78 226.222 55.7 226.022 55.7C225.962 55.7 225.902 55.7 225.822 55.72L224.342 55.92C224.022 55.96 223.942 56.14 223.942 56.46V69.5C223.942 69.84 224.082 70 224.422 70H225.622C225.882 70 226.042 69.94 226.062 69.76L226.142 69.1C226.702 69.72 227.782 70.24 228.682 70.24C231.662 70.24 233.082 67.92 233.082 65.16ZM230.582 65.18C230.582 66.74 230.062 68.24 228.322 68.24C227.582 68.24 226.842 67.8 226.362 67.26V62.98C226.902 62.48 227.682 62.08 228.422 62.08C230.082 62.08 230.582 63.56 230.582 65.18ZM237.735 57.76C237.735 56.96 237.075 56.5 236.395 56.5C235.695 56.5 235.035 56.98 235.035 57.78C235.035 58.58 235.735 59.02 236.395 59.02C237.055 59.02 237.735 58.54 237.735 57.76ZM237.615 69.5V60.76C237.615 60.4 237.435 60.3 237.115 60.3H235.715C235.395 60.3 235.195 60.42 235.195 60.76V69.5C235.195 69.86 235.355 70 235.715 70H237.115C237.455 70 237.615 69.86 237.615 69.5ZM242.67 69.5V56.14C242.67 55.82 242.47 55.7 242.23 55.7C242.19 55.7 242.13 55.72 242.09 55.72L240.65 55.92C240.39 55.96 240.25 56.06 240.25 56.4V69.52C240.25 69.86 240.43 70 240.71 70H242.23C242.51 70 242.67 69.84 242.67 69.5ZM212.083 89.96C212.083 87.94 210.643 86.64 208.743 86.5V86.48C210.203 86.16 211.003 84.94 211.003 83.54C211.003 81.14 209.203 80.16 205.983 80.16H202.983C202.563 80.16 202.383 80.26 202.383 80.68V93.42C202.383 93.84 202.483 94 202.903 94H206.623C209.463 94 212.083 93.2 212.083 89.96ZM208.483 83.84C208.483 85.46 207.443 85.84 205.983 85.84H204.943V82.12H206.063C207.463 82.12 208.483 82.54 208.483 83.84ZM209.463 89.88C209.463 90.84 209.003 91.46 208.303 91.76C207.803 91.96 207.123 92.02 206.423 92.02H204.943V87.66C205.123 87.66 206.123 87.66 206.263 87.66C207.103 87.66 207.783 87.72 208.403 88.02C209.043 88.34 209.463 88.94 209.463 89.88ZM223.576 93.62V92.68C223.576 92.42 223.456 92.34 223.216 92.34H223.056C222.956 92.34 222.876 92.32 222.816 92.26C222.736 92.16 222.696 91.96 222.696 91.68V84.74C222.696 84.44 222.536 84.3 222.276 84.3H220.876C220.636 84.3 220.476 84.44 220.456 84.66L220.416 85.2C219.916 84.52 218.916 84.04 217.856 84.04C215.616 84.04 213.536 85.86 213.536 89.32C213.536 91.92 214.816 94.24 217.636 94.24C218.736 94.24 220.036 93.56 220.536 92.82H220.576C220.716 93.5 221.176 94 222.216 94H223.176C223.416 94 223.576 93.86 223.576 93.62ZM220.276 90.9C219.976 91.52 219.136 92.26 218.156 92.26C216.676 92.26 216.036 90.84 216.036 89.16C216.036 87.06 217.076 86.02 218.296 86.02C219.056 86.02 219.876 86.46 220.276 87.04V90.9ZM230.789 84.38C230.789 84.22 230.729 84.16 230.589 84.12C230.409 84.08 230.189 84.04 230.029 84.04C228.909 84.04 228.229 84.54 227.609 85.32L227.589 84.68C227.589 84.4 227.409 84.3 227.089 84.3H225.809C225.509 84.3 225.309 84.4 225.309 84.8V87.26V93.5C225.309 93.84 225.469 94 225.789 94H227.249C227.589 94 227.729 93.82 227.729 93.5V87.14C228.229 86.54 228.969 86.18 229.649 86.18C229.829 86.18 230.029 86.2 230.189 86.24C230.229 86.24 230.249 86.24 230.269 86.24C230.429 86.24 230.529 86.16 230.549 85.98L230.769 84.56C230.789 84.5 230.789 84.44 230.789 84.38ZM240.823 93.44V84.76C240.823 84.4 240.643 84.3 240.323 84.3H238.903C238.583 84.3 238.403 84.42 238.403 84.76V91.14C237.803 91.68 236.843 92.1 236.083 92.1C234.883 92.1 234.603 91.34 234.603 90.24V84.76C234.603 84.4 234.423 84.3 234.103 84.3H232.703C232.383 84.3 232.183 84.42 232.183 84.76V90.66C232.183 92.82 233.103 94.24 235.343 94.24C236.503 94.24 237.603 93.84 238.523 93.1L238.543 93.6C238.563 93.86 238.763 94 239.023 94H240.303C240.703 94 240.823 93.86 240.823 93.44Z" fill="white"/>
<path d="M19.9862 42.0831H18.2767L13.7182 48.9209L11.439 54.0492L10.8691 66.5851L12.0088 68.8644L16.5673 72.8531L22.8353 76.8418L28.5334 78.5512L33.6617 80.8305H38.7901L42.209 83.1098L46.7675 84.2494L50.7562 85.9588L51.326 83.6796H49.6166L47.9071 82.5399L42.209 81.4003L39.3599 79.1211H33.6617L28.5334 76.8418L22.8353 75.1323L16.5673 71.1436L12.5786 67.1549L13.1484 55.1888L14.8578 50.0605L18.2767 44.3623L19.9862 42.0831Z" fill="white"/>
<path d="M55.3135 64.8759L54.1738 70.574L55.8833 70.0042V66.0155L57.5927 64.3061L58.1625 62.0268L60.4418 60.8872L62.1512 58.0381L64.4305 53.4796V51.7701H62.7211L62.1512 55.189L61.0116 58.0381L59.872 59.7476L57.5927 60.8872L56.4531 63.7363L55.3135 64.8759Z" fill="white"/>
<path d="M66.7098 23.8491H82.0503L81.525 24.4189H67.2796H61.0117L59.8721 24.9887L62.7211 27.268L65.0004 38.6643L65.5702 42.0831L66.7098 43.2228H72.9778L72.408 43.7926H68.4193H65.5702L64.4306 42.0831L63.8608 38.6643L61.5815 27.268L58.7324 24.9887L60.4419 23.8491H66.7098Z" fill="white"/>
<path d="M54.1733 95.0759L53.6035 97.925C58.7319 112.17 72.4074 112.74 77.5358 102.484L78.1056 100.774C71.8376 113.31 59.3017 111.031 54.1733 95.0759Z" fill="white"/>
<path d="M64.4321 67.725L64.4322 66.0156C55.8848 67.725 50.1864 79.6909 53.6053 97.925L54.1751 95.0758C53.6052 83.1094 54.1754 70.5743 64.4321 67.725Z" fill="white"/>
<path d="M60.4424 96.2157C61.7775 97.3284 64.2355 99.0916 65.5706 100.204C66.4936 101.31 65.7821 101.001 60.4423 97.3552C51.3253 76.2721 74.1179 64.8759 75.2575 89.3777L74.6877 89.9476C74.1179 71.1439 55.8838 72.2835 60.4424 96.2157Z" fill="white"/>
<path d="M95.7706 100.204C87.7932 111.601 82.095 110.461 70.1289 109.891L72.978 110.461C87.1692 114.474 91.0164 110.495 95.7706 100.204Z" fill="white"/>
<path d="M144.205 99.0647C143.977 98.7533 164.149 113.88 177.254 96.2156C172.696 109.891 151.043 108.752 144.205 99.0647Z" fill="white"/>
<path d="M66.1396 64.8754L65 67.1547L68.9887 66.5849C74.7297 67.2672 76.3074 78.3671 79.2454 97.3549C77.6322 78.9391 77.2165 67.3226 69.5585 64.8754H66.1396Z" fill="white"/>
<path d="M8.88028 80.4967L8.35942 83.3551C13.7314 97.5104 27.4147 97.8455 32.3663 87.5024L32.9067 85.7834C26.8548 98.4251 14.2816 96.3612 8.88028 80.4967Z" fill="white"/>
<path d="M13.1471 55.1888L13.7169 53.4793C7.44895 56.8983 4.62678 65.1818 8.35796 83.3546L8.87882 80.4961C8.10375 68.5412 6.8791 58.6076 13.1471 55.1888Z" fill="white"/>
<path d="M38.7827 83.2567C35.1267 93.8574 35.2033 94.8995 23.3393 96.5601L26.2446 96.5913C38.2128 98.072 38.7827 84.9662 38.7827 83.2567Z" fill="white"/>
<path d="M106.597 90.5174C90.6943 90.9825 86.009 90.678 83.2344 89.3777C83.3325 90.9297 90.3874 91.466 107.167 92.2268C109.882 91.0371 113.283 88.2199 121.412 80.8305L171.556 79.1211C176.569 87.4279 178.928 90.1789 181.243 87.0985C178.685 89.8665 176.114 84.8192 171.556 77.9814L120.842 79.1211C114.414 84.9994 110.832 88.2585 106.597 90.5174Z" fill="white"/>
<path d="M178.393 66.0154C139.894 69.0812 118.562 68.8644 80.3848 64.3059C92.3686 66.6732 99.3921 67.6269 112.294 68.8644C126.172 70.0431 133.914 70.2755 147.623 69.4342C159.808 68.6993 166.508 67.8177 178.393 66.0154Z" fill="white"/>
<path d="M77.5371 56.8977C87.4131 52.4043 97.7768 55.2619 115.715 59.7468C95.7712 56.3284 79.7137 55.5309 83.2353 58.0374L87.224 61.4562C90.1014 62.6992 91.9109 63.2966 96.341 63.7355L107.737 64.8751C97.3718 64.4998 89.415 65.2283 85.5145 62.0261L79.8164 58.0374L77.5371 56.8977Z" fill="white"/>
<path d="M149.904 59.1779C155.935 59.4877 158.799 59.7204 163.01 60.3175C157.256 60.7303 154.008 60.6705 148.194 60.3175C144.928 58.6875 143.042 59.3539 139.647 61.4571L117.994 60.3175C126.311 59.9766 130.541 60.1083 139.647 59.1779C143.121 57.2526 145.173 56.5532 149.904 59.1779Z" fill="white"/>
<path d="M164.719 59.1775L172.696 54.619C171.262 56.5678 169.91 57.7121 167.568 59.7474C168.438 60.9936 168.962 61.6382 170.417 62.0266H177.255C174.829 63.3375 173.301 63.9235 169.847 64.3059C166.539 62.7661 165.72 61.5346 164.719 59.1775Z" fill="white" stroke="white" stroke-width="0.5"/>
<path d="M82.0959 96.2155C80.2829 71.6473 77.2221 63.4461 66.7109 62.5964L68.4204 63.7361C75.9836 65.1333 79.2469 72.8531 80.3865 97.925C116.673 100.622 139.347 99.4837 182.383 94.5061C185.475 90.6588 183.523 77.9814 181.244 68.8644L181.253 68.9055C182.909 76.5083 183.84 80.7838 182.953 90.5174L181.814 93.3665C142.511 97.5885 120.655 98.4229 82.0959 96.2155Z" fill="white"/>
<path d="M82.6641 21V22.1397C95.4536 22.3369 102.651 22.6029 115.713 24.419C123.245 27.357 128.91 31.3991 142.495 44.3625C152.619 47.0333 158.21 48.1855 168.136 50.0606C173.834 52.3399 177.636 56.0273 181.242 66.5853C178.963 57.4682 176.26 52.4585 168.136 48.921C158.536 46.9984 153.178 46.0782 143.634 43.2229C135.087 34.6756 125.228 26.1716 115.713 22.7095C103.27 20.9833 95.5355 21.6361 82.6641 21Z" fill="white"/>
<path d="M82.0941 23.8491L81.5243 24.4189C95.2703 24.8221 102.84 25.2765 115.713 27.1414C120.425 29.3029 135.657 41.5134 134.517 42.653C111.659 41.1362 98.3595 41.3753 74.6865 42.653L73.5469 43.7926C104.069 42.6025 121.411 43.2228 140.785 45.5021C126.199 30.4788 121.867 27.858 115.713 25.5586C104.523 23.9693 97.0974 23.6313 82.0941 23.8491Z" fill="white"/>
<path d="M82.0944 23.8491L81.5246 24.4188C67.7786 24.822 62.4882 24.1962 49.6149 26.0612C44.903 28.2227 28.5318 40.9435 29.6714 42.0831C29.1016 44.4219 67.2792 43.2823 90.6416 42.1426L91.7812 43.2823C60.4414 45.5021 36.5092 45.502 24.5431 44.4219C39.1287 29.3986 43.4616 26.7778 49.6149 24.4783C60.8051 22.8891 67.0911 23.6313 82.0944 23.8491Z" fill="white"/>
<path d="M57.5931 21H82.665V22.1396H57.5931L50.7553 23.2793L45.627 24.4189L39.9289 27.268L33.6609 31.8265L27.9627 36.9548L24.5439 39.8039L21.125 41.5133H18.8457L23.974 39.2341L27.3929 35.8152L33.6609 30.6869L39.359 26.1283L45.0572 23.2793L50.7553 22.1396L57.5931 21Z" fill="white"/>
<path d="M41.6382 41.5139C45.6269 31.8265 57.593 33.5358 60.4421 43.2228L58.7326 43.2234C55.3137 33.5359 43.3476 35.2453 42.7778 43.7926H41.6381C41.4156 43.125 41.5026 41.9205 41.6382 41.5139Z" fill="white"/>
<path d="M15.1763 81.5473C17.961 83.6759 18.933 84.5022 20.8745 86.1058C18.6254 84.5939 17.3703 83.7898 15.1763 82.6869C12.3099 75.9072 10.7066 74.4141 13.8904 67.8717L14.8564 69.4342C12.466 73.256 13.706 75.021 15.1763 81.5473Z" fill="white"/>
</svg>
